<svg xmlns="http://www.w3.org/2000/svg" xmlns:xlink="http://www.w3.org/1999/xlink" viewBox="0 0 2000 2000" width="200" height="200" preserveAspectRatio="xMidYMid meet" style="width: 100%; height: 100%; transform: translate3d(0px, 0px, 0px); content-visibility: visible;"><defs><clipPath id="__lottie_element_817"><rect width="2000" height="2000" x="0" y="0"></rect></clipPath><clipPath id="__lottie_element_819"><path d="M0,0 L2000,0 L2000,2000 L0,2000z"></path></clipPath><filter id="__lottie_element_821" x="-50%" y="-50%" width="200%" height="200%"><feGaussianBlur in="SourceAlpha" result="filter_result_0_drop_shadow_1" stdDeviation="62.5"></feGaussianBlur><feOffset dx="28.284271247461902" dy="28.2842712474619" in="filter_result_0_drop_shadow_1" result="filter_result_0_drop_shadow_2"></feOffset><feFlood flood-color="#000000" flood-opacity="0.15" result="filter_result_0_drop_shadow_3"></feFlood><feComposite in="filter_result_0_drop_shadow_3" in2="filter_result_0_drop_shadow_2" operator="in" result="filter_result_0_drop_shadow_4"></feComposite><feMerge result="filter_result_0"><feMergeNode in="filter_result_0_drop_shadow_4"></feMergeNode><feMergeNode in="SourceGraphic"></feMergeNode></feMerge></filter></defs><g clip-path="url(#__lottie_element_817)"><g transform="matrix(-5.939340114593506,0,0,5.939340114593506,-336.58807373046875,1850.9365234375)" opacity="1" style="display: block;"><g opacity="1" transform="matrix(1,0,0,1,0,0)"><path fill="rgb(242,242,244)" fill-opacity="1" d=" M-288.9360046386719,-45.00400161743164 C-288.9360046386719,-45.00400161743164 -288.9360046386719,-217.36399841308594 -288.9360046386719,-217.36399841308594 C-288.9360046386719,-233.00999450683594 -276.25201416015625,-245.69400024414062 -260.6059875488281,-245.69400024414062 C-260.6059875488281,-245.69400024414062 -185.42100524902344,-245.69400024414062 -185.42100524902344,-245.69400024414062 C-169.77499389648438,-245.69400024414062 -157.09100341796875,-233.00999450683594 -157.09100341796875,-217.36399841308594 C-157.09100341796875,-217.36399841308594 -157.09100341796875,-45.00400161743164 -157.09100341796875,-45.00400161743164 C-157.09100341796875,-29.357999801635742 -169.77499389648438,-16.673999786376953 -185.42100524902344,-16.673999786376953 C-185.42100524902344,-16.673999786376953 -260.6059875488281,-16.673999786376953 -260.6059875488281,-16.673999786376953 C-276.25201416015625,-16.673999786376953 -288.9360046386719,-29.357999801635742 -288.9360046386719,-45.00400161743164z"></path></g></g><g transform="matrix(5.997049808502197,0,0,5.997049808502197,3344.084716796875,1635.477294921875)" opacity="1" style="display: block;"><g opacity="1" transform="matrix(1,0,0,1,0,0)"><g opacity="1" transform="matrix(0.9999954700469971,0,0,0.9999954700469971,-0.001922607421875,-0.000946044921875)"><path fill="#5533FF" fill-opacity="1" d=" M-426.3909912109375,-232.43899536132812 C-439.60699462890625,-232.43899536132812 -450.32000732421875,-221.7259979248047 -450.32000732421875,-208.50999450683594 C-450.32000732421875,-195.29400634765625 -439.60699462890625,-184.58099365234375 -426.3909912109375,-184.58099365234375 C-413.17498779296875,-184.58099365234375 -402.4620056152344,-195.29400634765625 -402.4620056152344,-208.50999450683594 C-402.4620056152344,-221.7259979248047 -413.17498779296875,-232.43899536132812 -426.3909912109375,-232.43899536132812z"></path></g><g opacity="1" transform="matrix(1,0,0,1,0,0)"><path stroke-linecap="square" stroke-linejoin="miter" fill-opacity="0" stroke-miterlimit="10" stroke="rgb(0,0,0)" stroke-opacity="1" stroke-width="0.905" d=" M-414.76800537109375,-208.8520050048828 C-414.76800537109375,-215.08200073242188 -419.8190002441406,-220.13299560546875 -426.04901123046875,-220.13299560546875 C-432.27899169921875,-220.13299560546875 -437.3299865722656,-215.08200073242188 -437.3299865722656,-208.8520050048828 C-437.3299865722656,-202.6219940185547 -432.27899169921875,-197.5709991455078 -426.04901123046875,-197.5709991455078"></path></g><g opacity="1" transform="matrix(1,0,0,1,0,0)"><path stroke-linecap="square" stroke-linejoin="miter" fill-opacity="0" stroke-miterlimit="10" stroke="rgb(0,0,0)" stroke-opacity="1" stroke-width="0.905" d="M0 0"></path></g><g opacity="1" transform="matrix(1,0,0,1,0,0)"><g opacity="1" transform="matrix(1,0,0,1,0,0)"><path stroke-linecap="butt" stroke-linejoin="miter" fill-opacity="0" stroke-miterlimit="10" stroke="rgb(0,0,0)" stroke-opacity="1" stroke-width="0.905" d=" M-418.8710021972656,-205.77499389648438 C-418.8710021972656,-205.77499389648438 -418.8710021972656,-197.5709991455078 -418.8710021972656,-197.5709991455078"></path></g><g opacity="1" transform="matrix(1,0,0,1,0,0)"><path stroke-linecap="butt" stroke-linejoin="miter" fill-opacity="0" stroke-miterlimit="10" stroke="rgb(0,0,0)" stroke-opacity="1" stroke-width="0.905" d=" M-414.76800537109375,-201.67300415039062 C-414.76800537109375,-201.67300415039062 -422.9729919433594,-201.67300415039062 -422.9729919433594,-201.67300415039062"></path></g></g><g opacity="1" transform="matrix(1,0,0,1,0,0)"><path stroke-linecap="butt" stroke-linejoin="miter" fill-opacity="0" stroke-miterlimit="10" stroke="rgb(0,0,0)" stroke-opacity="1" stroke-width="0.905" d=" M-425.7080078125,-216.01400756835938 C-425.7080078125,-216.01400756835938 -425.7080078125,-208.8520050048828 -425.7080078125,-208.8520050048828 C-425.7080078125,-208.8520050048828 -429.3590087890625,-206.21800231933594 -429.3590087890625,-206.21800231933594"></path></g></g></g><g clip-path="url(#__lottie_element_819)" filter="url(#__lottie_element_821)" transform="matrix(1,0,0,1,0,0)" opacity="1" style="display: block;"><g transform="matrix(5.997049808502197,0,0,5.997049808502197,3344.084716796875,1635.477294921875)" opacity="1" style="display: block;"><g opacity="1" transform="matrix(1,0,0,1,0,0)"><g opacity="1" transform="matrix(1,0,0,1,0,0)"><g opacity="1" transform="matrix(1,0,0,1,0,0)"><path fill="rgb(255,255,255)" fill-opacity="1" d=" M-319.92999267578125,6.5269999504089355 C-319.92999267578125,6.5269999504089355 -439.6449890136719,6.5269999504089355 -439.6449890136719,6.5269999504089355 C-441.9930114746094,6.5269999504089355 -443.8970031738281,4.623000144958496 -443.8970031738281,2.2750000953674316 C-443.8970031738281,2.2750000953674316 -443.8970031738281,-19.756999969482422 -443.8970031738281,-19.756999969482422 C-443.8970031738281,-22.104999542236328 -441.9930114746094,-24.009000778198242 -439.6449890136719,-24.009000778198242 C-439.6449890136719,-24.009000778198242 -319.92999267578125,-24.009000778198242 -319.92999267578125,-24.009000778198242 C-317.5820007324219,-24.009000778198242 -315.6780090332031,-22.104999542236328 -315.6780090332031,-19.756999969482422 C-315.6780090332031,-19.756999969482422 -315.6780090332031,2.2750000953674316 -315.6780090332031,2.2750000953674316 C-315.6780090332031,4.623000144958496 -317.5820007324219,6.5269999504089355 -319.92999267578125,6.5269999504089355z"></path></g><g opacity="1" transform="matrix(1,0,0,1,0.007000000216066837,0)"><g opacity="1" transform="matrix(1,0,0,1,-424.23699951171875,-9.265999794006348)"><path fill="rgb(30,156,234)" fill-opacity="1" d=" M0,-10.173999786376953 C5.615030288696289,-10.173999786376953 10.173999786376953,-5.615030288696289 10.173999786376953,0 C10.173999786376953,5.615030288696289 5.615030288696289,10.173999786376953 0,10.173999786376953 C-5.615030288696289,10.173999786376953 -10.173999786376953,5.615030288696289 -10.173999786376953,0 C-10.173999786376953,-5.615030288696289 -5.615030288696289,-10.173999786376953 0,-10.173999786376953z"></path></g><g opacity="1" transform="matrix(1,0,0,1,0,0)"><path fill="rgb(255,255,255)" fill-opacity="1" d=" M-420.7330017089844,-11.173999786376953 C-420.7409973144531,-11.253000259399414 -420.7510070800781,-11.331999778747559 -420.76300048828125,-11.40999984741211 C-420.42999267578125,-11.706999778747559 -420.14898681640625,-12.062999725341797 -419.9410095214844,-12.456000328063965 C-420.2560119628906,-12.274999618530273 -420.60198974609375,-12.140000343322754 -420.97100830078125,-12.055999755859375 C-420.614013671875,-12.322999954223633 -420.3590087890625,-12.713000297546387 -420.2659912109375,-13.154999732971191 C-420.60101318359375,-12.907999992370605 -420.9800109863281,-12.71399974822998 -421.3919982910156,-12.586999893188477 C-421.7659912109375,-12.907999992370605 -422.2690124511719,-13.079999923706055 -422.79998779296875,-13.02400016784668 C-423.82000732421875,-12.916999816894531 -424.55999755859375,-12.008999824523926 -424.4540100097656,-10.996999740600586 C-424.4389953613281,-10.852999687194824 -424.4079895019531,-10.715999603271484 -424.36199951171875,-10.585000038146973 C-425.9049987792969,-10.5 -427.3420104980469,-11.086000442504883 -428.3689880371094,-12.098999977111816 C-428.4989929199219,-11.812000274658203 -428.5580139160156,-11.48799991607666 -428.52301025390625,-11.152000427246094 C-428.45599365234375,-10.515999794006348 -428.0710144042969,-9.98900032043457 -427.5409851074219,-9.713000297546387 C-427.8450012207031,-9.6899995803833 -428.13800048828125,-9.743000030517578 -428.4010009765625,-9.854000091552734 C-428.3999938964844,-9.845999717712402 -428.3999938964844,-9.83899974822998 -428.39898681640625,-9.831000328063965 C-428.3059997558594,-8.944000244140625 -427.59100341796875,-8.269000053405762 -426.72900390625,-8.1899995803833 C-426.8800048828125,-8.131999969482422 -427.0409851074219,-8.093000411987305 -427.2090148925781,-8.074999809265137 C-427.3280029296875,-8.062000274658203 -427.4440002441406,-8.060999870300293 -427.5589904785156,-8.071000099182129 C-427.24700927734375,-7.368000030517578 -426.510986328125,-6.909999847412109 -425.70098876953125,-6.980000019073486 C-426.281005859375,-6.421999931335449 -427.0459899902344,-6.045000076293945 -427.9110107421875,-5.953999996185303 C-428.05999755859375,-5.938000202178955 -428.2090148925781,-5.931000232696533 -428.3550109863281,-5.933000087738037 C-427.4830017089844,-5.499000072479248 -426.4809875488281,-5.297999858856201 -425.43798828125,-5.4079999923706055 C-422.0419921875,-5.764999866485596 -420.4779968261719,-8.753000259399414 -420.7330017089844,-11.173999786376953z"></path></g></g></g></g></g><g transform="matrix(5.997049808502197,0,0,5.997049808502197,888.4248046875,1600.724365234375)" opacity="1" fill="rgb(40,40,40)" font-size="11.2500801086426" font-family="Work Sans" font-style="normal" font-weight="400" aria-label="Twitter" style="display: block;"><g stroke-linecap="butt" stroke-linejoin="round" stroke-miterlimit="4" transform="matrix(1,0,0,1,0,0)" opacity="1" style="display: inherit;"><g><g transform="matrix(1,0,0,1,0,0)" opacity="1" style="display: block;"><path d=" M6.44,-7.43 C6.44,-7.43 0.36,-7.43 0.36,-7.43 C0.36,-7.43 0.36,-6.58 0.36,-6.58 C0.36,-6.58 2.95,-6.58 2.95,-6.58 C2.95,-6.58 2.95,0 2.95,0 C2.95,0 3.85,0 3.85,0 C3.85,0 3.85,-6.58 3.85,-6.58 C3.85,-6.58 6.44,-6.58 6.44,-6.58 C6.44,-6.58 6.44,-7.43 6.44,-7.43z"></path><g opacity="1" transform="matrix(0.11250080168247223,0,0,0.11250080168247223,0,0)"></g></g></g></g><g stroke-linecap="butt" stroke-linejoin="round" stroke-miterlimit="4" transform="matrix(1,0,0,1,6.581296920776367,0)" opacity="1" style="display: inherit;"><g><g transform="matrix(1,0,0,1,0,0)" opacity="1" style="display: block;"><path d=" M8.21,-5.63 C8.21,-5.63 6.8,-1.05 6.8,-1.05 C6.8,-1.05 5.27,-5.63 5.27,-5.63 C5.27,-5.63 4.37,-5.63 4.37,-5.63 C4.37,-5.63 2.84,-1.05 2.84,-1.05 C2.84,-1.05 1.42,-5.63 1.42,-5.63 C1.42,-5.63 0.42,-5.63 0.42,-5.63 C0.42,-5.63 2.37,0 2.37,0 C2.37,0 3.27,0 3.27,0 C3.27,0 4.77,-4.48 4.77,-4.48 C4.77,-4.48 6.36,0 6.36,0 C6.36,0 7.26,0 7.26,0 C7.26,0 9.21,-5.63 9.21,-5.63 C9.21,-5.63 8.21,-5.63 8.21,-5.63z"></path><g opacity="1" transform="matrix(0.11250080168247223,0,0,0.11250080168247223,0,0)"></g></g></g></g><g stroke-linecap="butt" stroke-linejoin="round" stroke-miterlimit="4" transform="matrix(1,0,0,1,15.997613906860352,0)" opacity="1" style="display: inherit;"><g><g transform="matrix(1,0,0,1,0,0)" opacity="1" style="display: block;"><path d=" M1.95,-5.63 C1.95,-5.63 1.05,-5.63 1.05,-5.63 C1.05,-5.63 1.05,0 1.05,0 C1.05,0 1.95,0 1.95,0 C1.95,0 1.95,-5.63 1.95,-5.63z M1.5,-6.71 C1.7,-6.71 1.86,-6.77 1.99,-6.89 C2.11,-7.01 2.17,-7.18 2.17,-7.38 C2.17,-7.58 2.11,-7.75 1.99,-7.87 C1.86,-7.99 1.7,-8.06 1.5,-8.06 C1.29,-8.06 1.13,-7.99 1.01,-7.87 C0.88,-7.75 0.82,-7.58 0.82,-7.38 C0.82,-7.18 0.88,-7.01 1.01,-6.89 C1.13,-6.77 1.29,-6.71 1.5,-6.71z"></path><g opacity="1" transform="matrix(0.11250080168247223,0,0,0.11250080168247223,0,0)"></g></g></g></g><g stroke-linecap="butt" stroke-linejoin="round" stroke-miterlimit="4" transform="matrix(1,0,0,1,18.776384353637695,0)" opacity="1" style="display: inherit;"><g><g transform="matrix(1,0,0,1,0,0)" opacity="1" style="display: block;"><path d=" M4.17,-1.15 C3.9,-0.87 3.58,-0.73 3.22,-0.73 C2.96,-0.73 2.76,-0.8 2.6,-0.94 C2.45,-1.08 2.37,-1.28 2.37,-1.55 C2.37,-1.55 2.37,-4.85 2.37,-4.85 C2.37,-4.85 4.46,-4.85 4.46,-4.85 C4.46,-4.85 4.46,-5.63 4.46,-5.63 C4.46,-5.63 2.37,-5.63 2.37,-5.63 C2.37,-5.63 2.37,-7.22 2.37,-7.22 C2.37,-7.22 1.47,-6.98 1.47,-6.98 C1.47,-6.98 1.47,-5.63 1.47,-5.63 C1.47,-5.63 0.35,-5.63 0.35,-5.63 C0.35,-5.63 0.35,-4.85 0.35,-4.85 C0.35,-4.85 1.47,-4.85 1.47,-4.85 C1.47,-4.85 1.47,-1.4 1.47,-1.4 C1.48,-0.88 1.63,-0.51 1.92,-0.26 C2.21,-0.01 2.58,0.11 3.04,0.11 C3.63,0.11 4.11,-0.06 4.49,-0.39 C4.49,-0.39 4.17,-1.15 4.17,-1.15z"></path><g opacity="1" transform="matrix(0.11250080168247223,0,0,0.11250080168247223,0,0)"></g></g></g></g><g stroke-linecap="butt" stroke-linejoin="round" stroke-miterlimit="4" transform="matrix(1,0,0,1,22.55640983581543,0)" opacity="1" style="display: inherit;"><g><g transform="matrix(1,0,0,1,0,0)" opacity="1" style="display: block;"><path d=" M4.17,-1.15 C3.9,-0.87 3.58,-0.73 3.22,-0.73 C2.96,-0.73 2.76,-0.8 2.6,-0.94 C2.45,-1.08 2.37,-1.28 2.37,-1.55 C2.37,-1.55 2.37,-4.85 2.37,-4.85 C2.37,-4.85 4.46,-4.85 4.46,-4.85 C4.46,-4.85 4.46,-5.63 4.46,-5.63 C4.46,-5.63 2.37,-5.63 2.37,-5.63 C2.37,-5.63 2.37,-7.22 2.37,-7.22 C2.37,-7.22 1.47,-6.98 1.47,-6.98 C1.47,-6.98 1.47,-5.63 1.47,-5.63 C1.47,-5.63 0.35,-5.63 0.35,-5.63 C0.35,-5.63 0.35,-4.85 0.35,-4.85 C0.35,-4.85 1.47,-4.85 1.47,-4.85 C1.47,-4.85 1.47,-1.4 1.47,-1.4 C1.48,-0.88 1.63,-0.51 1.92,-0.26 C2.21,-0.01 2.58,0.11 3.04,0.11 C3.63,0.11 4.11,-0.06 4.49,-0.39 C4.49,-0.39 4.17,-1.15 4.17,-1.15z"></path><g opacity="1" transform="matrix(0.11250080168247223,0,0,0.11250080168247223,0,0)"></g></g></g></g><g stroke-linecap="butt" stroke-linejoin="round" stroke-miterlimit="4" transform="matrix(1,0,0,1,26.336437225341797,0)" opacity="1" style="display: inherit;"><g><g transform="matrix(1,0,0,1,0,0)" opacity="1" style="display: block;"><path d=" M3.35,-4.95 C3.83,-4.95 4.2,-4.8 4.49,-4.51 C4.77,-4.21 4.95,-3.8 5.01,-3.27 C5.01,-3.27 1.6,-3.27 1.6,-3.27 C1.67,-3.81 1.85,-4.22 2.15,-4.51 C2.46,-4.8 2.86,-4.95 3.35,-4.95z M5.87,-3.11 C5.87,-3.6 5.78,-4.05 5.58,-4.44 C5.38,-4.84 5.1,-5.16 4.71,-5.39 C4.33,-5.62 3.88,-5.74 3.35,-5.74 C2.5,-5.74 1.85,-5.48 1.39,-4.96 C0.93,-4.44 0.7,-3.73 0.7,-2.81 C0.7,-1.9 0.94,-1.18 1.42,-0.66 C1.91,-0.15 2.57,0.11 3.42,0.11 C4.01,0.11 4.48,0.01 4.86,-0.2 C5.23,-0.41 5.54,-0.72 5.76,-1.11 C5.76,-1.11 5.01,-1.51 5.01,-1.51 C4.91,-1.24 4.72,-1.03 4.45,-0.89 C4.18,-0.75 3.83,-0.68 3.42,-0.68 C2.9,-0.68 2.48,-0.83 2.15,-1.15 C1.83,-1.46 1.64,-1.9 1.59,-2.48 C1.59,-2.48 5.83,-2.48 5.83,-2.48 C5.86,-2.68 5.87,-2.89 5.87,-3.11z"></path><g opacity="1" transform="matrix(0.11250080168247223,0,0,0.11250080168247223,0,0)"></g></g></g></g><g stroke-linecap="butt" stroke-linejoin="round" stroke-miterlimit="4" transform="matrix(1,0,0,1,32.65898132324219,0)" opacity="1" style="display: inherit;"><g><g transform="matrix(1,0,0,1,0,0)" opacity="1" style="display: block;"><path d=" M3.7,-5.74 C2.82,-5.74 2.22,-5.39 1.9,-4.7 C1.9,-4.7 1.78,-5.63 1.78,-5.63 C1.78,-5.63 1.05,-5.63 1.05,-5.63 C1.05,-5.63 1.05,0 1.05,0 C1.05,0 1.95,0 1.95,0 C1.95,0 1.95,-3.04 1.95,-3.04 C1.95,-3.43 2.02,-3.77 2.17,-4.06 C2.31,-4.34 2.5,-4.55 2.73,-4.69 C2.96,-4.82 3.19,-4.89 3.43,-4.89 C3.72,-4.89 3.96,-4.84 4.14,-4.75 C4.14,-4.75 4.32,-5.63 4.32,-5.63 C4.18,-5.7 3.97,-5.74 3.7,-5.74z"></path><g opacity="1" transform="matrix(0.11250080168247223,0,0,0.11250080168247223,0,0)"></g></g></g></g></g><g transform="matrix(5.997049808502197,0,0,5.997049808502197,3344.084716796875,1635.477294921875)" opacity="1" style="display: block;"><g opacity="1" transform="matrix(1,0,0,1,0,0)"><g opacity="1" transform="matrix(1,0,0,1,0,0)"><g opacity="1" transform="matrix(1,0,0,1,0,0)"><path fill="rgb(255,255,255)" fill-opacity="1" d=" M-349.76800537109375,-30.73200035095215 C-349.76800537109375,-30.73200035095215 -469.4840087890625,-30.73200035095215 -469.4840087890625,-30.73200035095215 C-471.8320007324219,-30.73200035095215 -473.7359924316406,-32.63600158691406 -473.7359924316406,-34.98400115966797 C-473.7359924316406,-34.98400115966797 -473.7359924316406,-57.01599884033203 -473.7359924316406,-57.01599884033203 C-473.7359924316406,-59.36399841308594 -471.8320007324219,-61.268001556396484 -469.4840087890625,-61.268001556396484 C-469.4840087890625,-61.268001556396484 -349.76800537109375,-61.268001556396484 -349.76800537109375,-61.268001556396484 C-347.4200134277344,-61.268001556396484 -345.5159912109375,-59.36399841308594 -345.5159912109375,-57.01599884033203 C-345.5159912109375,-57.01599884033203 -345.5159912109375,-34.98400115966797 -345.5159912109375,-34.98400115966797 C-345.5159912109375,-32.63600158691406 -347.4200134277344,-30.73200035095215 -349.76800537109375,-30.73200035095215z"></path></g><g opacity="1" transform="matrix(1,0,0,1,0,0)"><g opacity="1" transform="matrix(1,0,0,1,0,0)"><g opacity="1" transform="matrix(1,0,0,1,0,0)"><g opacity="1" transform="matrix(1,0,0,1,0,0)"><g opacity="1" transform="matrix(1,0,0,1,0,0)"></g><g opacity="1" transform="matrix(1,0,0,1,0,0)"><path fill="rgb(27,118,152)" fill-opacity="1" d=" M-443.8970031738281,-46.50899887084961 C-443.8970031738281,-40.887001037597656 -448.4540100097656,-36.33100128173828 -454.07598876953125,-36.33100128173828 C-459.6969909667969,-36.33100128173828 -464.2539978027344,-40.887001037597656 -464.2539978027344,-46.50899887084961 C-464.2539978027344,-52.130001068115234 -459.6969909667969,-56.6879997253418 -454.07598876953125,-56.6879997253418 C-448.4540100097656,-56.6879997253418 -443.8970031738281,-52.130001068115234 -443.8970031738281,-46.50899887084961"></path></g><g opacity="1" transform="matrix(1,0,0,1,0,0)"><path fill="rgb(255,255,255)" fill-opacity="1" d=" M-461.3800048828125,-45.46099853515625 C-461.4209899902344,-45.74700164794922 -461.447998046875,-46.0369987487793 -461.4549865722656,-46.33300018310547"></path></g><g opacity="1" transform="matrix(1,0,0,1,0,0)"><path fill="rgb(255,255,255)" fill-opacity="1" d=" M-460.5950012207031,-46.5260009765625 C-460.5870056152344,-49.62900161743164 -458.39898681640625,-52.22999954223633 -455.4809875488281,-52.874000549316406 C-455.4809875488281,-52.874000549316406 -455.4779968261719,-47.67300033569336 -455.4779968261719,-47.67300033569336 C-455.4779968261719,-47.67300033569336 -460.5950012207031,-46.5260009765625 -460.5950012207031,-46.5260009765625z M-454.614013671875,-53.00199890136719 C-454.614013671875,-53.00199890136719 -454.614990234375,-53.86899948120117 -454.614990234375,-53.86899948120117 C-454.90899658203125,-53.847999572753906 -455.197998046875,-53.8129997253418 -455.4809875488281,-53.757999420166016 C-458.8940124511719,-53.09700012207031 -461.4750061035156,-50.084999084472656 -461.4630126953125,-46.48400115966797 C-461.4630126953125,-46.43299865722656 -461.45599365234375,-46.38399887084961 -461.4549865722656,-46.33300018310547 C-461.447998046875,-46.0369987487793 -461.4209899902344,-45.74700164794922 -461.3800048828125,-45.46099853515625 C-461.3800048828125,-45.46099853515625 -460.5350036621094,-45.6510009765625 -460.5350036621094,-45.6510009765625 C-460.5350036621094,-45.6510009765625 -454.6099853515625,-46.979000091552734 -454.6099853515625,-46.979000091552734 C-454.6099853515625,-46.979000091552734 -454.614013671875,-53.00199890136719 -454.614013671875,-53.00199890136719z"></path></g><g opacity="1" transform="matrix(1,0,0,1,0,0)"><path fill="rgb(255,255,255)" fill-opacity="1" d=" M-460.9830017089844,-43.9119987487793 C-461.0840148925781,-44.18199920654297 -461.1709899902344,-44.45800018310547 -461.2409973144531,-44.742000579833984"></path></g><g opacity="1" transform="matrix(1,0,0,1,0,0)"><path fill="rgb(255,255,255)" fill-opacity="1" d=" M-458.6709899902344,-41.88199996948242 C-459.32000732421875,-42.5260009765625 -459.81201171875,-43.28499984741211 -460.13800048828125,-44.111000061035156 C-460.13800048828125,-44.111000061035156 -455.4490051269531,-45.21699905395508 -455.4490051269531,-45.21699905395508 C-455.4490051269531,-45.21699905395508 -455.4360046386719,-40.137001037597656 -455.4360046386719,-40.137001037597656 C-456.6499938964844,-40.39500045776367 -457.7699890136719,-40.98699951171875 -458.6709899902344,-41.88199996948242 C-458.6709899902344,-41.88199996948242 -458.6709899902344,-41.88199996948242 -458.6709899902344,-41.88199996948242z M-454.5690002441406,-40.01300048828125 C-454.5690002441406,-40.01300048828125 -454.58599853515625,-46.31100082397461 -454.58599853515625,-46.31100082397461 C-454.58599853515625,-46.31100082397461 -460.3999938964844,-44.939998626708984 -460.3999938964844,-44.939998626708984 C-460.3999938964844,-44.939998626708984 -461.2409973144531,-44.74100112915039 -461.2409973144531,-44.74100112915039 C-461.1709899902344,-44.45800018310547 -461.0849914550781,-44.18199920654297 -460.9830017089844,-43.9119987487793 C-460.0830078125,-41.52799987792969 -457.9909973144531,-39.72999954223633 -455.4339904785156,-39.25199890136719 C-455.1510009765625,-39.19900131225586 -454.8609924316406,-39.16600036621094 -454.5669860839844,-39.145999908447266 C-454.5669860839844,-39.145999908447266 -454.5690002441406,-40.01300048828125 -454.5690002441406,-40.01300048828125z"></path></g><g opacity="1" transform="matrix(1,0,0,1,0,0)"><path fill="rgb(255,255,255)" fill-opacity="1" d=" M-449.4490051269531,-41.91400146484375 C-450.45001220703125,-40.90700149536133 -451.7229919433594,-40.27299880981445 -453.10198974609375,-40.06800079345703 C-453.10198974609375,-40.06800079345703 -453.10400390625,-45.02299880981445 -453.10400390625,-45.02299880981445 C-453.10400390625,-45.02299880981445 -448.7179870605469,-42.79800033569336 -448.7179870605469,-42.79800033569336 C-448.93499755859375,-42.486000061035156 -449.1759948730469,-42.18899917602539 -449.4490051269531,-41.91400146484375 C-449.4490051269531,-41.91400146484375 -449.4490051269531,-41.91400146484375 -449.4490051269531,-41.91400146484375z M-448.2699890136719,-43.54199981689453 C-448.2699890136719,-43.54199981689453 -453.97198486328125,-46.435001373291016 -453.97198486328125,-46.435001373291016 C-453.97198486328125,-46.435001373291016 -453.9679870605469,-39.99300003051758 -453.9679870605469,-39.99300003051758 C-453.9679870605469,-39.99300003051758 -453.9679870605469,-39.125999450683594 -453.9679870605469,-39.125999450683594 C-453.67401123046875,-39.130001068115234 -453.385986328125,-39.154998779296875 -453.10101318359375,-39.19300079345703 C-450.9530029296875,-39.47800064086914 -449.0929870605469,-40.68199920654297 -447.93798828125,-42.402000427246094 C-447.7770080566406,-42.641998291015625 -447.635009765625,-42.89400100708008 -447.50201416015625,-43.152000427246094 C-447.50201416015625,-43.152000427246094 -448.2699890136719,-43.54199981689453 -448.2699890136719,-43.54199981689453z"></path></g><g opacity="1" transform="matrix(1,0,0,1,0,0)"><path fill="rgb(255,255,255)" fill-opacity="1" d=" M-451.9949951171875,-47.124000549316406 C-451.9949951171875,-47.124000549316406 -448.7969970703125,-50.327999114990234 -448.7969970703125,-50.327999114990234 C-447.9989929199219,-49.22999954223633 -447.55999755859375,-47.91600036621094 -447.55499267578125,-46.53099822998047 C-447.5530090332031,-46.00299835205078 -447.6210021972656,-45.486000061035156 -447.7409973144531,-44.98500061035156 C-447.7409973144531,-44.98500061035156 -451.9949951171875,-47.124000549316406 -451.9949951171875,-47.124000549316406z M-448.1820068359375,-50.94499969482422 C-448.35699462890625,-51.176998138427734 -448.5429992675781,-51.39899826049805 -448.7439880371094,-51.60900115966797 C-448.7439880371094,-51.60900115966797 -449.35400390625,-50.99700164794922 -449.35400390625,-50.99700164794922 C-449.35400390625,-50.99700164794922 -453.4540100097656,-46.888999938964844 -453.4540100097656,-46.888999938964844 C-453.4540100097656,-46.888999938964844 -448,-44.14500045776367 -448,-44.14500045776367 C-448,-44.14500045776367 -447.2250061035156,-43.755001068115234 -447.2250061035156,-43.755001068115234 C-447.1159973144531,-44.025001525878906 -447.0270080566406,-44.303001403808594 -446.95001220703125,-44.58700180053711 C-446.7820129394531,-45.20899963378906 -446.6860046386719,-45.86000061035156 -446.68798828125,-46.534000396728516 C-446.6940002441406,-48.191001892089844 -447.25299072265625,-49.71500015258789 -448.1820068359375,-50.94499969482422 C-448.1820068359375,-50.94499969482422 -448.1820068359375,-50.94499969482422 -448.1820068359375,-50.94499969482422z"></path></g><g opacity="1" transform="matrix(1,0,0,1,0,0)"><path fill="rgb(255,255,255)" fill-opacity="1" d=" M-453.1189880371094,-49.354000091552734 C-453.1189880371094,-49.354000091552734 -453.125,-52.95399856567383 -453.125,-52.95399856567383 C-452.1929931640625,-52.81800079345703 -451.30999755859375,-52.4900016784668 -450.5249938964844,-51.97800064086914 C-450.5249938964844,-51.97800064086914 -453.1189880371094,-49.354000091552734 -453.1189880371094,-49.354000091552734z M-449.9079895019531,-52.60300064086914 C-450.8479919433594,-53.24800109863281 -451.9440002441406,-53.67599868774414 -453.1260070800781,-53.82899856567383 C-453.4110107421875,-53.86600112915039 -453.6990051269531,-53.88999938964844 -453.9930114746094,-53.893001556396484 C-453.9930114746094,-53.893001556396484 -453.99200439453125,-53.0260009765625 -453.99200439453125,-53.0260009765625 C-453.99200439453125,-53.0260009765625 -453.9830017089844,-47.24800109863281 -453.9830017089844,-47.24800109863281 C-453.9830017089844,-47.24800109863281 -449.8290100097656,-51.45000076293945 -449.8290100097656,-51.45000076293945 C-449.8290100097656,-51.45000076293945 -449.22100830078125,-52.06399917602539 -449.22100830078125,-52.06399917602539 C-449.44000244140625,-52.25600051879883 -449.6679992675781,-52.4379997253418 -449.9079895019531,-52.60300064086914 C-449.9079895019531,-52.60300064086914 -449.9079895019531,-52.60300064086914 -449.9079895019531,-52.60300064086914z"></path></g></g></g></g></g></g></g></g><g transform="matrix(5.997049808502197,0,0,5.997049808502197,709.4847412109375,1377.2802734375)" opacity="1" fill="rgb(40,40,40)" font-size="11.2500801086426" font-family="Work Sans" font-style="normal" font-weight="400" aria-label="Crypto Index 5" style="display: block;"><g stroke-linecap="butt" stroke-linejoin="round" stroke-miterlimit="4" transform="matrix(1,0,0,1,0,0)" opacity="1" style="display: inherit;"><g><g transform="matrix(1,0,0,1,0,0)" opacity="1" style="display: block;"><path d=" M7.2,-1.9 C7.2,-1.9 6.3,-2.24 6.3,-2.24 C6.14,-1.74 5.88,-1.37 5.51,-1.11 C5.14,-0.86 4.71,-0.73 4.21,-0.73 C3.43,-0.73 2.83,-1 2.38,-1.52 C1.93,-2.05 1.71,-2.78 1.71,-3.71 C1.71,-4.33 1.81,-4.86 2.03,-5.31 C2.23,-5.76 2.53,-6.1 2.91,-6.34 C3.3,-6.58 3.74,-6.69 4.25,-6.69 C4.74,-6.69 5.14,-6.59 5.46,-6.37 C5.77,-6.15 6.01,-5.82 6.18,-5.39 C6.18,-5.39 7.07,-5.81 7.07,-5.81 C6.82,-6.37 6.46,-6.81 5.98,-7.1 C5.5,-7.39 4.9,-7.54 4.19,-7.54 C3.5,-7.54 2.9,-7.38 2.39,-7.07 C1.87,-6.76 1.47,-6.32 1.19,-5.74 C0.91,-5.16 0.77,-4.48 0.77,-3.71 C0.77,-2.93 0.91,-2.26 1.19,-1.68 C1.47,-1.11 1.87,-0.67 2.39,-0.35 C2.9,-0.04 3.51,0.11 4.21,0.11 C4.91,0.11 5.52,-0.07 6.05,-0.42 C6.59,-0.78 6.97,-1.27 7.2,-1.9z"></path><g opacity="1" transform="matrix(0.11250080168247223,0,0,0.11250080168247223,0,0)"></g></g></g></g><g stroke-linecap="butt" stroke-linejoin="round" stroke-miterlimit="4" transform="matrix(1,0,0,1,7.503803253173828,0)" opacity="1" style="display: inherit;"><g><g transform="matrix(1,0,0,1,0,0)" opacity="1" style="display: block;"><path d=" M3.7,-5.74 C2.82,-5.74 2.22,-5.39 1.9,-4.7 C1.9,-4.7 1.78,-5.63 1.78,-5.63 C1.78,-5.63 1.05,-5.63 1.05,-5.63 C1.05,-5.63 1.05,0 1.05,0 C1.05,0 1.95,0 1.95,0 C1.95,0 1.95,-3.04 1.95,-3.04 C1.95,-3.43 2.02,-3.77 2.17,-4.06 C2.31,-4.34 2.5,-4.55 2.73,-4.69 C2.96,-4.82 3.19,-4.89 3.43,-4.89 C3.72,-4.89 3.96,-4.84 4.14,-4.75 C4.14,-4.75 4.32,-5.63 4.32,-5.63 C4.18,-5.7 3.97,-5.74 3.7,-5.74z"></path><g opacity="1" transform="matrix(0.11250080168247223,0,0,0.11250080168247223,0,0)"></g></g></g></g><g stroke-linecap="butt" stroke-linejoin="round" stroke-miterlimit="4" transform="matrix(1,0,0,1,11.880084991455078,0)" opacity="1" style="display: inherit;"><g><g transform="matrix(1,0,0,1,0,0)" opacity="1" style="display: block;"><path d=" M5.83,-5.63 C5.83,-5.63 4.86,-5.63 4.86,-5.63 C4.86,-5.63 3.54,-2.07 3.54,-2.07 C3.54,-2.07 3.14,-0.96 3.14,-0.96 C3.14,-0.96 2.79,-1.96 2.79,-1.96 C2.79,-1.96 1.38,-5.63 1.38,-5.63 C1.38,-5.63 0.36,-5.63 0.36,-5.63 C0.36,-5.63 2.71,-0.01 2.71,-0.01 C2.71,-0.01 2.42,0.72 2.42,0.72 C2.29,1.06 2.14,1.3 1.97,1.43 C1.81,1.57 1.61,1.63 1.4,1.63 C1,1.63 0.7,1.48 0.48,1.18 C0.48,1.18 0.17,1.95 0.17,1.95 C0.33,2.11 0.5,2.23 0.69,2.31 C0.88,2.38 1.12,2.42 1.41,2.42 C1.83,2.42 2.18,2.31 2.45,2.09 C2.72,1.87 2.97,1.49 3.18,0.95 C3.18,0.95 5.83,-5.63 5.83,-5.63z"></path><g opacity="1" transform="matrix(0.11250080168247223,0,0,0.11250080168247223,0,0)"></g></g></g></g><g stroke-linecap="butt" stroke-linejoin="round" stroke-miterlimit="4" transform="matrix(1,0,0,1,17.68512535095215,0)" opacity="1" style="display: inherit;"><g><g transform="matrix(1,0,0,1,0,0)" opacity="1" style="display: block;"><path d=" M3.71,-0.68 C3.17,-0.68 2.74,-0.86 2.42,-1.24 C2.11,-1.61 1.95,-2.12 1.95,-2.75 C1.95,-2.75 1.95,-2.88 1.95,-2.88 C1.95,-3.51 2.11,-4.01 2.42,-4.39 C2.74,-4.76 3.17,-4.95 3.71,-4.95 C4.26,-4.95 4.69,-4.76 5.01,-4.37 C5.32,-3.98 5.48,-3.47 5.48,-2.81 C5.48,-2.16 5.32,-1.64 5.01,-1.25 C4.69,-0.87 4.26,-0.68 3.71,-0.68z M3.81,-5.74 C3.38,-5.74 2.99,-5.64 2.65,-5.44 C2.31,-5.24 2.05,-4.98 1.89,-4.65 C1.89,-4.65 1.83,-5.63 1.83,-5.63 C1.83,-5.63 1.05,-5.63 1.05,-5.63 C1.05,-5.63 1.05,2.36 1.05,2.36 C1.05,2.36 1.95,2.36 1.95,2.36 C1.95,2.36 1.95,-0.88 1.95,-0.88 C2.13,-0.58 2.38,-0.34 2.71,-0.16 C3.03,0.02 3.4,0.11 3.81,0.11 C4.6,0.11 5.23,-0.15 5.69,-0.67 C6.15,-1.19 6.38,-1.9 6.38,-2.81 C6.38,-3.72 6.15,-4.43 5.69,-4.96 C5.23,-5.48 4.6,-5.74 3.81,-5.74z"></path><g opacity="1" transform="matrix(0.11250080168247223,0,0,0.11250080168247223,0,0)"></g></g></g></g><g stroke-linecap="butt" stroke-linejoin="round" stroke-miterlimit="4" transform="matrix(1,0,0,1,24.55892562866211,0)" opacity="1" style="display: inherit;"><g><g transform="matrix(1,0,0,1,0,0)" opacity="1" style="display: block;"><path d=" M4.17,-1.15 C3.9,-0.87 3.58,-0.73 3.22,-0.73 C2.96,-0.73 2.76,-0.8 2.6,-0.94 C2.45,-1.08 2.37,-1.28 2.37,-1.55 C2.37,-1.55 2.37,-4.85 2.37,-4.85 C2.37,-4.85 4.46,-4.85 4.46,-4.85 C4.46,-4.85 4.46,-5.63 4.46,-5.63 C4.46,-5.63 2.37,-5.63 2.37,-5.63 C2.37,-5.63 2.37,-7.22 2.37,-7.22 C2.37,-7.22 1.47,-6.98 1.47,-6.98 C1.47,-6.98 1.47,-5.63 1.47,-5.63 C1.47,-5.63 0.35,-5.63 0.35,-5.63 C0.35,-5.63 0.35,-4.85 0.35,-4.85 C0.35,-4.85 1.47,-4.85 1.47,-4.85 C1.47,-4.85 1.47,-1.4 1.47,-1.4 C1.48,-0.88 1.63,-0.51 1.92,-0.26 C2.21,-0.01 2.58,0.11 3.04,0.11 C3.63,0.11 4.11,-0.06 4.49,-0.39 C4.49,-0.39 4.17,-1.15 4.17,-1.15z"></path><g opacity="1" transform="matrix(0.11250080168247223,0,0,0.11250080168247223,0,0)"></g></g></g></g><g stroke-linecap="butt" stroke-linejoin="round" stroke-miterlimit="4" transform="matrix(1,0,0,1,28.338953018188477,0)" opacity="1" style="display: inherit;"><g><g transform="matrix(1,0,0,1,0,0)" opacity="1" style="display: block;"><path d=" M3.42,-4.96 C3.99,-4.96 4.44,-4.77 4.76,-4.39 C5.08,-4.01 5.24,-3.48 5.24,-2.81 C5.24,-2.14 5.08,-1.62 4.76,-1.24 C4.44,-0.86 3.99,-0.66 3.42,-0.66 C2.85,-0.66 2.4,-0.86 2.08,-1.24 C1.76,-1.62 1.6,-2.14 1.6,-2.81 C1.6,-3.48 1.76,-4.01 2.08,-4.39 C2.4,-4.77 2.85,-4.96 3.42,-4.96z M3.42,-5.74 C2.57,-5.74 1.91,-5.48 1.42,-4.96 C0.94,-4.44 0.7,-3.73 0.7,-2.81 C0.7,-1.9 0.94,-1.18 1.42,-0.66 C1.91,-0.15 2.57,0.11 3.42,0.11 C4.27,0.11 4.93,-0.15 5.42,-0.66 C5.9,-1.18 6.14,-1.9 6.14,-2.81 C6.14,-3.73 5.9,-4.44 5.42,-4.96 C4.93,-5.48 4.27,-5.74 3.42,-5.74z"></path><g opacity="1" transform="matrix(0.11250080168247223,0,0,0.11250080168247223,0,0)"></g></g></g></g><g stroke-linecap="butt" stroke-linejoin="round" stroke-miterlimit="4" transform="matrix(1,0,0,1,34.96525192260742,0)" opacity="1" style="display: inherit;"><g><g style="display: none;"></g></g></g><g stroke-linecap="butt" stroke-linejoin="round" stroke-miterlimit="4" transform="matrix(1,0,0,1,38.58777618408203,0)" opacity="1" style="display: inherit;"><g><g transform="matrix(1,0,0,1,0,0)" opacity="1" style="display: block;"><path d=" M2.12,-7.43 C2.12,-7.43 1.22,-7.43 1.22,-7.43 C1.22,-7.43 1.22,0 1.22,0 C1.22,0 2.12,0 2.12,0 C2.12,0 2.12,-7.43 2.12,-7.43z"></path><g opacity="1" transform="matrix(0.11250080168247223,0,0,0.11250080168247223,0,0)"></g></g></g></g><g stroke-linecap="butt" stroke-linejoin="round" stroke-miterlimit="4" transform="matrix(1,0,0,1,41.70404815673828,0)" opacity="1" style="display: inherit;"><g><g transform="matrix(1,0,0,1,0,0)" opacity="1" style="display: block;"><path d=" M3.78,-5.74 C3.37,-5.74 3,-5.66 2.67,-5.5 C2.34,-5.33 2.08,-5.09 1.89,-4.75 C1.89,-4.75 1.83,-5.63 1.83,-5.63 C1.83,-5.63 1.05,-5.63 1.05,-5.63 C1.05,-5.63 1.05,0 1.05,0 C1.05,0 1.95,0 1.95,0 C1.95,0 1.95,-2.99 1.95,-2.99 C1.95,-3.44 2.03,-3.82 2.2,-4.11 C2.37,-4.41 2.58,-4.62 2.85,-4.75 C3.11,-4.88 3.39,-4.95 3.69,-4.95 C4.11,-4.95 4.45,-4.82 4.7,-4.56 C4.95,-4.29 5.07,-3.87 5.07,-3.29 C5.07,-3.29 5.07,0 5.07,0 C5.07,0 5.97,0 5.97,0 C5.97,0 5.97,-3.6 5.97,-3.6 C5.97,-4.29 5.77,-4.82 5.36,-5.19 C4.94,-5.55 4.42,-5.74 3.78,-5.74z"></path><g opacity="1" transform="matrix(0.11250080168247223,0,0,0.11250080168247223,0,0)"></g></g></g></g><g stroke-linecap="butt" stroke-linejoin="round" stroke-miterlimit="4" transform="matrix(1,0,0,1,48.45409393310547,0)" opacity="1" style="display: inherit;"><g><g transform="matrix(1,0,0,1,0,0)" opacity="1" style="display: block;"><path d=" M3.38,-0.68 C2.83,-0.68 2.4,-0.87 2.08,-1.25 C1.77,-1.64 1.61,-2.16 1.61,-2.81 C1.61,-3.47 1.77,-3.98 2.08,-4.37 C2.4,-4.76 2.83,-4.95 3.38,-4.95 C3.92,-4.95 4.34,-4.76 4.66,-4.39 C4.98,-4.01 5.14,-3.51 5.14,-2.88 C5.14,-2.88 5.14,-2.75 5.14,-2.75 C5.14,-2.12 4.98,-1.61 4.66,-1.24 C4.34,-0.86 3.92,-0.68 3.38,-0.68z M5.14,-8.21 C5.14,-8.21 5.14,-4.75 5.14,-4.75 C4.96,-5.05 4.71,-5.29 4.38,-5.47 C4.06,-5.65 3.69,-5.74 3.27,-5.74 C2.49,-5.74 1.86,-5.48 1.4,-4.96 C0.94,-4.43 0.71,-3.72 0.71,-2.81 C0.71,-1.9 0.94,-1.19 1.4,-0.67 C1.86,-0.15 2.49,0.11 3.27,0.11 C3.71,0.11 4.1,0.01 4.44,-0.19 C4.78,-0.38 5.03,-0.65 5.2,-0.98 C5.2,-0.98 5.25,0 5.25,0 C5.25,0 6.04,0 6.04,0 C6.04,0 6.04,-8.21 6.04,-8.21 C6.04,-8.21 5.14,-8.21 5.14,-8.21z"></path><g opacity="1" transform="matrix(0.11250080168247223,0,0,0.11250080168247223,0,0)"></g></g></g></g><g stroke-linecap="butt" stroke-linejoin="round" stroke-miterlimit="4" transform="matrix(1,0,0,1,55.3278923034668,0)" opacity="1" style="display: inherit;"><g><g transform="matrix(1,0,0,1,0,0)" opacity="1" style="display: block;"><path d=" M3.35,-4.95 C3.83,-4.95 4.2,-4.8 4.49,-4.51 C4.77,-4.21 4.95,-3.8 5.01,-3.27 C5.01,-3.27 1.6,-3.27 1.6,-3.27 C1.67,-3.81 1.85,-4.22 2.15,-4.51 C2.46,-4.8 2.86,-4.95 3.35,-4.95z M5.87,-3.11 C5.87,-3.6 5.78,-4.05 5.58,-4.44 C5.38,-4.84 5.1,-5.16 4.71,-5.39 C4.33,-5.62 3.88,-5.74 3.35,-5.74 C2.5,-5.74 1.85,-5.48 1.39,-4.96 C0.93,-4.44 0.7,-3.73 0.7,-2.81 C0.7,-1.9 0.94,-1.18 1.42,-0.66 C1.91,-0.15 2.57,0.11 3.42,0.11 C4.01,0.11 4.48,0.01 4.86,-0.2 C5.23,-0.41 5.54,-0.72 5.76,-1.11 C5.76,-1.11 5.01,-1.51 5.01,-1.51 C4.91,-1.24 4.72,-1.03 4.45,-0.89 C4.18,-0.75 3.83,-0.68 3.42,-0.68 C2.9,-0.68 2.48,-0.83 2.15,-1.15 C1.83,-1.46 1.64,-1.9 1.59,-2.48 C1.59,-2.48 5.83,-2.48 5.83,-2.48 C5.86,-2.68 5.87,-2.89 5.87,-3.11z"></path><g opacity="1" transform="matrix(0.11250080168247223,0,0,0.11250080168247223,0,0)"></g></g></g></g><g stroke-linecap="butt" stroke-linejoin="round" stroke-miterlimit="4" transform="matrix(1,0,0,1,61.65044021606445,0)" opacity="1" style="display: inherit;"><g><g transform="matrix(1,0,0,1,0,0)" opacity="1" style="display: block;"><path d=" M5.63,0 C5.63,0 3.56,-2.87 3.56,-2.87 C3.56,-2.87 5.59,-5.63 5.59,-5.63 C5.59,-5.63 4.53,-5.63 4.53,-5.63 C4.53,-5.63 3.07,-3.54 3.07,-3.54 C3.07,-3.54 1.59,-5.63 1.59,-5.63 C1.59,-5.63 0.46,-5.63 0.46,-5.63 C0.46,-5.63 2.49,-2.84 2.49,-2.84 C2.49,-2.84 0.33,0 0.33,0 C0.33,0 1.37,0 1.37,0 C1.37,0 2.97,-2.17 2.97,-2.17 C2.97,-2.17 4.52,0 4.52,0 C4.52,0 5.63,0 5.63,0z"></path><g opacity="1" transform="matrix(0.11250080168247223,0,0,0.11250080168247223,0,0)"></g></g></g></g><g stroke-linecap="butt" stroke-linejoin="round" stroke-miterlimit="4" transform="matrix(1,0,0,1,67.43297576904297,0)" opacity="1" style="display: inherit;"><g><g style="display: none;"></g></g></g><g stroke-linecap="butt" stroke-linejoin="round" stroke-miterlimit="4" transform="matrix(1,0,0,1,71.05550384521484,0)" opacity="1" style="display: inherit;"><g><g transform="matrix(1,0,0,1,0,0)" opacity="1" style="display: block;"><path d=" M3.5,-4.76 C2.76,-4.76 2.2,-4.55 1.8,-4.14 C1.8,-4.14 1.79,-4.14 1.79,-4.14 C1.79,-4.14 1.8,-4.24 1.8,-4.24 C1.8,-4.24 2.09,-6.58 2.09,-6.58 C2.09,-6.58 5.5,-6.58 5.5,-6.58 C5.5,-6.58 5.5,-7.43 5.5,-7.43 C5.5,-7.43 1.33,-7.43 1.33,-7.43 C1.33,-7.43 0.88,-3.2 0.88,-3.2 C0.88,-3.2 1.68,-3.2 1.68,-3.2 C2.01,-3.67 2.56,-3.92 3.33,-3.92 C3.84,-3.92 4.23,-3.78 4.5,-3.5 C4.77,-3.22 4.91,-2.82 4.91,-2.3 C4.91,-1.81 4.76,-1.42 4.47,-1.15 C4.17,-0.87 3.77,-0.73 3.26,-0.73 C2.77,-0.73 2.41,-0.84 2.15,-1.06 C1.9,-1.28 1.71,-1.61 1.59,-2.05 C1.59,-2.05 0.71,-1.59 0.71,-1.59 C0.93,-1.03 1.25,-0.61 1.67,-0.32 C2.09,-0.03 2.63,0.11 3.3,0.11 C4.09,0.11 4.71,-0.11 5.16,-0.55 C5.61,-0.98 5.84,-1.59 5.84,-2.36 C5.84,-3.08 5.63,-3.66 5.2,-4.1 C4.77,-4.54 4.2,-4.76 3.5,-4.76z"></path><g opacity="1" transform="matrix(0.11250080168247223,0,0,0.11250080168247223,0,0)"></g></g></g></g></g><g transform="matrix(5.997049808502197,0,0,5.997049808502197,3344.084716796875,1635.477294921875)" opacity="1" style="display: block;"><g opacity="1" transform="matrix(1,0,0,1,0,0)"><g opacity="1" transform="matrix(1,0,0,1,0,0)"><g opacity="1" transform="matrix(1,0,0,1,0,0)"><path fill="rgb(255,255,255)" fill-opacity="1" d=" M-330.64300537109375,-67.99099731445312 C-330.64300537109375,-67.99099731445312 -450.3580017089844,-67.99099731445312 -450.3580017089844,-67.99099731445312 C-452.70599365234375,-67.99099731445312 -454.6099853515625,-69.8949966430664 -454.6099853515625,-72.24299621582031 C-454.6099853515625,-72.24299621582031 -454.6099853515625,-94.2750015258789 -454.6099853515625,-94.2750015258789 C-454.6099853515625,-96.62300109863281 -452.70599365234375,-98.5270004272461 -450.3580017089844,-98.5270004272461 C-450.3580017089844,-98.5270004272461 -330.64300537109375,-98.5270004272461 -330.64300537109375,-98.5270004272461 C-328.2950134277344,-98.5270004272461 -326.3909912109375,-96.62300109863281 -326.3909912109375,-94.2750015258789 C-326.3909912109375,-94.2750015258789 -326.3909912109375,-72.24299621582031 -326.3909912109375,-72.24299621582031 C-326.3909912109375,-69.8949966430664 -328.2950134277344,-67.99099731445312 -330.64300537109375,-67.99099731445312z"></path></g><g opacity="1" transform="matrix(1,0,0,1,0,0)"><g opacity="1" transform="matrix(1,0,0,1,0,0)"><path fill="rgb(51,51,51)" fill-opacity="1" d=" M-437.41400146484375,-73.38500213623047 C-442.8659973144531,-74.74400329589844 -446.1839904785156,-80.26799774169922 -444.8240051269531,-85.72100067138672 C-443.4649963378906,-91.17500305175781 -437.9419860839844,-94.49299621582031 -432.489013671875,-93.13400268554688 C-427.0350036621094,-91.7750015258789 -423.7170104980469,-86.25 -425.0769958496094,-80.7969970703125 C-426.4360046386719,-75.34400177001953 -431.9599914550781,-72.0260009765625 -437.41400146484375,-73.38500213623047z M-430.47698974609375,-80.63099670410156 C-430.47698974609375,-80.63099670410156 -431.6440124511719,-81.06300354003906 -431.6440124511719,-81.06300354003906 C-431.82501220703125,-80.38099670410156 -432.17498779296875,-79.84700012207031 -432.6919860839844,-79.46299743652344 C-433.2090148925781,-79.0790023803711 -433.77801513671875,-78.88700103759766 -434.39599609375,-78.88700103759766 C-435.1099853515625,-78.88700103759766 -435.7200012207031,-79.10299682617188 -436.22698974609375,-79.53500366210938 C-436.7340087890625,-79.96700286865234 -437.093994140625,-80.572998046875 -437.3070068359375,-81.35099792480469 C-437.3070068359375,-81.35099792480469 -434.52301025390625,-81.35099792480469 -434.52301025390625,-81.35099792480469 C-434.52301025390625,-81.35099792480469 -434.2040100097656,-82.38999938964844 -434.2040100097656,-82.38999938964844 C-434.2040100097656,-82.38999938964844 -437.4989929199219,-82.38999938964844 -437.4989929199219,-82.38999938964844 C-437.531005859375,-82.64600372314453 -437.5469970703125,-82.91799926757812 -437.5469970703125,-83.20600128173828 C-437.5469970703125,-83.46199798583984 -437.5419921875,-83.64900207519531 -437.531005859375,-83.76599884033203 C-437.531005859375,-83.76599884033203 -433.8840026855469,-83.76599884033203 -433.8840026855469,-83.76599884033203 C-433.8840026855469,-83.76599884033203 -433.5639953613281,-84.80599975585938 -433.5639953613281,-84.80599975585938 C-433.5639953613281,-84.80599975585938 -437.3710021972656,-84.80599975585938 -437.3710021972656,-84.80599975585938 C-437.1579895019531,-85.65899658203125 -436.78399658203125,-86.32499694824219 -436.2510070800781,-86.80500030517578 C-435.7179870605469,-87.28500366210938 -435.0780029296875,-87.5250015258789 -434.3320007324219,-87.5250015258789 C-433.7349853515625,-87.5250015258789 -433.2120056152344,-87.36000061035156 -432.7640075683594,-87.02899932861328 C-432.3160095214844,-86.697998046875 -432.0010070800781,-86.23400115966797 -431.82000732421875,-85.63700103759766 C-431.82000732421875,-85.63700103759766 -430.66900634765625,-86.18099975585938 -430.66900634765625,-86.18099975585938 C-430.9570007324219,-86.97000122070312 -431.4280090332031,-87.5780029296875 -432.0840148925781,-88.00499725341797 C-432.739990234375,-88.43199920654297 -433.5270080566406,-88.64399719238281 -434.4440002441406,-88.64399719238281 C-435.5740051269531,-88.64399719238281 -436.5069885253906,-88.30899810791016 -437.2430114746094,-87.63700103759766 C-437.97900390625,-86.96499633789062 -438.4580078125,-86.02200317382812 -438.6820068359375,-84.80599975585938 C-438.6820068359375,-84.80599975585938 -440.0419921875,-84.80599975585938 -440.0419921875,-84.80599975585938 C-440.0419921875,-84.80599975585938 -440.0419921875,-83.76599884033203 -440.0419921875,-83.76599884033203 C-440.0419921875,-83.76599884033203 -438.80999755859375,-83.76599884033203 -438.80999755859375,-83.76599884033203 C-438.8210144042969,-83.64900207519531 -438.82598876953125,-83.46199798583984 -438.82598876953125,-83.20600128173828 C-438.82598876953125,-83.00299835205078 -438.81500244140625,-82.73100280761719 -438.79400634765625,-82.38999938964844 C-438.79400634765625,-82.38999938964844 -440.0419921875,-82.38999938964844 -440.0419921875,-82.38999938964844 C-440.0419921875,-82.38999938964844 -440.0419921875,-81.35099792480469 -440.0419921875,-81.35099792480469 C-440.0419921875,-81.35099792480469 -438.6340026855469,-81.35099792480469 -438.6340026855469,-81.35099792480469 C-438.37799072265625,-80.22100067138672 -437.88800048828125,-79.34100341796875 -437.1629943847656,-78.71199798583984 C-436.43798828125,-78.08300018310547 -435.52099609375,-77.76799774169922 -434.4119873046875,-77.76799774169922 C-433.5159912109375,-77.76799774169922 -432.7080078125,-78.02400207519531 -431.9880065917969,-78.53600311279297 C-431.26800537109375,-79.0479965209961 -430.7650146484375,-79.74600219726562 -430.47698974609375,-80.63099670410156z"></path></g></g></g></g></g><g transform="matrix(5.997049808502197,0,0,5.997049808502197,824.1782836914062,1156.888671875)" opacity="1" fill="rgb(40,40,40)" font-size="11.2500801086426" font-family="Work Sans" font-style="normal" font-weight="400" aria-label="Euro" style="display: block;"><g stroke-linecap="butt" stroke-linejoin="round" stroke-miterlimit="4" transform="matrix(1,0,0,1,0,0)" opacity="1" style="display: inherit;"><g><g transform="matrix(1,0,0,1,0,0)" opacity="1" style="display: block;"><path d=" M2.12,-0.84 C2.12,-0.84 2.12,-3.34 2.12,-3.34 C2.12,-3.34 5.47,-3.34 5.47,-3.34 C5.47,-3.34 5.47,-4.19 5.47,-4.19 C5.47,-4.19 2.12,-4.19 2.12,-4.19 C2.12,-4.19 2.12,-6.58 2.12,-6.58 C2.12,-6.58 6.42,-6.58 6.42,-6.58 C6.42,-6.58 6.42,-7.43 6.42,-7.43 C6.42,-7.43 1.22,-7.43 1.22,-7.43 C1.22,-7.43 1.22,0 1.22,0 C1.22,0 6.59,0 6.59,0 C6.59,0 6.59,-0.84 6.59,-0.84 C6.59,-0.84 2.12,-0.84 2.12,-0.84z"></path><g opacity="1" transform="matrix(0.11250080168247223,0,0,0.11250080168247223,0,0)"></g></g></g></g><g stroke-linecap="butt" stroke-linejoin="round" stroke-miterlimit="4" transform="matrix(1,0,0,1,6.963799476623535,0)" opacity="1" style="display: inherit;"><g><g transform="matrix(1,0,0,1,0,0)" opacity="1" style="display: block;"><path d=" M5.02,-5.63 C5.02,-5.63 5.02,-2.57 5.02,-2.57 C5.02,-1.94 4.85,-1.46 4.51,-1.15 C4.16,-0.83 3.74,-0.68 3.22,-0.68 C2.78,-0.68 2.45,-0.79 2.23,-1.02 C2,-1.25 1.89,-1.63 1.89,-2.18 C1.89,-2.18 1.89,-5.63 1.89,-5.63 C1.89,-5.63 0.99,-5.63 0.99,-5.63 C0.99,-5.63 0.99,-1.95 0.99,-1.95 C0.99,-1.25 1.18,-0.73 1.57,-0.39 C1.96,-0.06 2.45,0.11 3.06,0.11 C4.03,0.11 4.7,-0.21 5.07,-0.86 C5.07,-0.86 5.13,0 5.13,0 C5.13,0 5.92,0 5.92,0 C5.92,0 5.92,-5.63 5.92,-5.63 C5.92,-5.63 5.02,-5.63 5.02,-5.63z"></path><g opacity="1" transform="matrix(0.11250080168247223,0,0,0.11250080168247223,0,0)"></g></g></g></g><g stroke-linecap="butt" stroke-linejoin="round" stroke-miterlimit="4" transform="matrix(1,0,0,1,13.713848114013672,0)" opacity="1" style="display: inherit;"><g><g transform="matrix(1,0,0,1,0,0)" opacity="1" style="display: block;"><path d=" M3.7,-5.74 C2.82,-5.74 2.22,-5.39 1.9,-4.7 C1.9,-4.7 1.78,-5.63 1.78,-5.63 C1.78,-5.63 1.05,-5.63 1.05,-5.63 C1.05,-5.63 1.05,0 1.05,0 C1.05,0 1.95,0 1.95,0 C1.95,0 1.95,-3.04 1.95,-3.04 C1.95,-3.43 2.02,-3.77 2.17,-4.06 C2.31,-4.34 2.5,-4.55 2.73,-4.69 C2.96,-4.82 3.19,-4.89 3.43,-4.89 C3.72,-4.89 3.96,-4.84 4.14,-4.75 C4.14,-4.75 4.32,-5.63 4.32,-5.63 C4.18,-5.7 3.97,-5.74 3.7,-5.74z"></path><g opacity="1" transform="matrix(0.11250080168247223,0,0,0.11250080168247223,0,0)"></g></g></g></g><g stroke-linecap="butt" stroke-linejoin="round" stroke-miterlimit="4" transform="matrix(1,0,0,1,18.09012794494629,0)" opacity="1" style="display: inherit;"><g><g transform="matrix(1,0,0,1,0,0)" opacity="1" style="display: block;"><path d=" M3.42,-4.96 C3.99,-4.96 4.44,-4.77 4.76,-4.39 C5.08,-4.01 5.24,-3.48 5.24,-2.81 C5.24,-2.14 5.08,-1.62 4.76,-1.24 C4.44,-0.86 3.99,-0.66 3.42,-0.66 C2.85,-0.66 2.4,-0.86 2.08,-1.24 C1.76,-1.62 1.6,-2.14 1.6,-2.81 C1.6,-3.48 1.76,-4.01 2.08,-4.39 C2.4,-4.77 2.85,-4.96 3.42,-4.96z M3.42,-5.74 C2.57,-5.74 1.91,-5.48 1.42,-4.96 C0.94,-4.44 0.7,-3.73 0.7,-2.81 C0.7,-1.9 0.94,-1.18 1.42,-0.66 C1.91,-0.15 2.57,0.11 3.42,0.11 C4.27,0.11 4.93,-0.15 5.42,-0.66 C5.9,-1.18 6.14,-1.9 6.14,-2.81 C6.14,-3.73 5.9,-4.44 5.42,-4.96 C4.93,-5.48 4.27,-5.74 3.42,-5.74z"></path><g opacity="1" transform="matrix(0.11250080168247223,0,0,0.11250080168247223,0,0)"></g></g></g></g></g><g transform="matrix(5.997049808502197,0,0,5.997049808502197,3344.084716796875,1635.477294921875)" opacity="1" style="display: block;"><g opacity="1" transform="matrix(1,0,0,1,0,0)"><g opacity="1" transform="matrix(1,0,0,1,0,0)"><g opacity="1" transform="matrix(1,0,0,1,0,0)"><path fill="rgb(255,255,255)" fill-opacity="1" d=" M-312.26300048828125,-104.75499725341797 C-312.26300048828125,-104.75499725341797 -431.9779968261719,-104.75499725341797 -431.9779968261719,-104.75499725341797 C-434.32598876953125,-104.75499725341797 -436.2300109863281,-106.65899658203125 -436.2300109863281,-109.00700378417969 C-436.2300109863281,-109.00700378417969 -436.2300109863281,-131.03900146484375 -436.2300109863281,-131.03900146484375 C-436.2300109863281,-133.38699340820312 -434.32598876953125,-135.29100036621094 -431.9779968261719,-135.29100036621094 C-431.9779968261719,-135.29100036621094 -312.26300048828125,-135.29100036621094 -312.26300048828125,-135.29100036621094 C-309.9150085449219,-135.29100036621094 -308.010986328125,-133.38699340820312 -308.010986328125,-131.03900146484375 C-308.010986328125,-131.03900146484375 -308.010986328125,-109.00700378417969 -308.010986328125,-109.00700378417969 C-308.010986328125,-106.65899658203125 -309.9150085449219,-104.75499725341797 -312.26300048828125,-104.75499725341797z"></path></g><g opacity="1" transform="matrix(1,0,0,1,0,0)"></g></g></g></g><g transform="matrix(3.2312705516815186,0,0,3.2312705516815186,541.2459716796875,1573.279541015625)" opacity="1" style="display: block;"><g opacity="1" transform="matrix(1,0,0,1,94.42400360107422,-203.32699584960938)"><path fill="rgb(239,185,63)" fill-opacity="1" d=" M0,-16.929000854492188 C9.34311580657959,-16.929000854492188 16.929000854492188,-9.34311580657959 16.929000854492188,0 C16.929000854492188,9.34311580657959 9.34311580657959,16.929000854492188 0,16.929000854492188 C-9.34311580657959,16.929000854492188 -16.929000854492188,9.34311580657959 -16.929000854492188,0 C-16.929000854492188,-9.34311580657959 -9.34311580657959,-16.929000854492188 0,-16.929000854492188z"></path></g><g opacity="1" transform="matrix(1,0,0,1,94.42400360107422,-203.32699584960938)"><path stroke-linecap="butt" stroke-linejoin="miter" fill-opacity="0" stroke-miterlimit="10" stroke="rgb(226,186,106)" stroke-opacity="1" stroke-width="0.327" d=" M0,-19.0935001373291 C10.537702560424805,-19.0935001373291 19.0935001373291,-10.537702560424805 19.0935001373291,0 C19.0935001373291,10.537702560424805 10.537702560424805,19.0935001373291 0,19.0935001373291 C-10.537702560424805,19.0935001373291 -19.0935001373291,10.537702560424805 -19.0935001373291,0 C-19.0935001373291,-10.537702560424805 -10.537702560424805,-19.0935001373291 0,-19.0935001373291z"></path></g><g opacity="1" transform="matrix(1,0,0,1,0,0)"><path fill="rgb(229,168,60)" fill-opacity="1" d=" M99.09100341796875,-207.68499755859375 C99.09100341796875,-207.68499755859375 95.36299896240234,-208.61700439453125 95.36299896240234,-208.61700439453125 C95.36299896240234,-208.61700439453125 82.83699798583984,-203.14100646972656 82.83699798583984,-203.14100646972656 C82.83699798583984,-203.14100646972656 80.91500091552734,-199.2949981689453 80.91500091552734,-199.2949981689453 C80.91500091552734,-199.2949981689453 87.44100189208984,-197.42100524902344 87.44100189208984,-197.42100524902344 C87.44100189208984,-197.42100524902344 100.95500183105469,-203.43099975585938 100.95500183105469,-203.43099975585938 C100.95500183105469,-203.43099975585938 99.09100341796875,-207.68499755859375 99.09100341796875,-207.68499755859375z"></path></g><g opacity="1" transform="matrix(1,0,0,1,0,0)"><path fill="rgb(255,206,84)" fill-opacity="1" d=" M99.09100341796875,-207.68499755859375 C99.09100341796875,-207.68499755859375 86.50700378417969,-202.09100341796875 86.50700378417969,-202.09100341796875 C86.50700378417969,-202.09100341796875 87.44100189208984,-197.42100524902344 87.44100189208984,-197.42100524902344 C87.44100189208984,-197.42100524902344 100.95500183105469,-203.43099975585938 100.95500183105469,-203.43099975585938 C100.95500183105469,-203.43099975585938 99.09100341796875,-207.68499755859375 99.09100341796875,-207.68499755859375z"></path></g><g opacity="1" transform="matrix(1,0,0,1,0,0)"><path fill="rgb(211,152,57)" fill-opacity="1" d=" M86.50700378417969,-202.09100341796875 C86.50700378417969,-202.09100341796875 82.83699798583984,-203.14100646972656 82.83699798583984,-203.14100646972656 C82.83699798583984,-203.14100646972656 80.91500091552734,-199.2949981689453 80.91500091552734,-199.2949981689453 C80.91500091552734,-199.2949981689453 87.44100189208984,-197.42100524902344 87.44100189208984,-197.42100524902344 C87.44100189208984,-197.42100524902344 86.50700378417969,-202.09100341796875 86.50700378417969,-202.09100341796875z"></path></g><g opacity="1" transform="matrix(1,0,0,1,0,0)"><path fill="rgb(229,168,60)" fill-opacity="1" d=" M105.61799621582031,-205.80999755859375 C105.61799621582031,-205.80999755859375 101.88999938964844,-206.7429962158203 101.88999938964844,-206.7429962158203 C101.88999938964844,-206.7429962158203 89.36399841308594,-201.26600646972656 89.36399841308594,-201.26600646972656 C89.36399841308594,-201.26600646972656 87.44100189208984,-197.42100524902344 87.44100189208984,-197.42100524902344 C87.44100189208984,-197.42100524902344 93.96800231933594,-195.54800415039062 93.96800231933594,-195.54800415039062 C93.96800231933594,-195.54800415039062 107.48200225830078,-201.5570068359375 107.48200225830078,-201.5570068359375 C107.48200225830078,-201.5570068359375 105.61799621582031,-205.80999755859375 105.61799621582031,-205.80999755859375z"></path></g><g opacity="1" transform="matrix(1,0,0,1,0,0)"><path fill="rgb(255,206,84)" fill-opacity="1" d=" M105.61799621582031,-205.80999755859375 C105.61799621582031,-205.80999755859375 93.03399658203125,-200.21800231933594 93.03399658203125,-200.21800231933594 C93.03399658203125,-200.21800231933594 93.96800231933594,-195.54800415039062 93.96800231933594,-195.54800415039062 C93.96800231933594,-195.54800415039062 107.48200225830078,-201.5570068359375 107.48200225830078,-201.5570068359375 C107.48200225830078,-201.5570068359375 105.61799621582031,-205.80999755859375 105.61799621582031,-205.80999755859375z"></path></g><g opacity="1" transform="matrix(1,0,0,1,0,0)"><path fill="rgb(211,152,57)" fill-opacity="1" d=" M93.03399658203125,-200.21800231933594 C93.03399658203125,-200.21800231933594 89.36399841308594,-201.26600646972656 89.36399841308594,-201.26600646972656 C89.36399841308594,-201.26600646972656 87.44100189208984,-197.42100524902344 87.44100189208984,-197.42100524902344 C87.44100189208984,-197.42100524902344 93.96800231933594,-195.54800415039062 93.96800231933594,-195.54800415039062 C93.96800231933594,-195.54800415039062 93.03399658203125,-200.21800231933594 93.03399658203125,-200.21800231933594z"></path></g><g opacity="1" transform="matrix(1,0,0,1,0,0)"><path fill="rgb(229,168,60)" fill-opacity="1" d=" M101.48400115966797,-210.64999389648438 C101.48400115966797,-210.64999389648438 97.75599670410156,-211.58200073242188 97.75599670410156,-211.58200073242188 C97.75599670410156,-211.58200073242188 86.30599975585938,-206.5500030517578 86.30599975585938,-206.5500030517578 C86.30599975585938,-206.5500030517578 84.38400268554688,-202.7050018310547 84.38400268554688,-202.7050018310547 C84.38400268554688,-202.7050018310547 90.91100311279297,-200.83099365234375 90.91100311279297,-200.83099365234375 C90.91100311279297,-200.83099365234375 103.3489990234375,-206.39700317382812 103.3489990234375,-206.39700317382812 C103.3489990234375,-206.39700317382812 101.48400115966797,-210.64999389648438 101.48400115966797,-210.64999389648438z"></path></g><g opacity="1" transform="matrix(1,0,0,1,0,0)"><path fill="rgb(255,206,84)" fill-opacity="1" d=" M101.48400115966797,-210.64999389648438 C101.48400115966797,-210.64999389648438 89.97699737548828,-205.50100708007812 89.97699737548828,-205.50100708007812 C89.97699737548828,-205.50100708007812 90.91100311279297,-200.83099365234375 90.91100311279297,-200.83099365234375 C90.91100311279297,-200.83099365234375 103.3489990234375,-206.39700317382812 103.3489990234375,-206.39700317382812 C103.3489990234375,-206.39700317382812 101.48400115966797,-210.64999389648438 101.48400115966797,-210.64999389648438z"></path></g><g opacity="1" transform="matrix(1,0,0,1,0,0)"><path fill="rgb(211,152,57)" fill-opacity="1" d=" M89.97699737548828,-205.50100708007812 C89.97699737548828,-205.50100708007812 86.30599975585938,-206.5500030517578 86.30599975585938,-206.5500030517578 C86.30599975585938,-206.5500030517578 84.38400268554688,-202.7050018310547 84.38400268554688,-202.7050018310547 C84.38400268554688,-202.7050018310547 90.91100311279297,-200.83099365234375 90.91100311279297,-200.83099365234375 C90.91100311279297,-200.83099365234375 89.97699737548828,-205.50100708007812 89.97699737548828,-205.50100708007812z"></path></g></g><g transform="matrix(5.997049808502197,0,0,5.997049808502197,934.41015625,936.4971313476562)" opacity="1" fill="rgb(40,40,40)" font-size="11.2500801086426" font-family="Work Sans" font-style="normal" font-weight="400" aria-label="Gold" style="display: block;"><g stroke-linecap="butt" stroke-linejoin="round" stroke-miterlimit="4" transform="matrix(1,0,0,1,0,0)" opacity="1" style="display: inherit;"><g><g transform="matrix(1,0,0,1,0,0)" opacity="1" style="display: block;"><path d=" M4.07,-3.75 C4.07,-3.75 4.07,-2.9 4.07,-2.9 C4.07,-2.9 6.44,-2.9 6.44,-2.9 C6.44,-2.9 6.44,-2.64 6.44,-2.64 C6.44,-2.03 6.23,-1.56 5.82,-1.23 C5.41,-0.9 4.89,-0.73 4.24,-0.73 C3.42,-0.73 2.8,-0.99 2.36,-1.51 C1.93,-2.03 1.71,-2.77 1.71,-3.71 C1.71,-4.33 1.81,-4.86 2.03,-5.3 C2.23,-5.75 2.53,-6.09 2.91,-6.33 C3.29,-6.57 3.73,-6.69 4.23,-6.69 C4.75,-6.69 5.2,-6.58 5.57,-6.36 C5.95,-6.13 6.21,-5.81 6.38,-5.39 C6.38,-5.39 7.2,-5.84 7.2,-5.84 C6.91,-6.42 6.52,-6.84 6.05,-7.12 C5.57,-7.4 4.96,-7.54 4.23,-7.54 C3.54,-7.54 2.93,-7.38 2.41,-7.07 C1.89,-6.76 1.49,-6.32 1.2,-5.74 C0.91,-5.16 0.77,-4.48 0.77,-3.71 C0.77,-2.93 0.91,-2.26 1.19,-1.68 C1.47,-1.11 1.87,-0.67 2.39,-0.35 C2.9,-0.04 3.51,0.11 4.21,0.11 C4.76,0.11 5.24,0.02 5.63,-0.17 C6.02,-0.37 6.33,-0.64 6.55,-1 C6.55,-1 6.58,0 6.58,0 C6.58,0 7.26,0 7.26,0 C7.26,0 7.26,-3.75 7.26,-3.75 C7.26,-3.75 4.07,-3.75 4.07,-3.75z"></path><g opacity="1" transform="matrix(0.11250080168247223,0,0,0.11250080168247223,0,0)"></g></g></g></g><g stroke-linecap="butt" stroke-linejoin="round" stroke-miterlimit="4" transform="matrix(1,0,0,1,7.9313063621521,0)" opacity="1" style="display: inherit;"><g><g transform="matrix(1,0,0,1,0,0)" opacity="1" style="display: block;"><path d=" M3.42,-4.96 C3.99,-4.96 4.44,-4.77 4.76,-4.39 C5.08,-4.01 5.24,-3.48 5.24,-2.81 C5.24,-2.14 5.08,-1.62 4.76,-1.24 C4.44,-0.86 3.99,-0.66 3.42,-0.66 C2.85,-0.66 2.4,-0.86 2.08,-1.24 C1.76,-1.62 1.6,-2.14 1.6,-2.81 C1.6,-3.48 1.76,-4.01 2.08,-4.39 C2.4,-4.77 2.85,-4.96 3.42,-4.96z M3.42,-5.74 C2.57,-5.74 1.91,-5.48 1.42,-4.96 C0.94,-4.44 0.7,-3.73 0.7,-2.81 C0.7,-1.9 0.94,-1.18 1.42,-0.66 C1.91,-0.15 2.57,0.11 3.42,0.11 C4.27,0.11 4.93,-0.15 5.42,-0.66 C5.9,-1.18 6.14,-1.9 6.14,-2.81 C6.14,-3.73 5.9,-4.44 5.42,-4.96 C4.93,-5.48 4.27,-5.74 3.42,-5.74z"></path><g opacity="1" transform="matrix(0.11250080168247223,0,0,0.11250080168247223,0,0)"></g></g></g></g><g stroke-linecap="butt" stroke-linejoin="round" stroke-miterlimit="4" transform="matrix(1,0,0,1,14.55760383605957,0)" opacity="1" style="display: inherit;"><g><g transform="matrix(1,0,0,1,0,0)" opacity="1" style="display: block;"><path d=" M1.9,-8.21 C1.9,-8.21 1,-8.21 1,-8.21 C1,-8.21 1,-1.4 1,-1.4 C1,-0.88 1.11,-0.51 1.33,-0.26 C1.55,-0.01 1.89,0.11 2.35,0.11 C2.66,0.11 2.94,0.06 3.18,-0.05 C3.18,-0.05 3.33,-0.91 3.33,-0.91 C3.17,-0.85 3.04,-0.81 2.92,-0.79 C2.8,-0.77 2.67,-0.75 2.51,-0.75 C2.28,-0.75 2.12,-0.81 2.03,-0.92 C1.94,-1.03 1.9,-1.22 1.9,-1.51 C1.9,-1.51 1.9,-8.21 1.9,-8.21z"></path><g opacity="1" transform="matrix(0.11250080168247223,0,0,0.11250080168247223,0,0)"></g></g></g></g><g stroke-linecap="butt" stroke-linejoin="round" stroke-miterlimit="4" transform="matrix(1,0,0,1,17.786376953125,0)" opacity="1" style="display: inherit;"><g><g transform="matrix(1,0,0,1,0,0)" opacity="1" style="display: block;"><path d=" M3.38,-0.68 C2.83,-0.68 2.4,-0.87 2.08,-1.25 C1.77,-1.64 1.61,-2.16 1.61,-2.81 C1.61,-3.47 1.77,-3.98 2.08,-4.37 C2.4,-4.76 2.83,-4.95 3.38,-4.95 C3.92,-4.95 4.34,-4.76 4.66,-4.39 C4.98,-4.01 5.14,-3.51 5.14,-2.88 C5.14,-2.88 5.14,-2.75 5.14,-2.75 C5.14,-2.12 4.98,-1.61 4.66,-1.24 C4.34,-0.86 3.92,-0.68 3.38,-0.68z M5.14,-8.21 C5.14,-8.21 5.14,-4.75 5.14,-4.75 C4.96,-5.05 4.71,-5.29 4.38,-5.47 C4.06,-5.65 3.69,-5.74 3.27,-5.74 C2.49,-5.74 1.86,-5.48 1.4,-4.96 C0.94,-4.43 0.71,-3.72 0.71,-2.81 C0.71,-1.9 0.94,-1.19 1.4,-0.67 C1.86,-0.15 2.49,0.11 3.27,0.11 C3.71,0.11 4.1,0.01 4.44,-0.19 C4.78,-0.38 5.03,-0.65 5.2,-0.98 C5.2,-0.98 5.25,0 5.25,0 C5.25,0 6.04,0 6.04,0 C6.04,0 6.04,-8.21 6.04,-8.21 C6.04,-8.21 5.14,-8.21 5.14,-8.21z"></path><g opacity="1" transform="matrix(0.11250080168247223,0,0,0.11250080168247223,0,0)"></g></g></g></g></g><g transform="matrix(5.997049808502197,0,0,5.997049808502197,3344.084716796875,1635.477294921875)" opacity="1" style="display: block;"><g opacity="1" transform="matrix(1,0,0,1,0,0)"><g opacity="1" transform="matrix(1,0,0,1,0,0)"><g opacity="1" transform="matrix(1,0,0,1,0,0)"><path fill="rgb(255,255,255)" fill-opacity="1" d=" M-342.8269958496094,-141.32000732421875 C-342.8269958496094,-141.32000732421875 -462.5419921875,-141.32000732421875 -462.5419921875,-141.32000732421875 C-464.8900146484375,-141.32000732421875 -466.79400634765625,-143.2239990234375 -466.79400634765625,-145.57200622558594 C-466.79400634765625,-145.57200622558594 -466.79400634765625,-167.60400390625 -466.79400634765625,-167.60400390625 C-466.79400634765625,-169.95199584960938 -464.8900146484375,-171.8560028076172 -462.5419921875,-171.8560028076172 C-462.5419921875,-171.8560028076172 -342.8269958496094,-171.8560028076172 -342.8269958496094,-171.8560028076172 C-340.47900390625,-171.8560028076172 -338.57501220703125,-169.95199584960938 -338.57501220703125,-167.60400390625 C-338.57501220703125,-167.60400390625 -338.57501220703125,-145.57200622558594 -338.57501220703125,-145.57200622558594 C-338.57501220703125,-143.2239990234375 -340.47900390625,-141.32000732421875 -342.8269958496094,-141.32000732421875z"></path></g><g opacity="1" transform="matrix(1,0,0,1,0,0)"><path fill="rgb(247,147,26)" fill-opacity="1" d=" M-446.6889953613281,-157.5240020751953 C-446.24200439453125,-157.42300415039062 -445.7449951171875,-157.3990020751953 -445.3550109863281,-157.4949951171875 C-444.9649963378906,-157.59100341796875 -444.6929931640625,-157.83299255371094 -444.58599853515625,-158.2779998779297 C-444.47900390625,-158.72300720214844 -444.67401123046875,-159.17599487304688 -445.1310119628906,-159.46299743652344 C-445.5889892578125,-159.75 -445.9200134277344,-159.8509979248047 -446.2980041503906,-159.95799255371094 C-446.6759948730469,-160.06500244140625 -447.0710144042969,-160.13400268554688 -447.0710144042969,-160.13400268554688 C-447.0710144042969,-160.13400268554688 -447.697998046875,-157.79400634765625 -447.697998046875,-157.79400634765625 C-447.697998046875,-157.79400634765625 -447.135009765625,-157.625 -446.6889953613281,-157.5240020751953z M-445.4010009765625,-155.55799865722656 C-445.59698486328125,-155.73199462890625 -446.05999755859375,-156.0189971923828 -446.6499938964844,-156.22000122070312 C-447.239990234375,-156.42100524902344 -448.02099609375,-156.58799743652344 -448.02099609375,-156.58799743652344 C-448.02099609375,-156.58799743652344 -448.7179870605469,-153.98699951171875 -448.7179870605469,-153.98699951171875 C-448.7179870605469,-153.98699951171875 -447.9179992675781,-153.7550048828125 -447.3689880371094,-153.64999389648438 C-446.82000732421875,-153.5449981689453 -446.22900390625,-153.53199768066406 -445.9100036621094,-153.61099243164062 C-445.5920104980469,-153.69000244140625 -445.1929931640625,-153.83799743652344 -445.03399658203125,-154.43299865722656 C-444.875,-155.0279998779297 -445.2049865722656,-155.38400268554688 -445.4010009765625,-155.55799865722656z M-444.1340026855469,-152.01199340820312 C-445.00201416015625,-151.697998046875 -445.8080139160156,-151.81700134277344 -446.1659851074219,-151.86399841308594 C-446.3429870605469,-151.88699340820312 -446.6409912109375,-151.94200134277344 -446.9590148925781,-152.00799560546875 C-446.9590148925781,-152.00799560546875 -447.48699951171875,-150.03799438476562 -447.48699951171875,-150.03799438476562 C-447.48699951171875,-150.03799438476562 -448.6990051269531,-150.36300659179688 -448.6990051269531,-150.36300659179688 C-448.6990051269531,-150.36300659179688 -448.17999267578125,-152.30099487304688 -448.17999267578125,-152.30099487304688 C-448.17999267578125,-152.30099487304688 -449.1029968261719,-152.54800415039062 -449.1029968261719,-152.54800415039062 C-449.1029968261719,-152.54800415039062 -449.62298583984375,-150.61000061035156 -449.62298583984375,-150.61000061035156 C-449.62298583984375,-150.61000061035156 -450.8349914550781,-150.93499755859375 -450.8349914550781,-150.93499755859375 C-450.8349914550781,-150.93499755859375 -450.3160095214844,-152.8730010986328 -450.3160095214844,-152.8730010986328 C-450.3160095214844,-152.8730010986328 -452.70098876953125,-153.51199340820312 -452.70098876953125,-153.51199340820312 C-452.70098876953125,-153.51199340820312 -452.06201171875,-154.90199279785156 -452.06201171875,-154.90199279785156 C-452.06201171875,-154.90199279785156 -451.3370056152344,-154.70700073242188 -451.3370056152344,-154.70700073242188 C-451.0929870605469,-154.64199829101562 -450.9849853515625,-154.63699340820312 -450.85699462890625,-154.70599365234375 C-450.72900390625,-154.77499389648438 -450.6669921875,-154.91700744628906 -450.635009765625,-155.03599548339844 C-450.635009765625,-155.03599548339844 -449.2909851074219,-160.052001953125 -449.2909851074219,-160.052001953125 C-449.2070007324219,-160.36599731445312 -449.2099914550781,-160.45899963378906 -449.3110046386719,-160.65899658203125 C-449.4119873046875,-160.85899353027344 -449.74700927734375,-160.9720001220703 -449.93798828125,-161.0229949951172 C-449.93798828125,-161.0229949951172 -450.63800048828125,-161.21099853515625 -450.63800048828125,-161.21099853515625 C-450.63800048828125,-161.21099853515625 -450.3009948730469,-162.468994140625 -450.3009948730469,-162.468994140625 C-450.3009948730469,-162.468994140625 -447.9159851074219,-161.8300018310547 -447.9159851074219,-161.8300018310547 C-447.9159851074219,-161.8300018310547 -447.3949890136719,-163.7740020751953 -447.3949890136719,-163.7740020751953 C-447.3949890136719,-163.7740020751953 -446.1830139160156,-163.44900512695312 -446.1830139160156,-163.44900512695312 C-446.1830139160156,-163.44900512695312 -446.7040100097656,-161.5050048828125 -446.7040100097656,-161.5050048828125 C-446.7040100097656,-161.5050048828125 -445.7799987792969,-161.25799560546875 -445.7799987792969,-161.25799560546875 C-445.7799987792969,-161.25799560546875 -445.2590026855469,-163.2010040283203 -445.2590026855469,-163.2010040283203 C-445.2590026855469,-163.2010040283203 -444.0469970703125,-162.87600708007812 -444.0469970703125,-162.87600708007812 C-444.0469970703125,-162.87600708007812 -444.5740051269531,-160.91000366210938 -444.5740051269531,-160.91000366210938 C-443.68499755859375,-160.61199951171875 -443.0580139160156,-160.25900268554688 -442.5870056152344,-159.66799926757812 C-441.9779968261719,-158.9040069580078 -442.27899169921875,-157.94000244140625 -442.3580017089844,-157.71200561523438 C-442.43701171875,-157.48399353027344 -442.65899658203125,-157.06399536132812 -442.9410095214844,-156.8300018310547 C-443.22198486328125,-156.5959930419922 -443.7980041503906,-156.44000244140625 -443.7980041503906,-156.44000244140625 C-443.7980041503906,-156.44000244140625 -443.24200439453125,-156.1580047607422 -442.9119873046875,-155.73500061035156 C-442.5820007324219,-155.31300354003906 -442.4230041503906,-154.68099975585938 -442.656005859375,-153.88099670410156 C-442.88800048828125,-153.08099365234375 -443.2669982910156,-152.3260040283203 -444.1340026855469,-152.01199340820312z M-447.1340026855469,-166.93899536132812 C-452.7560119628906,-166.93899536132812 -457.31298828125,-162.3820037841797 -457.31298828125,-156.75999450683594 C-457.31298828125,-151.13900756835938 -452.7560119628906,-146.58099365234375 -447.1340026855469,-146.58099365234375 C-441.5119934082031,-146.58099365234375 -436.9549865722656,-151.13900756835938 -436.9549865722656,-156.75999450683594 C-436.9549865722656,-162.3820037841797 -441.5119934082031,-166.93899536132812 -447.1340026855469,-166.93899536132812z"></path><g opacity="1" transform="matrix(1,0,0,1,0,0)"></g></g></g></g></g><g transform="matrix(5.997049808502197,0,0,5.997049808502197,751.1102905273438,716.099609375)" opacity="1" fill="rgb(40,40,40)" font-size="11.2500801086426" font-family="Work Sans" font-style="normal" font-weight="400" aria-label="Bitcoin" style="display: block;"><g stroke-linecap="butt" stroke-linejoin="round" stroke-miterlimit="4" transform="matrix(1,0,0,1,0,0)" opacity="1" style="display: inherit;"><g><g transform="matrix(1,0,0,1,0,0)" opacity="1" style="display: block;"><path d=" M2.12,-0.84 C2.12,-0.84 2.12,-3.32 2.12,-3.32 C2.12,-3.32 4.06,-3.32 4.06,-3.32 C4.59,-3.32 4.98,-3.21 5.24,-3 C5.51,-2.78 5.64,-2.48 5.64,-2.08 C5.64,-1.68 5.51,-1.38 5.24,-1.16 C4.98,-0.95 4.59,-0.84 4.06,-0.84 C4.06,-0.84 2.12,-0.84 2.12,-0.84z M2.12,-4.16 C2.12,-4.16 2.12,-6.58 2.12,-6.58 C2.12,-6.58 3.87,-6.58 3.87,-6.58 C4.92,-6.58 5.45,-6.18 5.45,-5.38 C5.45,-4.96 5.32,-4.66 5.06,-4.46 C4.8,-4.26 4.4,-4.16 3.87,-4.16 C3.87,-4.16 2.12,-4.16 2.12,-4.16z M1.22,0 C1.22,0 3.85,0 3.85,0 C4.71,0 5.38,-0.19 5.86,-0.56 C6.34,-0.94 6.58,-1.44 6.58,-2.08 C6.58,-2.49 6.45,-2.86 6.19,-3.17 C5.92,-3.49 5.58,-3.69 5.14,-3.77 C5.14,-3.77 5.14,-3.78 5.14,-3.78 C5.53,-3.85 5.84,-4.04 6.06,-4.34 C6.28,-4.64 6.39,-4.99 6.39,-5.38 C6.39,-6.03 6.18,-6.53 5.77,-6.89 C5.35,-7.25 4.71,-7.43 3.86,-7.43 C3.86,-7.43 1.22,-7.43 1.22,-7.43 C1.22,-7.43 1.22,0 1.22,0z"></path><g opacity="1" transform="matrix(0.11250080168247223,0,0,0.11250080168247223,0,0)"></g></g></g></g><g stroke-linecap="butt" stroke-linejoin="round" stroke-miterlimit="4" transform="matrix(1,0,0,1,7.1325507164001465,0)" opacity="1" style="display: inherit;"><g><g transform="matrix(1,0,0,1,0,0)" opacity="1" style="display: block;"><path d=" M1.95,-5.63 C1.95,-5.63 1.05,-5.63 1.05,-5.63 C1.05,-5.63 1.05,0 1.05,0 C1.05,0 1.95,0 1.95,0 C1.95,0 1.95,-5.63 1.95,-5.63z M1.5,-6.71 C1.7,-6.71 1.86,-6.77 1.99,-6.89 C2.11,-7.01 2.17,-7.18 2.17,-7.38 C2.17,-7.58 2.11,-7.75 1.99,-7.87 C1.86,-7.99 1.7,-8.06 1.5,-8.06 C1.29,-8.06 1.13,-7.99 1.01,-7.87 C0.88,-7.75 0.82,-7.58 0.82,-7.38 C0.82,-7.18 0.88,-7.01 1.01,-6.89 C1.13,-6.77 1.29,-6.71 1.5,-6.71z"></path><g opacity="1" transform="matrix(0.11250080168247223,0,0,0.11250080168247223,0,0)"></g></g></g></g><g stroke-linecap="butt" stroke-linejoin="round" stroke-miterlimit="4" transform="matrix(1,0,0,1,9.911320686340332,0)" opacity="1" style="display: inherit;"><g><g transform="matrix(1,0,0,1,0,0)" opacity="1" style="display: block;"><path d=" M4.17,-1.15 C3.9,-0.87 3.58,-0.73 3.22,-0.73 C2.96,-0.73 2.76,-0.8 2.6,-0.94 C2.45,-1.08 2.37,-1.28 2.37,-1.55 C2.37,-1.55 2.37,-4.85 2.37,-4.85 C2.37,-4.85 4.46,-4.85 4.46,-4.85 C4.46,-4.85 4.46,-5.63 4.46,-5.63 C4.46,-5.63 2.37,-5.63 2.37,-5.63 C2.37,-5.63 2.37,-7.22 2.37,-7.22 C2.37,-7.22 1.47,-6.98 1.47,-6.98 C1.47,-6.98 1.47,-5.63 1.47,-5.63 C1.47,-5.63 0.35,-5.63 0.35,-5.63 C0.35,-5.63 0.35,-4.85 0.35,-4.85 C0.35,-4.85 1.47,-4.85 1.47,-4.85 C1.47,-4.85 1.47,-1.4 1.47,-1.4 C1.48,-0.88 1.63,-0.51 1.92,-0.26 C2.21,-0.01 2.58,0.11 3.04,0.11 C3.63,0.11 4.11,-0.06 4.49,-0.39 C4.49,-0.39 4.17,-1.15 4.17,-1.15z"></path><g opacity="1" transform="matrix(0.11250080168247223,0,0,0.11250080168247223,0,0)"></g></g></g></g><g stroke-linecap="butt" stroke-linejoin="round" stroke-miterlimit="4" transform="matrix(1,0,0,1,13.691347122192383,0)" opacity="1" style="display: inherit;"><g><g transform="matrix(1,0,0,1,0,0)" opacity="1" style="display: block;"><path d=" M3.42,-5.74 C2.57,-5.74 1.91,-5.48 1.42,-4.96 C0.94,-4.44 0.7,-3.73 0.7,-2.81 C0.7,-1.9 0.94,-1.18 1.42,-0.66 C1.91,-0.15 2.57,0.11 3.42,0.11 C4.01,0.11 4.5,-0.03 4.91,-0.32 C5.31,-0.61 5.61,-1.02 5.81,-1.54 C5.81,-1.54 4.97,-1.83 4.97,-1.83 C4.89,-1.46 4.72,-1.17 4.45,-0.97 C4.18,-0.77 3.83,-0.68 3.4,-0.68 C2.84,-0.68 2.39,-0.86 2.08,-1.24 C1.76,-1.62 1.6,-2.14 1.6,-2.81 C1.6,-3.48 1.76,-4 2.08,-4.38 C2.39,-4.76 2.84,-4.95 3.4,-4.95 C4.15,-4.95 4.65,-4.58 4.89,-3.84 C4.89,-3.84 5.75,-4.24 5.75,-4.24 C5.53,-4.72 5.23,-5.09 4.84,-5.35 C4.46,-5.61 3.98,-5.74 3.42,-5.74z"></path><g opacity="1" transform="matrix(0.11250080168247223,0,0,0.11250080168247223,0,0)"></g></g></g></g><g stroke-linecap="butt" stroke-linejoin="round" stroke-miterlimit="4" transform="matrix(1,0,0,1,19.822641372680664,0)" opacity="1" style="display: inherit;"><g><g transform="matrix(1,0,0,1,0,0)" opacity="1" style="display: block;"><path d=" M3.42,-4.96 C3.99,-4.96 4.44,-4.77 4.76,-4.39 C5.08,-4.01 5.24,-3.48 5.24,-2.81 C5.24,-2.14 5.08,-1.62 4.76,-1.24 C4.44,-0.86 3.99,-0.66 3.42,-0.66 C2.85,-0.66 2.4,-0.86 2.08,-1.24 C1.76,-1.62 1.6,-2.14 1.6,-2.81 C1.6,-3.48 1.76,-4.01 2.08,-4.39 C2.4,-4.77 2.85,-4.96 3.42,-4.96z M3.42,-5.74 C2.57,-5.74 1.91,-5.48 1.42,-4.96 C0.94,-4.44 0.7,-3.73 0.7,-2.81 C0.7,-1.9 0.94,-1.18 1.42,-0.66 C1.91,-0.15 2.57,0.11 3.42,0.11 C4.27,0.11 4.93,-0.15 5.42,-0.66 C5.9,-1.18 6.14,-1.9 6.14,-2.81 C6.14,-3.73 5.9,-4.44 5.42,-4.96 C4.93,-5.48 4.27,-5.74 3.42,-5.74z"></path><g opacity="1" transform="matrix(0.11250080168247223,0,0,0.11250080168247223,0,0)"></g></g></g></g><g stroke-linecap="butt" stroke-linejoin="round" stroke-miterlimit="4" transform="matrix(1,0,0,1,26.448938369750977,0)" opacity="1" style="display: inherit;"><g><g transform="matrix(1,0,0,1,0,0)" opacity="1" style="display: block;"><path d=" M1.95,-5.63 C1.95,-5.63 1.05,-5.63 1.05,-5.63 C1.05,-5.63 1.05,0 1.05,0 C1.05,0 1.95,0 1.95,0 C1.95,0 1.95,-5.63 1.95,-5.63z M1.5,-6.71 C1.7,-6.71 1.86,-6.77 1.99,-6.89 C2.11,-7.01 2.17,-7.18 2.17,-7.38 C2.17,-7.58 2.11,-7.75 1.99,-7.87 C1.86,-7.99 1.7,-8.06 1.5,-8.06 C1.29,-8.06 1.13,-7.99 1.01,-7.87 C0.88,-7.75 0.82,-7.58 0.82,-7.38 C0.82,-7.18 0.88,-7.01 1.01,-6.89 C1.13,-6.77 1.29,-6.71 1.5,-6.71z"></path><g opacity="1" transform="matrix(0.11250080168247223,0,0,0.11250080168247223,0,0)"></g></g></g></g><g stroke-linecap="butt" stroke-linejoin="round" stroke-miterlimit="4" transform="matrix(1,0,0,1,29.227706909179688,0)" opacity="1" style="display: inherit;"><g><g transform="matrix(1,0,0,1,0,0)" opacity="1" style="display: block;"><path d=" M3.78,-5.74 C3.37,-5.74 3,-5.66 2.67,-5.5 C2.34,-5.33 2.08,-5.09 1.89,-4.75 C1.89,-4.75 1.83,-5.63 1.83,-5.63 C1.83,-5.63 1.05,-5.63 1.05,-5.63 C1.05,-5.63 1.05,0 1.05,0 C1.05,0 1.95,0 1.95,0 C1.95,0 1.95,-2.99 1.95,-2.99 C1.95,-3.44 2.03,-3.82 2.2,-4.11 C2.37,-4.41 2.58,-4.62 2.85,-4.75 C3.11,-4.88 3.39,-4.95 3.69,-4.95 C4.11,-4.95 4.45,-4.82 4.7,-4.56 C4.95,-4.29 5.07,-3.87 5.07,-3.29 C5.07,-3.29 5.07,0 5.07,0 C5.07,0 5.97,0 5.97,0 C5.97,0 5.97,-3.6 5.97,-3.6 C5.97,-4.29 5.77,-4.82 5.36,-5.19 C4.94,-5.55 4.42,-5.74 3.78,-5.74z"></path><g opacity="1" transform="matrix(0.11250080168247223,0,0,0.11250080168247223,0,0)"></g></g></g></g></g></g></g></svg>