<svg xmlns="http://www.w3.org/2000/svg" width="57" height="26" fill="none"><path fill="var(--color-white)" d="m21.47 3.318-7.296 17.41h-4.76L5.821 6.834c-.218-.856-.407-1.17-1.07-1.53-1.083-.587-2.87-1.138-4.443-1.48l.107-.506h7.663c.977 0 1.855.65 2.077 1.775l1.896 10.074 4.687-11.85zm18.654 11.726c.02-4.595-6.354-4.848-6.31-6.901.014-.625.608-1.289 1.91-1.458.646-.085 2.424-.15 4.44.779l.791-3.692C39.872 3.379 38.478 3 36.743 3c-4.452 0-7.585 2.366-7.61 5.755-.03 2.506 2.235 3.905 3.941 4.738 1.756.852 2.345 1.4 2.338 2.163-.012 1.168-1.4 1.684-2.697 1.704-2.263.035-3.577-.612-4.624-1.1l-.816 3.815c1.052.483 2.994.904 5.008.925 4.731 0 7.826-2.337 7.841-5.956m11.755 5.684h4.165l-3.636-17.41h-3.844a2.05 2.05 0 0 0-1.917 1.277L39.89 20.728h4.73l.938-2.6h5.778zm-5.025-6.169 2.37-6.536 1.365 6.536zM27.906 3.32l-3.724 17.409h-4.504l3.726-17.41z"></path></svg>