<svg width="38" height="38" viewBox="0 0 38 38" fill="none" xmlns="http://www.w3.org/2000/svg">
<path d="M19.5599 19.9051L3.61905 19.903C1.62133 19.903 0 21.5243 0 23.522V26.2381L0.00986926 26.6536C0.29802 32.651 6.83614 34.381 11.7619 34.381C13.6267 34.381 15.7224 34.133 17.623 33.4997C17.2053 32.7028 16.8764 31.8521 16.6519 30.9602C15.388 31.3667 13.8991 31.6098 12.3363 31.6579L11.7619 31.6667L11.1875 31.6579C8.90197 31.5876 6.77333 31.1001 5.27838 30.295C3.52857 29.3541 2.71429 28.0639 2.71429 26.2381V23.522L2.73238 23.3392C2.77813 23.1136 2.9003 22.961 2.97848 22.8814C3.05809 22.8033 3.21183 22.6811 3.43691 22.6353L3.61905 22.6172L17.6107 22.6189C18.1303 21.622 18.7886 20.7089 19.5599 19.9051ZM19.9048 8.14286C19.9048 3.64619 16.2586 0 11.7619 0C7.26524 0 3.61905 3.64619 3.61905 8.14286C3.61905 12.6395 7.26524 16.2857 11.7619 16.2857C16.2586 16.2857 19.9048 12.6395 19.9048 8.14286ZM6.33333 8.14286C6.33333 5.1499 8.76895 2.71429 11.7619 2.71429C14.7549 2.71429 17.1905 5.1499 17.1905 8.14286C17.1905 11.1358 14.7549 13.5714 11.7619 13.5714C8.76895 13.5714 6.33333 11.1358 6.33333 8.14286ZM34.381 9.95238C34.381 6.45457 31.5454 3.61905 28.0476 3.61905C24.5498 3.61905 21.7143 6.45457 21.7143 9.95238C21.7143 13.4502 24.5498 16.2857 28.0476 16.2857C31.5454 16.2857 34.381 13.4502 34.381 9.95238ZM24.4286 9.95238C24.4286 7.95648 26.0517 6.33333 28.0476 6.33333C30.0435 6.33333 31.6667 7.95648 31.6667 9.95238C31.6667 11.9483 30.0435 13.5714 28.0476 13.5714C26.0517 13.5714 24.4286 11.9483 24.4286 9.95238ZM38 28.0476C38 33.5442 33.5442 38 28.0476 38C22.5511 38 18.0952 33.5442 18.0952 28.0476C18.0952 22.5511 22.5511 18.0952 28.0476 18.0952C33.5442 18.0952 38 22.5511 38 28.0476ZM28.0476 21.7143C27.5479 21.7143 27.1429 22.1194 27.1429 22.619V29.8571C27.1429 30.3568 27.5479 30.7619 28.0476 30.7619C28.5473 30.7619 28.9524 30.3568 28.9524 29.8571V22.619C28.9524 22.1194 28.5473 21.7143 28.0476 21.7143ZM28.0476 34.6071C28.6722 34.6071 29.1786 34.1008 29.1786 33.4762C29.1786 32.8516 28.6722 32.3452 28.0476 32.3452C27.423 32.3452 26.9167 32.8516 26.9167 33.4762C26.9167 34.1008 27.423 34.6071 28.0476 34.6071Z" fill="#2CEC9A"/>
</svg>
