<svg width="38" height="38" viewBox="0 0 38 38" fill="none" xmlns="http://www.w3.org/2000/svg">
<path d="M19 0C29.4934 0 38 8.50659 38 19C38 29.4934 29.4934 38 19 38C8.50659 38 0 29.4934 0 19C0 8.50659 8.50659 0 19 0ZM19 2.375C9.81827 2.375 2.375 9.81827 2.375 19C2.375 28.1817 9.81827 35.625 19 35.625C28.1817 35.625 35.625 28.1817 35.625 19C35.625 9.81827 28.1817 2.375 19 2.375ZM19 26.125C20.0931 26.125 20.9792 27.0111 20.9792 28.1042C20.9792 29.1972 20.0931 30.0833 19 30.0833C17.9069 30.0833 17.0208 29.1972 17.0208 28.1042C17.0208 27.0111 17.9069 26.125 19 26.125ZM19 7.52083C22.1074 7.52083 24.9375 10.2523 24.9375 13.4583C24.9375 15.7249 24.2008 17.0581 22.4896 18.6929L22.1774 18.9847L21.8545 19.28C20.5792 20.4489 20.1875 21.0615 20.1875 22.1667C20.1875 22.8225 19.6558 23.3542 19 23.3542C18.3442 23.3542 17.8125 22.8225 17.8125 22.1667C17.8125 20.3479 18.4419 19.25 19.9386 17.82L20.8407 16.9838C22.1243 15.7618 22.5625 14.9503 22.5625 13.4583C22.5625 11.5832 20.8142 9.89583 19 9.89583C17.1858 9.89583 15.4375 11.5832 15.4375 13.4583C15.4375 14.1142 14.9058 14.6458 14.25 14.6458C13.5942 14.6458 13.0625 14.1142 13.0625 13.4583C13.0625 10.2523 15.8926 7.52083 19 7.52083Z" fill="#2CEC9A"/>
</svg>
