<?xml version="1.0" encoding="UTF-8"?>
<svg width="40px" height="40px" viewBox="0 0 40 40" version="1.1" xmlns="http://www.w3.org/2000/svg" xmlns:xlink="http://www.w3.org/1999/xlink">
    <title>icon-academy</title>
    <g id="icon-academy" stroke="none" stroke-width="1" fill="none" fill-rule="evenodd">
        <path d="M21.0507439,3.03736869 L32.8660653,9.2101483 L31.9399588,10.9828093 L21.055,5.295 L3.81,14.382 L21.049,23.467 L33.4437057,16.8809411 L33.4437057,30.5078695 L33.2001722,30.789545 C27.3412288,37.5661116 17.0981242,38.3099923 10.3215576,32.4510489 C9.90390376,32.0899501 9.5050501,31.707841 9.12652822,31.3062397 L8.75484033,30.8981972 L8.41571905,30.5129388 L8.41571905,23.0521577 L10.4157191,23.0521577 L10.415,29.751 L10.5819436,29.9344649 C10.8031763,30.1691868 11.0323312,30.3963136 11.2690103,30.615451 L11.6296225,30.9381159 C17.3932761,35.9213061 26.0173027,35.4562536 31.2171608,29.9993583 L31.443,29.755 L31.443,20.208 L21.0547402,25.7302586 L-0.478303325,14.3827607 L21.0507439,3.03736869 Z M35.2565217,13.1666667 C36.9860755,13.1666667 38.3994481,14.5203994 38.4948655,16.2260911 L38.5,16.4101449 L38.5,26.6666667 L36.5,26.6666667 L36.5,16.4101449 C36.5,15.766313 36.0106916,15.2367651 35.3836602,15.1730866 L35.2565217,15.1666667 L20.8333333,15.1666667 L20.8333333,13.1666667 L35.2565217,13.1666667 Z" id="Combined-Shape" fill="#8914B0" fill-rule="nonzero"></path>
    </g>
</svg>