<?xml version="1.0" encoding="utf-8"?>
<!-- Generator: Adobe Illustrator 26.3.1, SVG Export Plug-In . SVG Version: 6.00 Build 0)  -->
<svg version="1.1" xmlns="http://www.w3.org/2000/svg" xmlns:xlink="http://www.w3.org/1999/xlink" x="0px" y="0px"
	 viewBox="0 0 100 100" style="enable-background:new 0 0 100 100;" xml:space="preserve">
<style type="text/css">
	.st0{fill:#ECECEC;}
	.st1{fill:none;stroke:#000000;stroke-width:2;stroke-linecap:round;stroke-linejoin:round;stroke-miterlimit:10;}
	.st2{fill:none;stroke:#000000;stroke-width:2;stroke-linecap:round;stroke-linejoin:round;}
	.st3{fill:none;stroke:#000000;stroke-width:2;stroke-linecap:round;stroke-miterlimit:10;}
</style>
<g id="BG">
	<path class="st0" d="M90,100H10c-5.52,0-10-4.48-10-10V10C0,4.48,4.48,0,10,0h80c5.52,0,10,4.48,10,10v80
		C100,95.52,95.52,100,90,100z"/>
</g>
<g id="Design">
	<g>
		<g id="Group_28_00000045609636614068597760000003072413407651487636_" transform="translate(-485.719 311.6)">
			<path d="M526.08-243.54c0,0-0.01,0-0.02,0c-0.27,0-0.52-0.11-0.7-0.3l-8.72-9c-0.38-0.4-0.37-1.03,0.02-1.41
				c0.4-0.38,1.03-0.37,1.41,0.02l8.02,8.29l8.57-8.31c0.4-0.38,1.03-0.38,1.41,0.02c0.38,0.4,0.38,1.03-0.02,1.41l-9.29,9
				C526.59-243.64,526.34-243.54,526.08-243.54z"/>
			<path d="M526.13-244.38c-0.55,0-1-0.45-1-1v-27.79c0-0.55,0.45-1,1-1s1,0.45,1,1v27.79
				C527.13-244.83,526.68-244.38,526.13-244.38z"/>
		</g>
		<g id="Group_28_00000086682949865774060100000013178677512992111507_" transform="translate(-485.719 311.6)">
			<path d="M554.07-263.17c-0.26,0-0.52-0.1-0.72-0.3l-8.02-8.29l-8.57,8.31c-0.4,0.38-1.03,0.38-1.41-0.02
				c-0.38-0.4-0.38-1.03,0.02-1.41l9.29-9c0.19-0.18,0.47-0.27,0.71-0.28c0.27,0,0.52,0.11,0.7,0.3l8.72,9
				c0.38,0.4,0.37,1.03-0.02,1.41C554.57-263.26,554.32-263.17,554.07-263.17z"/>
			<path d="M545.31-243.54c-0.55,0-1-0.45-1-1v-27.79c0-0.55,0.45-1,1-1s1,0.45,1,1v27.79
				C546.31-243.99,545.86-243.54,545.31-243.54z"/>
		</g>
	</g>
</g>
<g id="Guides">
</g>
</svg>
