<?xml version="1.0" encoding="utf-8"?>
<!-- Generator: Adobe Illustrator 26.3.1, SVG Export Plug-In . SVG Version: 6.00 Build 0)  -->
<svg version="1.1" xmlns="http://www.w3.org/2000/svg" xmlns:xlink="http://www.w3.org/1999/xlink" x="0px" y="0px"
	 viewBox="0 0 100 100" style="enable-background:new 0 0 100 100;" xml:space="preserve">
<style type="text/css">
	.st0{fill:#ECECEC;}
	.st1{fill:none;stroke:#000000;stroke-width:2;stroke-linecap:round;stroke-linejoin:round;stroke-miterlimit:10;}
	.st2{fill:none;stroke:#000000;stroke-width:2;stroke-linecap:round;stroke-linejoin:round;}
	.st3{fill:none;stroke:#000000;stroke-width:2;stroke-linecap:round;stroke-miterlimit:10;}
</style>
<g id="BG">
	<path class="st0" d="M90,100H10c-5.52,0-10-4.48-10-10V10C0,4.48,4.48,0,10,0h80c5.52,0,10,4.48,10,10v80
		C100,95.52,95.52,100,90,100z"/>
</g>
<g id="Design">
	<g id="Group_19_00000154395798474150527340000013005305860743122860_" transform="translate(-220.029 187.747)">
		<path d="M269.69-119.53c-2.95,0-5.93-0.75-8.66-2.32c-4.02-2.32-6.89-6.07-8.09-10.55s-0.58-9.16,1.74-13.18
			c2.32-4.02,6.07-6.89,10.55-8.09c4.48-1.2,9.16-0.58,13.18,1.74c0.48,0.28,0.64,0.89,0.37,1.37c-0.28,0.48-0.89,0.64-1.37,0.37
			c-3.55-2.05-7.7-2.6-11.66-1.54c-3.97,1.06-7.28,3.61-9.33,7.16c-2.05,3.56-2.6,7.7-1.54,11.66s3.61,7.28,7.16,9.33
			c3.56,2.05,7.7,2.6,11.67,1.54c3.97-1.06,7.28-3.61,9.33-7.16c1.95-3.37,2.54-7.31,1.68-11.1c-0.12-0.54,0.21-1.08,0.75-1.2
			c0.54-0.12,1.07,0.21,1.2,0.75c0.98,4.29,0.31,8.74-1.89,12.54C281.55-122.65,275.7-119.53,269.69-119.53z"/>
		<path d="M269.71-130.99c-0.26,0-0.51-0.1-0.71-0.29l-6.09-6.09c-0.39-0.39-0.39-1.02,0-1.41s1.02-0.39,1.41,0l5.39,5.39L288-151.7
			c0.39-0.39,1.02-0.39,1.41,0s0.39,1.02,0,1.41l-19,19C270.22-131.09,269.96-130.99,269.71-130.99z"/>
	</g>
</g>
<g id="Guides">
</g>
</svg>
