<?xml version="1.0" encoding="utf-8"?>
<!-- Generator: Adobe Illustrator 25.2.1, SVG Export Plug-In . SVG Version: 6.00 Build 0)  -->
<svg version="1.1" id="Layer_1" xmlns="http://www.w3.org/2000/svg" xmlns:xlink="http://www.w3.org/1999/xlink" x="0px" y="0px"
	 viewBox="0 0 897 328" style="enable-background:new 0 0 897 328;" xml:space="preserve">
<style type="text/css">
	.st0{fill-rule:evenodd;clip-rule:evenodd;fill:#111111;}
</style>
<g>
	<path id="path3348" d="M422.93,186c0,1.08-0.19,1.23-1.72,1.67l-1.02,0.3c-0.54,0.15-0.93,0.44-0.93,0.98
		c0,0.98,0.73,0.98,1.12,0.98h22.49l1.67-6.43c0.2-0.74,0.34-1.28,0.34-1.57c0-0.59-0.83-1.28-1.52-1.28
		c-0.69,0-1.09,0.49-1.42,0.98l-2.55,3.49c-0.5,0.69-0.93,1.08-2.02,1.08h-6.67c-1.33,0-1.38-0.59-1.38-1.72V158.9
		c0-1.08,0.2-1.23,1.72-1.67l1.03-0.3c0.53-0.15,0.93-0.44,0.93-0.98c0-0.98-0.74-0.98-1.13-0.98h-11.49c-0.39,0-1.12,0-1.12,0.98
		c0,0.54,0.39,0.83,0.93,0.98l1.02,0.3c1.53,0.44,1.72,0.59,1.72,1.67V186"/>
	<path id="path3350" d="M463.03,162.24h0.1l4.36,13.94h-8.98L463.03,162.24L463.03,162.24z M450.37,185.6
		c-0.49,1.37-0.64,1.52-1.48,1.77l-1.91,0.59c-0.4,0.15-0.64,0.44-0.64,1.13c0,0.54,0.4,0.83,0.99,0.83h9.62
		c0.39,0,1.42,0,1.42-1.08c0-0.44-0.34-0.68-0.93-0.88l-1.62-0.59c-0.4-0.15-0.74-0.39-0.74-0.83c0-0.15,0.1-0.49,0.15-0.69
		l1.72-5.06h12.07l1.52,4.56c0.2,0.49,0.34,1.03,0.34,1.38c0,0.49-0.73,0.79-1.12,0.93l-1.58,0.59c-0.29,0.1-0.63,0.29-0.63,0.84
		c0,0.39,0.24,0.83,1.08,0.83h11.43c0.99,0,1.18-0.39,1.18-0.83c0-0.35-0.05-0.64-0.49-0.84l-1.48-0.59
		c-1.42-0.59-1.47-0.64-2.11-2.4l-10.65-30.29h-5.31L450.37,185.6L450.37,185.6"/>
	<path id="path3352" d="M487.62,186c0,1.08-0.2,1.23-1.72,1.67l-1.03,0.3c-0.54,0.15-0.93,0.44-0.93,0.98
		c0,0.98,0.73,0.98,1.13,0.98h10.3c0.4,0,1.13,0,1.13-0.98c0-0.54-0.39-0.83-0.93-0.98l-1.03-0.3c-1.52-0.44-1.72-0.59-1.72-1.67
		v-21.99h0.1l17.77,25.92h5.05V158.9c0-1.08,0.2-1.23,1.72-1.67l1.03-0.3c0.54-0.15,0.93-0.44,0.93-0.98c0-0.98-0.73-0.98-1.13-0.98
		h-10.3c-0.4,0-1.13,0-1.13,0.98c0,0.54,0.39,0.83,0.93,0.98l1.03,0.3c1.52,0.44,1.72,0.59,1.72,1.67v21.99h-0.1l-17.48-25.92h-7.9
		c-0.4,0-1.13,0-1.13,0.98c0,0.54,0.39,0.83,0.93,0.98l1.03,0.3c1.52,0.44,1.72,0.59,1.72,1.67L487.62,186"/>
	<path id="path3354" d="M553.15,157.87c-3.53-2.65-7.95-3.68-12.27-3.68c-10.11,0-17.48,8.49-17.48,18.31
		c0,10.06,6.73,18.21,17.19,18.21c5.15-0.15,9.71-1.77,13.25-4.52v-7.22c0-0.88,0-1.47,0.73-1.77l2.11-0.93
		c0.49-0.19,0.89-0.59,0.89-1.23c0-0.64-0.69-0.88-1.23-0.88h-10.99c-0.69,0-1.77,0.15-1.77,1.08c0,0.49,0.19,0.74,0.53,0.88
		l2.01,0.89c0.84,0.39,1.03,0.64,1.03,1.42v6.18c-1.08,1.18-3.63,2.16-6.28,2.06c-7.56,0-10.5-7.07-10.5-13.65
		c0-6.68,2.8-14.82,10.85-14.82c5.06,0,6.04,1.82,6.29,2.4l1.58,4.07c0.34,0.83,0.83,1.77,1.91,1.77c1.67,0,2.16-1.28,2.16-2.7
		V157.87"/>
	<path id="path3356" d="M589.97,184.72c-1.81,1.87-4.26,3.14-6.92,3.14c-3.49,0-7.36-2.35-7.36-6.63c0-2.99,1.96-5.84,6.23-9.23
		L589.97,184.72L589.97,184.72L589.97,184.72z M580.11,161.99c0-2.16,1.52-4.07,3.77-4.07c1.72,0,3.69,0.98,3.69,3.78
		c0,2.16-1.08,3.44-4.66,6.72C580.59,164.84,580.11,163.66,580.11,161.99L580.11,161.99L580.11,161.99z M593.41,189.92h4.56
		c0.55,0,0.79-0.15,0.79-0.54c0-0.34-0.1-0.39-1.13-0.74l-1.72-0.59c-0.33-0.1-0.59-0.2-0.93-0.69l-2.05-3.24
		c2.35-3.63,2.94-8.29,3.29-9.42c0.1-0.3,0.2-0.34,1.08-0.64l1.92-0.59c0.53-0.15,0.73-0.44,0.73-0.78c0-0.24-0.24-0.49-0.89-0.49
		h-8.29c-0.54,0-0.83,0.25-0.83,0.59c0,0.25,0.14,0.49,0.79,0.69l1.81,0.59c1.08,0.39,1.52,0.79,1.52,1.62
		c0,1.38-1.32,4.76-2.35,6.48l-7.56-11.93c4.72-4.27,5.9-5.99,5.9-8.3c0-3.39-2.66-5.89-5.99-5.89c-3.68,0-6.68,2.36-6.68,5.79
		c0,2.6,0.93,4.42,3.34,8.2c-4.23,3.24-7.76,6.68-7.76,11.49c0,5.69,5.15,8.79,9.77,8.79c3.53,0,5.98-1.37,8.44-3.78L593.41,189.92
		L593.41,189.92"/>
	<path id="path3358" d="M616.23,188.3c2.6,1.72,5.69,2.41,8.74,2.41c6.48,0,12.46-4.03,12.46-11.15c0-10.06-15.66-10.51-15.66-16.84
		c0-3.34,2.85-4.81,5.7-4.81c3.1,0,3.78,1.08,4.13,1.81l1.13,2.65c0.39,0.93,0.78,1.47,1.81,1.47c1.23,0,1.66-0.93,1.66-1.33
		c0-0.29,0-0.59-0.04-0.83l-0.69-5.25c-2.5-1.57-5.49-2.26-8.44-2.26c-5.65,0-11.34,3.34-11.34,9.67c0,10.99,15.36,9.91,15.36,17.82
		c0,3.09-2.84,5.01-5.69,5.01c-1.62,0-3.98-0.2-4.81-1.92l-2.11-4.27c-0.3-0.64-0.64-1.03-1.33-1.03c-0.78,0-1.86,0.39-1.86,1.33
		c0,0.24,0,0.49,0.06,0.79L616.23,188.3L616.23,188.3"/>
	<path id="path3360" d="M670.04,180.06c0-1.18-0.29-2.11-1.62-2.11c-0.54,0-1.42,0.15-1.91,1.18l-2.36,5.11
		c-0.25,0.49-2.3,2.45-6.29,2.45c-7.56,0-10.5-7.07-10.5-13.65c0-6.68,2.8-14.82,10.85-14.82c3.04,0,4.62,0.59,5.41,1.13
		c0.49,0.39,0.69,0.83,0.73,0.98l1.72,4.37c0.34,0.83,0.83,1.77,1.91,1.77c1.67,0,2.16-1.28,2.16-2.7v-5.89
		c-3.53-2.65-7.95-3.68-12.28-3.68c-10.11,0-17.47,8.49-17.47,18.31c0,10.06,6.73,18.21,17.13,18.21c4.47,0,8.84-1.52,12.52-4.03
		V180.06"/>
	<path id="path3362" d="M679.36,186c0,1.08-0.2,1.23-1.72,1.67l-1.03,0.3c-0.54,0.15-0.93,0.44-0.93,0.98
		c0,0.98,0.73,0.98,1.13,0.98h11.48c0.4,0,1.13,0,1.13-0.98c0-0.54-0.39-0.83-0.93-0.98l-1.03-0.3c-1.52-0.44-1.71-0.59-1.71-1.67
		v-11.63h13.6V186c0,1.08-0.2,1.23-1.72,1.67l-1.03,0.3c-0.54,0.15-0.93,0.44-0.93,0.98c0,0.98,0.73,0.98,1.13,0.98h11.48
		c0.4,0,1.13,0,1.13-0.98c0-0.54-0.38-0.83-0.93-0.98l-1.03-0.3c-1.52-0.44-1.72-0.59-1.72-1.67v-27.1c0-1.08,0.2-1.23,1.72-1.67
		l1.03-0.3c0.55-0.15,0.93-0.44,0.93-0.98c0-0.98-0.73-0.98-1.13-0.98h-11.48c-0.4,0-1.13,0-1.13,0.98c0,0.54,0.39,0.83,0.93,0.98
		l1.03,0.3c1.53,0.44,1.72,0.59,1.72,1.67v11.14h-13.6V158.9c0-1.08,0.19-1.23,1.71-1.67l1.03-0.3c0.54-0.15,0.93-0.44,0.93-0.98
		c0-0.98-0.73-0.98-1.13-0.98h-11.48c-0.4,0-1.13,0-1.13,0.98c0,0.54,0.39,0.83,0.93,0.98l1.03,0.3c1.52,0.44,1.72,0.59,1.72,1.67
		V186"/>
	<path id="path3364" d="M743.77,190.27h5.2l8.59-31.02c0.4-1.28,0.69-1.47,1.97-2.01l1.47-0.59c0.29-0.15,0.59-0.44,0.59-0.93
		c0-0.74-0.79-0.74-1.33-0.74h-9.22c-0.45,0-1.08,0-1.08,0.93c0,0.39,0.24,0.64,0.58,0.74l1.53,0.59c0.24,0.1,0.59,0.34,0.59,0.88
		c0,0.3-0.05,0.74-0.2,1.28l-5.3,22.09h-0.1l-5.59-22.29c-0.1-0.34-0.2-0.83-0.2-1.13c0-0.34,0.2-0.54,0.78-0.78l1.53-0.64
		c0.34-0.15,0.54-0.39,0.54-0.83c0-0.54-0.25-0.84-0.84-0.84h-10.5c-0.64,0-0.83,0.54-0.83,1.03c0,0.39,0.14,0.54,0.39,0.64
		l1.52,0.59c0.5,0.19,0.74,0.54,0.74,0.88c0,0.25-0.1,0.54-0.15,0.74l-5.4,22.63h-0.1L723.34,159c-0.1-0.39-0.2-0.64-0.2-0.98
		c0-0.39,0.44-0.59,0.94-0.78l1.27-0.59c0.4-0.2,0.59-0.49,0.59-1.03c0-0.39-0.29-0.64-0.64-0.64h-11.39
		c-0.45,0-0.73,0.34-0.73,0.93c0,0.3,0.05,0.44,0.59,0.74l1.62,0.59c1.28,0.44,1.47,1.23,1.53,1.52l8.69,31.51h5.29l6.38-25.38h0.1
		L743.77,190.27L743.77,190.27"/>
	<path id="path3366" d="M774.5,162.24h0.09l4.37,13.94h-8.98L774.5,162.24L774.5,162.24z M761.83,185.6
		c-0.49,1.37-0.64,1.52-1.47,1.77l-1.91,0.59c-0.4,0.15-0.64,0.44-0.64,1.13c0,0.54,0.4,0.83,0.99,0.83h9.61c0.4,0,1.43,0,1.43-1.08
		c0-0.44-0.35-0.68-0.94-0.88l-1.62-0.59c-0.4-0.15-0.74-0.39-0.74-0.83c0-0.15,0.1-0.49,0.15-0.69l1.71-5.06h12.08l1.53,4.56
		c0.2,0.49,0.34,1.03,0.34,1.38c0,0.49-0.73,0.79-1.12,0.93l-1.58,0.59c-0.3,0.1-0.64,0.29-0.64,0.84c0,0.39,0.25,0.83,1.08,0.83
		h11.44c0.99,0,1.18-0.39,1.18-0.83c0-0.35-0.05-0.64-0.49-0.84l-1.48-0.59c-1.42-0.59-1.46-0.64-2.11-2.4l-10.65-30.29h-5.3
		L761.83,185.6L761.83,185.6"/>
	<path id="path3368" d="M805.91,158.7h4.17c3.69,0,5.35,2.55,5.35,5.94c0,4.47-2.7,6.78-6.57,6.78h-2.95V158.7z M799.52,186
		c0,1.08-0.19,1.23-1.72,1.67l-1.02,0.3c-0.54,0.15-0.93,0.44-0.93,0.98c0,0.98,0.73,0.98,1.12,0.98h11.1c0.39,0,1.12,0,1.12-0.98
		c0-0.54-0.39-0.83-0.93-0.98l-1.02-0.3c-1.13-0.44-1.33-0.59-1.33-1.67v-10.85h3.44l7.16,14.77h8.45c0.39,0,0.93-0.24,0.93-0.88
		c0-0.64-0.59-0.88-1.32-1.08l-0.99-0.3c-0.83-0.24-1.22-0.39-1.66-1.33l-6.14-13.01c3.58-1.52,6.04-5.01,6.04-9.08
		c0-6.72-4.86-9.28-10.41-9.28h-14.43c-0.39,0-1.12,0-1.12,0.98c0,0.54,0.39,0.83,0.93,0.98l1.02,0.3c1.53,0.44,1.72,0.59,1.72,1.67
		L799.52,186"/>
	<path id="path3370" d="M855.78,154.97h-21.89l-1.47,6.09c-0.05,0.1-0.15,0.54-0.15,0.93c0,0.83,0.54,1.62,1.52,1.62
		c0.83,0,1.33-0.69,1.77-1.28l2.41-3.34c0.59-0.78,0.78-0.88,1.71-0.88h7.66l-17.86,31.81h23.7l1.86-7.36
		c0.06-0.15,0.1-0.64,0.1-0.98c0-0.74-0.88-1.08-1.46-1.08c-0.64,0-1.28,0.49-1.58,1.03l-2.7,3.73c-0.74,1.03-0.99,1.23-1.97,1.23
		h-9.33L855.78,154.97L855.78,154.97"/>
	<path id="path3372" d="M88.38,82.92v134.32c0,0,103.56,0.05,119.45,0.05c12.45,0,20.06-6.65,20.06-17.25
		c0-7.15-4.24-11.39-18.81-19.07c-25.69-13.25-26.75-13.78-33.64-19.6c-11.13-9.28-16.96-21.99-16.96-36.56
		c0-32.06,25.43-53.52,63.06-53.52c18.54,0,33.12,4.24,55.37,16.16l-10.34,35.77c-16.42-10.86-26.49-14.84-37.88-14.84
		c-11.4,0-18.55,5.83-18.55,14.84c0,7.42,3.97,11.13,19.61,19.07c19.34,9.54,27.81,14.57,35.24,20.93
		c10.07,8.48,16.16,22.26,16.16,36.29c0,32.33-27.28,57.21-66.22,57.21l-173.71,0V82.92H88.38L88.38,82.92"/>
	<rect x="358.97" y="82.14" width="1.94" height="174.57"/>
</g>
</svg>
