<svg width="38" height="38" viewBox="0 0 38 38" fill="none" xmlns="http://www.w3.org/2000/svg">
<path d="M24.4136 2.93003C23.7685 2.2152 22.6562 2.18669 21.9753 2.86753L2.86756 21.9747C2.19245 22.6497 2.21388 23.7507 2.91475 24.399L5.09199 26.413C5.15104 26.4676 5.25606 26.5248 5.46051 26.5334C5.67367 26.5423 5.9407 26.4929 6.21105 26.383C6.79509 26.1456 7.43284 26.0154 8.09806 26.0154C10.867 26.0154 13.1116 28.26 13.1116 31.029C13.1116 31.5563 13.0298 32.0669 12.8772 32.5473C12.7887 32.8261 12.7602 33.0967 12.7857 33.3089C12.8102 33.5124 12.8755 33.6127 12.9345 33.6673L14.5489 35.1606C15.2079 35.7702 16.2294 35.7549 16.8698 35.1259L35.1217 17.2006C35.7648 16.569 35.7957 15.5426 35.1918 14.8734L33.4896 12.9872C33.4372 12.9291 33.3409 12.8642 33.1459 12.8352C32.9425 12.805 32.6813 12.8242 32.4076 12.9008C31.9759 13.0215 31.5219 13.0857 31.0549 13.0857C28.2859 13.0857 26.0413 10.8411 26.0413 8.07217C26.0413 7.4243 26.1648 6.80241 26.3906 6.23078C26.4947 5.96718 26.5405 5.70994 26.5313 5.50504C26.5224 5.30861 26.4678 5.20631 26.4153 5.14809L24.4136 2.93003ZM20.2961 1.18824C21.9382 -0.453793 24.6209 -0.385031 26.1767 1.33897L28.1784 3.55703C29.1831 4.67044 28.9675 6.17134 28.5993 7.10331C28.4815 7.40168 28.4161 7.72786 28.4161 8.07217C28.4161 9.52949 29.5975 10.7109 31.0549 10.7109C31.3036 10.7109 31.5424 10.6768 31.7679 10.6137C32.7317 10.3441 34.2476 10.2824 35.2527 11.3962L36.9549 13.2824C38.4114 14.8964 38.3368 17.3716 36.7857 18.895L18.5339 36.8202C16.9892 38.3372 14.5256 38.3741 12.9363 36.904L11.3219 35.4107C10.1912 34.3648 10.3046 32.8024 10.6137 31.8287C10.6934 31.5779 10.7368 31.3096 10.7368 31.029C10.7368 29.5716 9.55538 28.3902 8.09806 28.3902C7.74461 28.3902 7.41019 28.4591 7.10531 28.583C6.15798 28.9681 4.60966 29.2019 3.47937 28.1563L1.30214 26.1424C-0.388202 24.5788 -0.439889 21.9235 1.18833 20.2954L20.2961 1.18824Z" fill="#2CEC9A"/>
</svg>
