<?xml version="1.0" encoding="utf-8"?>
<!-- Generator: Adobe Illustrator 25.2.1, SVG Export Plug-In . SVG Version: 6.00 Build 0)  -->
<svg version="1.1" id="Layer_1" xmlns="http://www.w3.org/2000/svg" xmlns:xlink="http://www.w3.org/1999/xlink" x="0px" y="0px"
	 viewBox="0 0 721 328" style="enable-background:new 0 0 721 328;" xml:space="preserve">
<style type="text/css">
	.st0{enable-background:new    ;}
</style>
<g>
	<g class="st0">
		<path d="M349.8,100.7v9.9h0.5c1.5,0,2.7-0.5,3.3-1.4s1.1-2.4,1.3-4.3h0.7v12.7h-0.7c-0.1-1.4-0.4-2.5-0.9-3.4
			c-0.5-0.9-1-1.5-1.6-1.8c-0.6-0.3-1.5-0.5-2.6-0.5v6.8c0,1.3,0.1,2.2,0.2,2.4c0.1,0.3,0.3,0.5,0.6,0.7c0.3,0.2,0.8,0.3,1.5,0.3
			h1.4c2.3,0,4.1-0.5,5.4-1.6c1.4-1,2.3-2.6,2.9-4.8h0.7l-1.1,7.7h-21v-0.7h0.8c0.7,0,1.3-0.1,1.7-0.4c0.3-0.2,0.5-0.5,0.7-0.9
			c0.1-0.3,0.2-1,0.2-2.3v-15.9c0-1.1,0-1.8-0.1-2c-0.1-0.4-0.3-0.7-0.7-1c-0.5-0.3-1.1-0.5-1.9-0.5h-0.8v-0.7h20.3v7.2h-0.7
			c-0.3-1.8-0.8-3-1.5-3.8c-0.6-0.8-1.5-1.3-2.7-1.7c-0.7-0.2-1.9-0.3-3.8-0.3H349.8z"/>
		<path d="M379.1,119.2l0.6,0.4c-0.8,1.5-1.8,2.6-2.9,3.3c-1.2,0.7-2.4,1.1-3.7,1.1c-2.2,0-4-0.8-5.3-2.5c-1.3-1.7-2-3.7-2-6.1
			c0-2.3,0.6-4.3,1.8-6c1.5-2.1,3.5-3.1,6.1-3.1c1.7,0,3.1,0.4,4.1,1.3c1,0.9,1.5,1.8,1.5,2.9c0,0.7-0.2,1.2-0.6,1.6
			c-0.4,0.4-0.9,0.6-1.6,0.6c-0.7,0-1.3-0.2-1.7-0.7c-0.5-0.5-0.7-1.3-0.8-2.5c-0.1-0.8-0.2-1.3-0.5-1.6c-0.3-0.3-0.6-0.4-1-0.4
			c-0.6,0-1.1,0.3-1.5,0.9c-0.6,0.9-0.9,2.3-0.9,4.2c0,1.6,0.3,3.1,0.8,4.5c0.5,1.4,1.2,2.5,2.1,3.2c0.7,0.5,1.4,0.8,2.3,0.8
			c0.6,0,1.1-0.1,1.7-0.4C377.8,120.5,378.4,120,379.1,119.2z"/>
	</g>
	<g class="st0">
		<path d="M391.5,99.3v9.7c0.9-1,1.8-1.6,2.5-2c0.8-0.4,1.6-0.6,2.4-0.6c1,0,1.9,0.3,2.7,0.9c0.7,0.6,1.2,1.3,1.5,2.1
			c0.2,0.8,0.4,2.2,0.4,4.1v6.5c0,1.3,0.1,2.1,0.4,2.4c0.2,0.3,0.7,0.5,1.4,0.6v0.6h-8.5v-0.6c0.6-0.1,1-0.3,1.3-0.7
			c0.2-0.3,0.3-1.1,0.3-2.3v-7.5c0-1.4-0.1-2.2-0.2-2.6s-0.3-0.6-0.5-0.8c-0.3-0.2-0.5-0.3-0.9-0.3c-0.5,0-0.9,0.2-1.4,0.5
			c-0.5,0.3-0.9,0.9-1.5,1.7v9c0,1.2,0.1,1.9,0.3,2.2c0.2,0.4,0.7,0.7,1.4,0.8v0.6h-8.5v-0.6c0.7-0.1,1.2-0.3,1.5-0.7
			c0.2-0.3,0.3-1,0.3-2.3v-17c0-1.3-0.1-2.1-0.3-2.4s-0.7-0.5-1.5-0.6v-0.7H391.5z"/>
		<path d="M411.6,100.7v6.1h4v1.8h-4v10.3c0,1,0,1.6,0.1,1.9c0.1,0.3,0.2,0.5,0.5,0.7c0.2,0.2,0.4,0.3,0.6,0.3
			c0.8,0,1.5-0.6,2.2-1.8l0.5,0.4c-1,2.3-2.5,3.4-4.7,3.4c-1.1,0-2-0.3-2.7-0.9c-0.7-0.6-1.2-1.2-1.4-2c-0.1-0.4-0.2-1.5-0.2-3.3v-9
			h-2.2V108c1.5-1.1,2.8-2.2,3.8-3.3c1.1-1.2,2-2.5,2.8-3.9H411.6z"/>
	</g>
	<g class="st0">
		<path d="M434.2,114.6H425c0.1,2.2,0.7,4,1.8,5.3c0.8,1,1.8,1.5,3,1.5c0.7,0,1.4-0.2,1.9-0.6c0.6-0.4,1.2-1.1,1.9-2.2l0.6,0.4
			c-0.9,1.8-1.9,3.2-3,3.9c-1.1,0.8-2.4,1.2-3.8,1.2c-2.5,0-4.4-1-5.6-2.9c-1-1.5-1.5-3.4-1.5-5.7c0-2.8,0.8-5,2.3-6.7
			c1.5-1.7,3.3-2.5,5.3-2.5c1.7,0,3.2,0.7,4.4,2.1C433.5,109.8,434.1,111.9,434.2,114.6z M429.8,113.4c0-1.9-0.1-3.2-0.3-4
			c-0.2-0.7-0.5-1.3-1-1.6c-0.3-0.2-0.6-0.3-1-0.3c-0.6,0-1.1,0.3-1.5,0.9c-0.7,1.1-1.1,2.5-1.1,4.4v0.6H429.8z"/>
	</g>
	<g class="st0">
		<path d="M462.9,98.7l0.2,8.1h-0.7c-0.3-2-1.2-3.7-2.5-4.9c-1.4-1.2-2.8-1.9-4.4-1.9c-1.2,0-2.2,0.3-2.9,1
			c-0.7,0.6-1.1,1.4-1.1,2.2c0,0.5,0.1,1,0.4,1.4c0.3,0.6,0.9,1.1,1.7,1.7c0.6,0.4,1.9,1.1,3.9,2.1c2.8,1.4,4.8,2.7,5.7,4
			c1,1.2,1.5,2.7,1.5,4.3c0,2-0.8,3.8-2.4,5.2c-1.6,1.5-3.6,2.2-6,2.2c-0.8,0-1.5-0.1-2.2-0.2c-0.7-0.2-1.5-0.4-2.6-0.9
			c-0.6-0.2-1-0.4-1.4-0.4c-0.3,0-0.6,0.1-1,0.4c-0.3,0.2-0.6,0.6-0.8,1.1h-0.7v-9.2h0.7c0.5,2.6,1.5,4.5,3,5.9c1.5,1.4,3.1,2,4.8,2
			c1.3,0,2.4-0.4,3.2-1.1c0.8-0.7,1.2-1.6,1.2-2.5c0-0.6-0.2-1.1-0.5-1.7c-0.3-0.5-0.8-1-1.4-1.5c-0.6-0.5-1.7-1.1-3.3-1.9
			c-2.2-1.1-3.8-2-4.8-2.8c-1-0.8-1.7-1.6-2.2-2.6c-0.5-0.9-0.8-2-0.8-3.1c0-1.9,0.7-3.6,2.1-4.9c1.4-1.4,3.2-2,5.4-2
			c0.8,0,1.6,0.1,2.3,0.3c0.6,0.1,1.2,0.4,2,0.8c0.8,0.4,1.4,0.6,1.7,0.6c0.3,0,0.6-0.1,0.7-0.3c0.2-0.2,0.3-0.6,0.5-1.4H462.9z"/>
	</g>
	<g class="st0">
		<path d="M476.7,106.8v13.2c0,1.2,0.1,1.9,0.4,2.3c0.3,0.3,0.8,0.5,1.6,0.6v0.6h-9v-0.6c0.7,0,1.3-0.2,1.6-0.6
			c0.2-0.3,0.4-1,0.4-2.2v-9.8c0-1.2-0.1-1.9-0.4-2.3c-0.3-0.3-0.8-0.5-1.6-0.6v-0.7H476.7z M474.2,98.7c0.8,0,1.4,0.3,2,0.8
			c0.5,0.5,0.8,1.2,0.8,2s-0.3,1.4-0.8,1.9c-0.5,0.5-1.2,0.8-2,0.8c-0.8,0-1.4-0.3-1.9-0.8c-0.5-0.5-0.8-1.2-0.8-1.9s0.3-1.4,0.8-2
			S473.4,98.7,474.2,98.7z"/>
		<path d="M494,119.2l0.6,0.4c-0.8,1.5-1.8,2.6-2.9,3.3c-1.2,0.7-2.4,1.1-3.7,1.1c-2.2,0-4-0.8-5.3-2.5c-1.3-1.7-2-3.7-2-6.1
			c0-2.3,0.6-4.3,1.8-6c1.5-2.1,3.5-3.1,6.1-3.1c1.7,0,3.1,0.4,4.1,1.3s1.5,1.8,1.5,2.9c0,0.7-0.2,1.2-0.6,1.6
			c-0.4,0.4-0.9,0.6-1.6,0.6c-0.7,0-1.3-0.2-1.7-0.7c-0.5-0.5-0.7-1.3-0.8-2.5c-0.1-0.8-0.2-1.3-0.5-1.6c-0.3-0.3-0.6-0.4-1-0.4
			c-0.6,0-1.1,0.3-1.5,0.9c-0.6,0.9-0.9,2.3-0.9,4.2c0,1.6,0.3,3.1,0.8,4.5c0.5,1.4,1.2,2.5,2.1,3.2c0.7,0.5,1.4,0.8,2.3,0.8
			c0.6,0,1.1-0.1,1.7-0.4C492.6,120.5,493.3,120,494,119.2z"/>
	</g>
	<g class="st0">
		<path d="M506.3,99.3v9.7c0.9-1,1.8-1.6,2.5-2c0.8-0.4,1.6-0.6,2.4-0.6c1,0,1.9,0.3,2.7,0.9c0.7,0.6,1.2,1.3,1.5,2.1
			c0.2,0.8,0.4,2.2,0.4,4.1v6.5c0,1.3,0.1,2.1,0.4,2.4c0.2,0.3,0.7,0.5,1.4,0.6v0.6h-8.5v-0.6c0.6-0.1,1-0.3,1.3-0.7
			c0.2-0.3,0.3-1.1,0.3-2.3v-7.5c0-1.4-0.1-2.2-0.2-2.6c-0.1-0.4-0.3-0.6-0.5-0.8c-0.3-0.2-0.5-0.3-0.9-0.3c-0.5,0-0.9,0.2-1.4,0.5
			c-0.5,0.3-0.9,0.9-1.5,1.7v9c0,1.2,0.1,1.9,0.3,2.2c0.2,0.4,0.7,0.7,1.4,0.8v0.6h-8.5v-0.6c0.7-0.1,1.2-0.3,1.5-0.7
			c0.2-0.3,0.3-1,0.3-2.3v-17c0-1.3-0.1-2.1-0.3-2.4c-0.2-0.3-0.7-0.5-1.5-0.6v-0.7H506.3z"/>
	</g>
	<g class="st0">
		<path d="M535.5,114.6h-9.2c0.1,2.2,0.7,4,1.8,5.3c0.8,1,1.8,1.5,3,1.5c0.7,0,1.4-0.2,1.9-0.6c0.6-0.4,1.2-1.1,1.9-2.2l0.6,0.4
			c-0.9,1.8-1.9,3.2-3,3.9c-1.1,0.8-2.4,1.2-3.8,1.2c-2.5,0-4.4-1-5.6-2.9c-1-1.5-1.5-3.4-1.5-5.7c0-2.8,0.8-5,2.3-6.7
			c1.5-1.7,3.3-2.5,5.3-2.5c1.7,0,3.2,0.7,4.4,2.1C534.7,109.8,535.4,111.9,535.5,114.6z M531.1,113.4c0-1.9-0.1-3.2-0.3-4
			c-0.2-0.7-0.5-1.3-1-1.6c-0.3-0.2-0.6-0.3-1-0.3c-0.6,0-1.1,0.3-1.5,0.9c-0.7,1.1-1.1,2.5-1.1,4.4v0.6H531.1z"/>
		<path d="M544.5,106.8v3.8c1.1-1.7,2.1-2.9,2.9-3.4c0.8-0.6,1.6-0.8,2.4-0.8c0.7,0,1.2,0.2,1.6,0.6c0.4,0.4,0.6,1,0.6,1.7
			c0,0.8-0.2,1.4-0.6,1.9c-0.4,0.4-0.9,0.7-1.4,0.7c-0.6,0-1.2-0.2-1.6-0.6c-0.5-0.4-0.7-0.6-0.8-0.7c-0.1-0.1-0.3-0.1-0.4-0.1
			c-0.3,0-0.7,0.1-1,0.4c-0.5,0.4-0.9,1-1.1,1.7c-0.4,1.2-0.6,2.4-0.6,3.8v3.8l0,1c0,0.7,0,1.1,0.1,1.3c0.1,0.3,0.4,0.6,0.6,0.7
			c0.3,0.1,0.8,0.2,1.4,0.3v0.6h-9v-0.6c0.7-0.1,1.2-0.3,1.5-0.6c0.3-0.3,0.4-1.2,0.4-2.7v-9.2c0-1,0-1.6-0.1-1.8
			c-0.1-0.3-0.3-0.6-0.5-0.7c-0.2-0.2-0.6-0.3-1.2-0.3v-0.7H544.5z"/>
	</g>
	<g class="st0">
		<path d="M563.6,99.3v9.7c0.9-1,1.8-1.6,2.5-2c0.8-0.4,1.6-0.6,2.4-0.6c1,0,1.9,0.3,2.7,0.9c0.7,0.6,1.2,1.3,1.5,2.1
			c0.2,0.8,0.4,2.2,0.4,4.1v6.5c0,1.3,0.1,2.1,0.4,2.4c0.2,0.3,0.7,0.5,1.4,0.6v0.6h-8.5v-0.6c0.6-0.1,1-0.3,1.3-0.7
			c0.2-0.3,0.3-1.1,0.3-2.3v-7.5c0-1.4-0.1-2.2-0.2-2.6s-0.3-0.6-0.5-0.8c-0.3-0.2-0.5-0.3-0.9-0.3c-0.5,0-0.9,0.2-1.4,0.5
			c-0.5,0.3-0.9,0.9-1.5,1.7v9c0,1.2,0.1,1.9,0.3,2.2c0.2,0.4,0.7,0.7,1.4,0.8v0.6h-8.5v-0.6c0.7-0.1,1.2-0.3,1.5-0.7
			c0.2-0.3,0.3-1,0.3-2.3v-17c0-1.3-0.1-2.1-0.3-2.4c-0.2-0.3-0.7-0.5-1.5-0.6v-0.7H563.6z"/>
	</g>
	<g class="st0">
		<path d="M592.7,114.6h-9.2c0.1,2.2,0.7,4,1.8,5.3c0.8,1,1.8,1.5,3,1.5c0.7,0,1.4-0.2,1.9-0.6c0.6-0.4,1.2-1.1,1.9-2.2l0.6,0.4
			c-0.9,1.8-1.9,3.2-3,3.9c-1.1,0.8-2.4,1.2-3.8,1.2c-2.5,0-4.4-1-5.6-2.9c-1-1.5-1.5-3.4-1.5-5.7c0-2.8,0.8-5,2.3-6.7
			c1.5-1.7,3.3-2.5,5.3-2.5c1.7,0,3.2,0.7,4.4,2.1C591.9,109.8,592.6,111.9,592.7,114.6z M588.3,113.4c0-1.9-0.1-3.2-0.3-4
			c-0.2-0.7-0.5-1.3-1-1.6c-0.3-0.2-0.6-0.3-1-0.3c-0.6,0-1.1,0.3-1.5,0.9c-0.7,1.1-1.1,2.5-1.1,4.4v0.6H588.3z"/>
		<path d="M601.3,106.8v13.2c0,1.2,0.1,1.9,0.4,2.3c0.3,0.3,0.8,0.5,1.6,0.6v0.6h-9v-0.6c0.7,0,1.3-0.2,1.6-0.6
			c0.2-0.3,0.4-1,0.4-2.2v-9.8c0-1.2-0.1-1.9-0.4-2.3c-0.3-0.3-0.8-0.5-1.6-0.6v-0.7H601.3z M598.8,98.7c0.8,0,1.4,0.3,2,0.8
			c0.5,0.5,0.8,1.2,0.8,2s-0.3,1.4-0.8,1.9c-0.5,0.5-1.2,0.8-2,0.8c-0.8,0-1.4-0.3-1.9-0.8c-0.5-0.5-0.8-1.2-0.8-1.9s0.3-1.4,0.8-2
			C597.4,99,598,98.7,598.8,98.7z"/>
	</g>
	<g class="st0">
		<path d="M614.5,100.7v6.1h4v1.8h-4v10.3c0,1,0,1.6,0.1,1.9s0.2,0.5,0.5,0.7c0.2,0.2,0.4,0.3,0.6,0.3c0.8,0,1.5-0.6,2.2-1.8
			l0.5,0.4c-1,2.3-2.5,3.4-4.7,3.4c-1.1,0-2-0.3-2.7-0.9c-0.7-0.6-1.2-1.2-1.4-2c-0.1-0.4-0.2-1.5-0.2-3.3v-9h-2.2V108
			c1.5-1.1,2.8-2.2,3.8-3.3c1.1-1.2,2-2.5,2.8-3.9H614.5z"/>
	</g>
	<path d="M689.3,171.1v-8.7l-6.6,3.8v4.9h-3v5.2h3v10.8c0,2.3,0.1,3.8,0.2,4.6c0.2,1.1,0.5,1.9,0.9,2.5c0.4,0.6,1.1,1.1,2.1,1.5
		c1,0.4,2,0.6,3.2,0.6c1.9,0,3.6-0.3,5.2-1l-0.6-5.1c-1.2,0.4-2,0.6-2.6,0.6c-0.4,0-0.8-0.1-1.1-0.3c-0.3-0.2-0.5-0.5-0.6-0.8
		c-0.1-0.3-0.1-1.5-0.1-3.5v-9.9h4.5v-5.2H689.3z M670.1,185.2c0,1.6-0.1,2.6-0.3,3.2c-0.3,0.8-0.8,1.6-1.6,2.2
		c-1.1,0.8-2.2,1.2-3.4,1.2c-1.1,0-1.9-0.3-2.6-1c-0.7-0.7-1-1.5-1-2.4c0-0.9,0.4-1.7,1.3-2.3c0.5-0.4,1.7-0.8,3.6-1.1
		c1.8-0.4,3.1-0.7,4-1V185.2z M663,176.2c0.7-0.5,1.6-0.7,2.7-0.7c1.7,0,2.9,0.3,3.5,0.8c0.6,0.5,0.9,1.4,0.9,2.7v0.7
		c-1.2,0.5-3.3,1-6.4,1.6c-2.3,0.4-4,0.9-5.2,1.5c-1.2,0.6-2.1,1.4-2.8,2.5c-0.7,1.1-1,2.3-1,3.7c0,2.1,0.7,3.8,2.2,5.2
		c1.5,1.4,3.5,2.1,6,2.1c1.4,0,2.8-0.3,4.1-0.8c1.3-0.5,2.5-1.4,3.6-2.4c0.1,0.1,0.1,0.4,0.2,0.8c0.3,0.9,0.5,1.5,0.6,1.9h6.5
		c-0.6-1.2-1-2.3-1.2-3.3s-0.3-2.6-0.3-4.8l0.1-7.6c0-2.8-0.3-4.8-0.9-5.8c-0.6-1.1-1.6-1.9-3-2.6c-1.4-0.7-3.6-1-6.5-1
		c-3.2,0-5.6,0.6-7.3,1.7c-1.6,1.2-2.8,2.9-3.4,5.3l5.9,1.1C661.8,177.5,662.3,176.7,663,176.2 M644.3,187.5c-1-1.1-2.2-1.6-3.8-1.6
		c-1.6,0-2.8,0.5-3.8,1.6c-1,1.1-1.5,2.3-1.5,3.6c0,1.4,0.5,2.6,1.5,3.6c1,1.1,2.2,1.6,3.8,1.6c1.6,0,2.8-0.5,3.8-1.6
		s1.4-2.3,1.4-3.6C645.8,189.8,645.3,188.6,644.3,187.5 M591.9,164c1.1-7,5.3-10.3,10.2-10.3c6.3,0,8.8,4.2,8.8,10.3H591.9z
		 M576.9,169.5c0,17.4,11.6,27.6,26.7,27.6c6.3,0,13.3-2.2,18.7-6l-5.2-9.4c-3.8,2.3-7.4,3.5-11.4,3.5c-7,0-12.3-3.5-13.7-11.5h31.5
		c0.3-1.3,0.6-3.8,0.6-6.6c0-14.3-7.4-25.3-22.4-25.3C589.1,141.8,576.9,152.4,576.9,169.5 M546.2,169.7c-4.1,0-7.2-3-7.2-8.8
		c0-5.6,3.1-8.5,7.2-8.5c4.1,0,7.2,3,7.2,8.5C553.5,166.7,550.4,169.7,546.2,169.7 M523,204.8c0,9.3,9.8,13.4,22.1,13.4
		c18.1,0,29.4-8,29.4-18.9c0-9.4-7.1-13.4-20.1-13.4h-8.5c-5.8,0-8-1.3-8-3.9c0-1.8,0.5-2.8,1.9-3.9c2.3,0.8,4.5,1.1,6.4,1.1
		c11.6,0,20.7-5.6,20.7-17.7c0-2.8-0.8-5.3-1.7-6.9h8.4v-11.4h-19.2c-2.3-0.8-5.2-1.3-8.2-1.3c-11.4,0-21.8,6.4-21.8,19
		c0,6.2,3.4,11.2,7.1,13.7v0.4c-3.4,2.3-6,6.1-6,9.9c0,4.4,2.1,7.1,4.9,8.9v0.4C525.6,197,523,200.5,523,204.8 M535.8,202.4
		c0-1.9,1-3.5,2.9-5.2c1.7,0.4,3.8,0.6,7.4,0.6h5.4c5.2,0,8.1,0.8,8.1,4.1c0,3.6-5.1,6.5-12.1,6.5S535.8,206.3,535.8,202.4
		 M486.1,195.8h15.6v-30.6c2.8-7.1,7.7-9.7,11.6-9.7c2.2,0,3.8,0.3,5.7,0.8l2.5-13.5c-1.5-0.6-3.3-1.1-6.3-1.1
		c-5.4,0-11.2,3.4-15,10.5h-0.4l-1.1-9.2h-12.7L486.1,195.8L486.1,195.8z M441.2,169.5c0-9.1,3.2-15,9.7-15c6.4,0,9.7,5.8,9.7,15
		s-3.3,15-9.7,15C444.4,184.4,441.2,178.6,441.2,169.5 M425.2,169.5c0,17.5,12.3,27.6,25.7,27.6c13.3,0,25.6-10.1,25.6-27.6
		s-12.3-27.6-25.6-27.6C437.5,141.8,425.2,151.9,425.2,169.5 M377.6,189.7c5.3,4.4,13.3,7.3,20.2,7.3c14.1,0,21.7-7.4,21.7-17
		c0-9.7-7.5-13.4-14.2-15.8c-5.4-2-10.3-3.3-10.3-6.7c0-2.7,1.9-4.1,6-4.1c3.7,0,7.3,1.7,11.2,4.5l7-9.3c-4.6-3.4-10.5-6.7-18.6-6.7
		c-12.2,0-20.2,6.7-20.2,16.5c0,8.7,7.5,13.1,13.9,15.5c5.4,2.1,10.7,3.7,10.7,7.2c0,2.8-2,4.5-6.7,4.5c-4.5,0-8.8-1.9-13.6-5.5
		L377.6,189.7z M342.2,195.8h15.6v-30.6c2.8-7.1,7.7-9.7,11.6-9.7c2.2,0,3.8,0.3,5.7,0.8l2.5-13.5c-1.5-0.6-3.3-1.1-6.3-1.1
		c-5.4,0-11.2,3.4-15,10.5H356l-1.1-9.2h-12.7L342.2,195.8L342.2,195.8z M297.2,169.5c0-9.1,3.2-15,9.7-15c6.4,0,9.7,5.8,9.7,15
		s-3.3,15-9.7,15C300.4,184.4,297.2,178.6,297.2,169.5 M281.2,169.5c0,17.5,12.3,27.6,25.7,27.6c13.3,0,25.6-10.1,25.6-27.6
		s-12.3-27.6-25.6-27.6C293.5,141.8,281.2,151.9,281.2,169.5 M242.8,195.8h18.1l17.2-52.7h-15l-6.9,24.8c-1.4,5.2-2.8,10.7-4,16.2
		h-0.4c-1.4-5.5-2.8-11-4.1-16.2l-6.8-24.8H225L242.8,195.8z M184.1,169.2c0-10,4.5-14.6,9.4-14.6c2.9,0,6,0.8,8.7,3.4v21.6
		c-2.5,3.5-5.2,4.8-8.6,4.8C187.6,184.3,184.1,179.7,184.1,169.2 M168.1,169.5c0,17.2,8.5,27.6,21.6,27.6c5.1,0,10.3-2.8,14-6.5h0.4
		l1.1,5.2h12.7l0-97h-15.6l0,40.5l0.6,8.1c-3.6-3.4-7.1-5.5-13-5.5C178.8,141.8,168.1,152.2,168.1,169.5 M141.6,179.4
		c0,10.6,3.6,17.6,14.3,17.6c3.5,0,6.2-0.5,7.9-1.3l-1.9-11.6c-0.8,0.2-1.3,0.2-1.9,0.2c-1.3,0-2.8-1.1-2.8-4.4l0-69.9h-15.7
		L141.6,179.4z M96.6,169.5c0-9.1,3.2-15,9.7-15c6.4,0,9.7,5.8,9.7,15s-3.3,15-9.7,15C99.8,184.4,96.6,178.6,96.6,169.5 M80.6,169.5
		c0,17.5,12.3,27.6,25.7,27.6c13.3,0,25.6-10.1,25.6-27.6s-12.3-27.6-25.6-27.6C92.9,141.8,80.6,151.9,80.6,169.5 M49.9,169.7
		c-4.1,0-7.2-3-7.2-8.8c0-5.6,3.1-8.5,7.2-8.5s7.2,3,7.2,8.5C57.1,166.7,54,169.7,49.9,169.7 M26.6,204.8c0,9.3,9.8,13.4,22.1,13.4
		c18.1,0,29.4-8,29.4-18.9c0-9.4-7.1-13.4-20.1-13.4h-8.5c-5.8,0-8-1.3-8-3.9c0-1.8,0.5-2.8,1.9-3.9c2.3,0.8,4.5,1.1,6.4,1.1
		c11.6,0,20.7-5.6,20.7-17.7c0-2.8-0.8-5.3-1.7-6.9h8.4v-11.4H58.1c-2.3-0.8-5.2-1.3-8.2-1.3c-11.4,0-21.8,6.4-21.8,19
		c0,6.2,3.4,11.2,7.1,13.7v0.4c-3.4,2.3-6,6.1-6,9.9c0,4.4,2.1,7.1,4.9,8.9v0.4C29.3,197,26.6,200.5,26.6,204.8 M39.5,202.4
		c0-1.9,1-3.5,2.9-5.2c1.7,0.4,3.8,0.6,7.4,0.6h5.4c5.2,0,8.1,0.8,8.1,4.1c0,3.6-5.1,6.5-12.1,6.5S39.5,206.3,39.5,202.4"/>
	<g class="st0">
		<path d="M260.6,204c1.4,0.4,2.2,0.6,2.4,0.6c0.5,0,0.9-0.1,1.1-0.3c0.2-0.2,0.4-0.5,0.6-0.9h0.8l0.3,7.7h-0.8
			c-0.8-1.8-1.5-3.1-2.3-4c-1.4-1.5-3.3-2.3-5.6-2.3c-2.3,0-4.4,0.9-6.2,2.7c-1.8,1.8-2.7,4.7-2.7,8.8c0,3.4,0.9,6,2.7,7.9
			c1.8,1.9,4,2.8,6.6,2.8c0.4,0,1,0,1.6-0.1c0.6-0.1,1.2-0.2,1.7-0.4c0.9-0.3,1.4-0.5,1.6-0.7c0.2-0.2,0.3-0.5,0.3-0.9v-5.8
			c0-1.4-0.2-2.3-0.6-2.6s-1.3-0.6-2.6-0.6v-0.7h9.3v0.7c-0.9,0.1-1.5,0.2-1.8,0.4c-0.5,0.4-0.8,1.2-0.8,2.4v7.2
			c0,0.4-1.1,1-3.2,1.7s-4.1,1.1-6.1,1.1c-3.6,0-6.6-1-9-3.1c-2.7-2.3-4.1-5.4-4.1-9.3c0-3.4,1.1-6.3,3.2-8.8c2.4-2.7,5.5-4,9.4-4
			C257.8,203.4,259.2,203.6,260.6,204z"/>
		<path d="M279.6,203.8v0.6c-0.9,0-1.5,0.1-1.9,0.2c-0.6,0.2-0.9,0.6-0.9,1.2c0,0.3,0.1,0.7,0.3,1.3c0.2,0.5,0.6,1.4,1.2,2.7
			l5.7,12.7l5.2-13.8c0.2-0.6,0.4-1.1,0.5-1.6c0.1-0.4,0.2-0.8,0.2-1c0-0.7-0.3-1.2-0.9-1.5c-0.4-0.1-0.9-0.2-1.8-0.3v-0.6h7.5v0.6
			c-0.8,0.1-1.3,0.3-1.7,0.6c-0.6,0.5-1.1,1.4-1.7,2.8l-8.1,20.6h-0.6l-9.1-20.1c-0.8-1.7-1.4-2.8-1.8-3.2c-0.5-0.4-1.1-0.7-2-0.7
			v-0.6H279.6z"/>
	</g>
	<g class="st0">
		<path d="M296.6,220.7c0.6,1.6,1.3,3,2.2,3.9c1.5,1.7,3.3,2.6,5.4,2.6c1.2,0,2.2-0.4,3-1.1c0.9-0.7,1.3-1.8,1.3-3.1
			c0-1.2-0.4-2.2-1.3-3.1c-0.6-0.6-1.7-1.4-3.5-2.5l-3.1-1.9c-0.9-0.6-1.7-1.2-2.3-1.8c-1-1.2-1.6-2.4-1.6-3.8
			c0-1.8,0.6-3.4,1.8-4.6s2.9-1.8,4.9-1.8c0.8,0,1.8,0.2,3,0.6s1.8,0.6,2,0.6c0.5,0,0.8-0.1,0.9-0.3c0.2-0.2,0.3-0.5,0.4-0.9h0.8
			l0.8,7.8h-0.9c-0.6-2.3-1.6-4-2.9-4.9c-1.3-0.9-2.6-1.4-3.9-1.4c-1,0-1.9,0.3-2.6,0.9c-0.7,0.6-1.1,1.4-1.1,2.5
			c0,0.9,0.3,1.7,0.9,2.4c0.6,0.7,1.5,1.4,2.7,2.1l3.2,2c2,1.2,3.4,2.4,4.3,3.4c0.8,1,1.2,2.3,1.2,3.7c0,1.9-0.7,3.5-2.2,4.8
			c-1.4,1.3-3.3,1.9-5.6,1.9c-1.1,0-2.3-0.2-3.5-0.6c-1.2-0.4-1.9-0.6-2.1-0.6c-0.4,0-0.7,0.1-0.9,0.4c-0.1,0.3-0.2,0.5-0.3,0.8
			h-0.8l-1.1-7.8H296.6z"/>
	</g>
	<g class="st0">
		<path d="M324.6,225H323v-14.4h1.8v5.1c0.7-0.9,1.7-1.4,2.9-1.4c0.6,0,1.3,0.1,1.8,0.4c0.6,0.3,1,0.6,1.4,1.1
			c0.4,0.5,0.7,1,0.9,1.7c0.2,0.7,0.3,1.4,0.3,2.1c0,1.8-0.4,3.2-1.3,4.1c-0.9,1-1.9,1.5-3.2,1.5c-1.2,0-2.2-0.5-2.9-1.5V225z
			 M324.6,219.7c0,1.3,0.2,2.2,0.5,2.7c0.6,0.9,1.3,1.4,2.3,1.4c0.8,0,1.4-0.3,2-1c0.6-0.7,0.8-1.7,0.8-3c0-1.4-0.3-2.4-0.8-3
			c-0.5-0.7-1.2-1-2-1c-0.8,0-1.4,0.3-2,1C324.9,217.5,324.6,218.5,324.6,219.7z"/>
	</g>
	<g class="st0">
		<path d="M341.3,225v-1.5c-0.8,1.2-1.9,1.8-3.3,1.8c-0.6,0-1.2-0.1-1.7-0.4c-0.5-0.2-0.9-0.5-1.2-0.9c-0.3-0.4-0.4-0.8-0.5-1.3
			c-0.1-0.3-0.1-0.9-0.1-1.7v-6.5h1.8v5.8c0,0.9,0,1.5,0.1,1.9c0.1,0.5,0.3,0.8,0.7,1.1c0.4,0.3,0.8,0.4,1.3,0.4s1-0.1,1.5-0.4
			c0.5-0.3,0.8-0.6,1-1.1c0.2-0.5,0.3-1.1,0.3-2v-5.6h1.8V225H341.3z"/>
		<path d="M345.6,225v-14.4h1.8V225H345.6z"/>
		<path d="M350.1,225v-14.4h1.8V225H350.1z"/>
		<path d="M354.6,212.7v-2h1.8v2H354.6z M354.6,225v-10.4h1.8V225H354.6z"/>
		<path d="M358.4,219.8c0-1.9,0.5-3.4,1.6-4.3c0.9-0.8,2-1.2,3.3-1.2c1.4,0,2.6,0.5,3.5,1.4c0.9,0.9,1.4,2.2,1.4,3.9
			c0,1.3-0.2,2.4-0.6,3.2c-0.4,0.8-1,1.4-1.8,1.8c-0.8,0.4-1.6,0.6-2.5,0.6c-1.5,0-2.6-0.5-3.5-1.4
			C358.8,222.9,358.4,221.6,358.4,219.8z M360.2,219.8c0,1.3,0.3,2.3,0.9,3c0.6,0.7,1.3,1,2.2,1c0.9,0,1.6-0.3,2.2-1
			c0.6-0.7,0.9-1.7,0.9-3.1c0-1.3-0.3-2.3-0.9-2.9c-0.6-0.7-1.3-1-2.2-1c-0.9,0-1.6,0.3-2.2,1C360.5,217.5,360.2,218.5,360.2,219.8z
			"/>
		<path d="M370.2,225v-10.4h1.6v1.5c0.8-1.1,1.9-1.7,3.3-1.7c0.6,0,1.2,0.1,1.7,0.3c0.5,0.2,0.9,0.5,1.2,0.9
			c0.3,0.4,0.4,0.8,0.6,1.3c0.1,0.3,0.1,0.9,0.1,1.7v6.4H377v-6.4c0-0.7-0.1-1.3-0.2-1.6c-0.1-0.4-0.4-0.6-0.7-0.9
			c-0.4-0.2-0.8-0.3-1.2-0.3c-0.8,0-1.4,0.2-2,0.7c-0.5,0.5-0.8,1.4-0.8,2.7v5.7H370.2z"/>
	</g>
	<g class="st0">
		<path d="M389.4,225.9l1.7,0.3c0.1,0.5,0.3,0.9,0.6,1.2c0.4,0.3,1,0.5,1.8,0.5c0.8,0,1.5-0.2,1.9-0.5c0.4-0.3,0.7-0.8,0.9-1.4
			c0.1-0.4,0.1-1.1,0.1-2.3c-0.8,0.9-1.7,1.4-2.9,1.4c-1.4,0-2.5-0.5-3.3-1.6c-0.8-1-1.2-2.3-1.2-3.7c0-1,0.2-1.9,0.5-2.8
			c0.4-0.8,0.9-1.5,1.6-2c0.7-0.5,1.5-0.7,2.4-0.7c1.2,0,2.2,0.5,3,1.5v-1.3h1.6v9c0,1.6-0.2,2.8-0.5,3.5c-0.3,0.7-0.9,1.2-1.6,1.6
			c-0.7,0.4-1.6,0.6-2.6,0.6c-1.2,0-2.3-0.3-3-0.8C389.8,227.9,389.4,227,389.4,225.9z M390.9,219.6c0,1.4,0.3,2.4,0.8,3
			c0.5,0.6,1.2,0.9,2,0.9c0.8,0,1.5-0.3,2-0.9s0.8-1.6,0.8-2.9c0-1.3-0.3-2.2-0.9-2.9s-1.2-1-2.1-1c-0.8,0-1.5,0.3-2,1
			C391.2,217.4,390.9,218.4,390.9,219.6z"/>
	</g>
	<g class="st0">
		<path d="M401.2,225v-10.4h1.6v1.6c0.4-0.7,0.8-1.2,1.1-1.5c0.3-0.2,0.7-0.4,1.1-0.4c0.6,0,1.2,0.2,1.8,0.6l-0.6,1.6
			c-0.4-0.3-0.9-0.4-1.3-0.4c-0.4,0-0.7,0.1-1,0.3c-0.3,0.2-0.5,0.6-0.7,1c-0.2,0.6-0.3,1.3-0.3,2.1v5.5H401.2z"/>
	</g>
	<g class="st0">
		<path d="M408.1,219.8c0-1.9,0.5-3.4,1.6-4.3c0.9-0.8,2-1.2,3.3-1.2c1.4,0,2.6,0.5,3.5,1.4c0.9,0.9,1.4,2.2,1.4,3.9
			c0,1.3-0.2,2.4-0.6,3.2c-0.4,0.8-1,1.4-1.8,1.8c-0.8,0.4-1.6,0.6-2.5,0.6c-1.5,0-2.6-0.5-3.5-1.4
			C408.5,222.9,408.1,221.6,408.1,219.8z M409.9,219.8c0,1.3,0.3,2.3,0.9,3c0.6,0.7,1.3,1,2.2,1c0.9,0,1.6-0.3,2.2-1
			c0.6-0.7,0.9-1.7,0.9-3.1c0-1.3-0.3-2.3-0.9-2.9c-0.6-0.7-1.3-1-2.2-1c-0.9,0-1.6,0.3-2.2,1C410.2,217.5,409.9,218.5,409.9,219.8z
			"/>
	</g>
	<g class="st0">
		<path d="M426.8,225v-1.5c-0.8,1.2-1.9,1.8-3.3,1.8c-0.6,0-1.2-0.1-1.7-0.4c-0.5-0.2-0.9-0.5-1.2-0.9c-0.3-0.4-0.4-0.8-0.5-1.3
			c-0.1-0.3-0.1-0.9-0.1-1.7v-6.5h1.8v5.8c0,0.9,0,1.5,0.1,1.9c0.1,0.5,0.3,0.8,0.7,1.1c0.4,0.3,0.8,0.4,1.3,0.4s1-0.1,1.5-0.4
			c0.5-0.3,0.8-0.6,1-1.1c0.2-0.5,0.3-1.1,0.3-2v-5.6h1.8V225H426.8z"/>
	</g>
	<g class="st0">
		<path d="M431.6,229v-14.4h1.6v1.4c0.4-0.5,0.8-0.9,1.3-1.2c0.5-0.3,1.1-0.4,1.7-0.4c0.9,0,1.7,0.2,2.4,0.7
			c0.7,0.5,1.2,1.1,1.5,1.9c0.3,0.8,0.5,1.8,0.5,2.7c0,1.1-0.2,2-0.6,2.9c-0.4,0.9-0.9,1.5-1.7,2c-0.7,0.5-1.5,0.7-2.3,0.7
			c-0.6,0-1.1-0.1-1.6-0.4c-0.5-0.2-0.9-0.6-1.2-0.9v5.1H431.6z M433.2,219.9c0,1.3,0.3,2.3,0.8,3c0.5,0.6,1.2,1,2,1
			c0.8,0,1.5-0.3,2-1c0.6-0.7,0.8-1.7,0.8-3.1c0-1.3-0.3-2.3-0.8-3c-0.5-0.7-1.2-1-2-1c-0.8,0-1.4,0.4-2,1.1
			C433.5,217.5,433.2,218.5,433.2,219.9z"/>
	</g>
</g>
</svg>
