<?xml version="1.0" encoding="utf-8"?>
<!-- Generator: Adobe Illustrator 26.3.1, SVG Export Plug-In . SVG Version: 6.00 Build 0)  -->
<svg version="1.1" xmlns="http://www.w3.org/2000/svg" xmlns:xlink="http://www.w3.org/1999/xlink" x="0px" y="0px"
	 viewBox="0 0 100 100" style="enable-background:new 0 0 100 100;" xml:space="preserve">
<style type="text/css">
	.st0{fill:#ECECEC;}
	.st1{fill:none;stroke:#000000;stroke-width:2;stroke-linecap:round;stroke-linejoin:round;stroke-miterlimit:10;}
	.st2{fill:none;stroke:#000000;stroke-width:2;stroke-linecap:round;stroke-linejoin:round;}
	.st3{fill:none;stroke:#000000;stroke-width:2;stroke-linecap:round;stroke-miterlimit:10;}
</style>
<g id="BG">
	<path class="st0" d="M90,100H10c-5.52,0-10-4.48-10-10V10C0,4.48,4.48,0,10,0h80c5.52,0,10,4.48,10,10v80
		C100,95.52,95.52,100,90,100z"/>
</g>
<g id="Design">
	<g>
		<path d="M50,50.54c-4.65,0-8.43-3.78-8.43-8.43s3.78-8.43,8.43-8.43c4.65,0,8.43,3.78,8.43,8.43S54.65,50.54,50,50.54z M50,35.68
			c-3.55,0-6.43,2.88-6.43,6.43s2.88,6.43,6.43,6.43c3.54,0,6.43-2.88,6.43-6.43S53.54,35.68,50,35.68z"/>
		<path d="M63.62,67.88c-0.55,0-1-0.45-1-1c0-6.28-5.11-11.38-11.38-11.38h-2.48c-6.28,0-11.38,5.11-11.38,11.38c0,0.55-0.45,1-1,1
			s-1-0.45-1-1c0-7.38,6-13.38,13.38-13.38h2.48c7.38,0,13.38,6.01,13.38,13.38C64.62,67.43,64.17,67.88,63.62,67.88z"/>
	</g>
</g>
<g id="Guides">
</g>
</svg>
