<?xml version="1.0" encoding="utf-8"?>
<!-- Generator: Adobe Illustrator 26.3.1, SVG Export Plug-In . SVG Version: 6.00 Build 0)  -->
<svg version="1.1" xmlns="http://www.w3.org/2000/svg" xmlns:xlink="http://www.w3.org/1999/xlink" x="0px" y="0px"
	 viewBox="0 0 100 100" style="enable-background:new 0 0 100 100;" xml:space="preserve">
<style type="text/css">
	.st0{fill:#ECECEC;}
	.st1{fill:none;stroke:#000000;stroke-width:2;stroke-linecap:round;stroke-linejoin:round;stroke-miterlimit:10;}
	.st2{fill:none;stroke:#000000;stroke-width:2;stroke-linecap:round;stroke-linejoin:round;}
	.st3{fill:none;stroke:#000000;stroke-width:2;stroke-linecap:round;stroke-miterlimit:10;}
</style>
<g id="BG">
	<path class="st0" d="M90,100H10c-5.52,0-10-4.48-10-10V10C0,4.48,4.48,0,10,0h80c5.52,0,10,4.48,10,10v80
		C100,95.52,95.52,100,90,100z"/>
</g>
<g id="Design">
	<g id="Group_16_00000003799290589873587240000016408457547371059863_" transform="translate(-376.72 189.032)">
		<path d="M444.99-137.61h-36.54c-0.55,0-1-0.45-1-1v-3.92c0-0.32,0.15-0.62,0.41-0.8l12.86-9.52c0.44-0.33,1.07-0.24,1.4,0.21
			c0.33,0.44,0.24,1.07-0.21,1.4l-12.45,9.22v2.41h34.54v-2.41l-17.09-12.65c-0.44-0.33-0.54-0.96-0.21-1.4
			c0.33-0.44,0.96-0.54,1.4-0.21l17.49,12.95c0.25,0.19,0.41,0.49,0.41,0.8v3.92C445.99-138.05,445.54-137.61,444.99-137.61z"/>
		<path d="M413.73-119.07c-0.55,0-1-0.45-1-1v-11.51c0-0.55,0.45-1,1-1s1,0.45,1,1v11.51C414.73-119.52,414.28-119.07,413.73-119.07
			z"/>
		<path d="M422.36-119.07c-0.55,0-1-0.45-1-1v-11.51c0-0.55,0.45-1,1-1s1,0.45,1,1v11.51C423.36-119.52,422.92-119.07,422.36-119.07
			z"/>
		<path d="M431-119.07c-0.55,0-1-0.45-1-1v-11.51c0-0.55,0.45-1,1-1s1,0.45,1,1v11.51C432-119.52,431.55-119.07,431-119.07z"/>
		<path d="M439.63-119.07c-0.55,0-1-0.45-1-1v-11.51c0-0.55,0.45-1,1-1s1,0.45,1,1v11.51C440.63-119.52,440.19-119.07,439.63-119.07
			z"/>
	</g>
</g>
<g id="Guides">
</g>
</svg>
