<svg width="48" height="48" viewBox="0 0 48 48" fill="none" xmlns="http://www.w3.org/2000/svg">
<path d="M42 24C42 33.9411 33.9411 42 24 42C14.0589 42 6 33.9411 6 24C6 14.0589 14.0589 6 24 6C33.9411 6 42 14.0589 42 24Z" stroke="white" stroke-width="2" stroke-linecap="round" stroke-linejoin="round"/>
<path d="M30.0031 22.6687C30.6708 23.1138 31.0046 23.3364 31.1209 23.6169C31.2227 23.8622 31.2227 24.1378 31.1209 24.3831C31.0046 24.6636 30.6708 24.8862 30.0031 25.3313L22.4875 30.3417C21.6795 30.8804 21.2754 31.1497 20.9404 31.1297C20.6485 31.1123 20.3789 30.968 20.2025 30.7348C20 30.4671 20 29.9815 20 29.0104V18.9896C20 18.0185 20 17.5329 20.2025 17.2652C20.3789 17.032 20.6485 16.8877 20.9404 16.8703C21.2754 16.8503 21.6795 17.1196 22.4875 17.6583L30.0031 22.6687Z" stroke="white" stroke-width="2" stroke-linecap="round" stroke-linejoin="round"/>
</svg>
