<svg xmlns="http://www.w3.org/2000/svg" xmlns:xlink="http://www.w3.org/1999/xlink" viewBox="0 0 1000 1000" width="1000" height="1000" preserveAspectRatio="xMidYMid meet" style="width: 100%; height: 100%; transform: translate3d(0px, 0px, 0px); content-visibility: visible;"><defs><clipPath id="__lottie_element_484"><rect width="1000" height="1000" x="0" y="0"></rect></clipPath></defs><g clip-path="url(#__lottie_element_484)"><g transform="matrix(1,0,0,1,500,500)" opacity="1" style="display: block;"><g opacity="1" transform="matrix(19.183670043945312,0,0,19.183670043945312,0,20)"><path stroke-linecap="butt" stroke-linejoin="miter" fill-opacity="0" stroke-miterlimit="4" stroke="#5533FF" stroke-opacity="1" stroke-width="2" d=" M-11.380999565124512,4.214000225067139 C-11.380999565124512,4.214000225067139 -11.380999565124512,14.064000129699707 -11.380999565124512,14.064000129699707"></path></g><g opacity="1" transform="matrix(19.183670043945312,0,0,19.183670043945312,0,20)"><path stroke-linecap="butt" stroke-linejoin="miter" fill-opacity="0" stroke-miterlimit="4" stroke="#5533FF" stroke-opacity="1" stroke-width="2" d="M0 0"></path></g><g opacity="1" transform="matrix(19.183670043945312,0,0,19.183670043945312,0,20)"><path stroke-linecap="butt" stroke-linejoin="miter" fill-opacity="0" stroke-miterlimit="4" stroke="#5533FF" stroke-opacity="1" stroke-width="2" d=" M-3.99399995803833,4.214000225067139 C-3.99399995803833,4.214000225067139 -3.99399995803833,14.064000129699707 -3.99399995803833,14.064000129699707"></path></g><g opacity="1" transform="matrix(19.183670043945312,0,0,19.183670043945312,0,20)"><path stroke-linecap="butt" stroke-linejoin="miter" fill-opacity="0" stroke-miterlimit="4" stroke="#5533FF" stroke-opacity="1" stroke-width="2" d="M0 0"></path></g><g opacity="1" transform="matrix(19.183670043945312,0,0,19.183670043945312,0,20)"><path stroke-linecap="butt" stroke-linejoin="miter" fill-opacity="0" stroke-miterlimit="4" stroke="#5533FF" stroke-opacity="1" stroke-width="2" d=" M3.3929998874664307,4.214000225067139 C3.3929998874664307,4.214000225067139 3.3929998874664307,14.064000129699707 3.3929998874664307,14.064000129699707"></path></g><g opacity="1" transform="matrix(19.183670043945312,0,0,19.183670043945312,0,20)"><path stroke-linecap="butt" stroke-linejoin="miter" fill-opacity="0" stroke-miterlimit="4" stroke="#5533FF" stroke-opacity="1" stroke-width="2" d="M0 0"></path></g><g opacity="1" transform="matrix(19.183670043945312,0,0,19.183670043945312,0,20)"><path stroke-linecap="butt" stroke-linejoin="miter" fill-opacity="0" stroke-miterlimit="4" stroke="#5533FF" stroke-opacity="1" stroke-width="2" d=" M10.781000137329102,4.214000225067139 C10.781000137329102,4.214000225067139 10.781000137329102,14.064000129699707 10.781000137329102,14.064000129699707"></path></g><g opacity="1" transform="matrix(19.183670043945312,0,0,19.183670043945312,0,20)"><path stroke-linecap="butt" stroke-linejoin="miter" fill-opacity="0" stroke-miterlimit="4" stroke="#5533FF" stroke-opacity="1" stroke-width="2" d="M0 0"></path></g></g><g transform="matrix(1,0,0,1,500,500)" opacity="1" style="display: block;"><g opacity="1" transform="matrix(19.183670043945312,0,0,19.183670043945312,0,20)"><path stroke-linecap="butt" stroke-linejoin="miter" fill-opacity="0" stroke-miterlimit="4" stroke="#5533FF" stroke-opacity="1" stroke-width="2" d=" M-4.890999794006348,-13.293000221252441 C-4.890999794006348,-13.293000221252441 -15.895999908447266,-5.145999908447266 -15.895999908447266,-5.145999908447266 C-15.895999908447266,-5.145999908447266 -15.895999908447266,-1.7940000295639038 -15.895999908447266,-1.7940000295639038 C-15.895999908447266,-1.7940000295639038 15.361000061035156,-1.7940000295639038 15.361000061035156,-1.7940000295639038 C15.361000061035156,-1.7940000295639038 15.361000061035156,-5.145999908447266 15.361000061035156,-5.145999908447266 C15.361000061035156,-5.145999908447266 0.3959999978542328,-16.225000381469727 0.3959999978542328,-16.225000381469727"></path></g><g opacity="1" transform="matrix(19.183670043945312,0,0,19.183670043945312,0,20)"><path stroke-linecap="butt" stroke-linejoin="miter" fill-opacity="0" stroke-miterlimit="4" stroke="#5533FF" stroke-opacity="1" stroke-width="2" d="M0 0"></path></g></g></g></svg>