<svg xmlns="http://www.w3.org/2000/svg" width="149" height="26" fill="none"><path fill="var(--color-white)" d="M21.034 2.784q-.25.198-.492.407A12.97 12.97 0 0 0 16.07 13a12.97 12.97 0 0 0 4.965 10.216q.252-.198.492-.408A12.97 12.97 0 0 0 26 13a12.97 12.97 0 0 0-4.966-10.216M29.07 0c-2.662 0-5.136.8-7.197 2.173q.16.128.314.26A14 14 0 0 1 27.006 13c0 4.05-1.757 7.903-4.82 10.567q-.153.132-.314.26A12.94 12.94 0 0 0 29.07 26c7.18 0 13-5.82 13-13s-5.82-13-13-13m-9.187 23.567c.102.088.21.174.315.26A12.94 12.94 0 0 1 13 26C5.82 26 0 20.18 0 13S5.82 0 13 0c2.662 0 5.136.8 7.197 2.173q-.16.128-.315.26A14 14 0 0 0 15.063 13c0 4.051 1.757 7.903 4.82 10.567m48.15-10.51c0-1.52.995-2.768 2.623-2.768 1.555 0 2.604 1.194 2.604 2.767 0 1.574-1.049 2.767-2.604 2.767-1.628 0-2.623-1.248-2.623-2.767m7 0V8.733h-1.881v1.048c-.597-.777-1.502-1.266-2.731-1.266-2.424 0-4.323 1.9-4.323 4.54s1.9 4.54 4.323 4.54c1.23 0 2.134-.488 2.73-1.266v1.049h1.882zm63.521 0c0-1.52.995-2.768 2.623-2.768 1.555 0 2.604 1.194 2.604 2.767 0 1.574-1.049 2.767-2.604 2.767-1.628 0-2.623-1.248-2.623-2.767m9.104 3.911v.136h.125a.13.13 0 0 0 .069-.017q.025-.016.025-.051t-.025-.05a.13.13 0 0 0-.069-.018zm.126-.095q.099 0 .152.044a.15.15 0 0 1 .053.119.14.14 0 0 1-.043.104.2.2 0 0 1-.12.05l.167.193h-.131l-.154-.191h-.05v.19h-.109v-.509zm-.032.684a.422.422 0 0 0 .424-.428.423.423 0 0 0-.424-.425.44.44 0 0 0-.305.123.42.42 0 0 0-.124.303.424.424 0 0 0 .429.428m0-.976a.55.55 0 0 1 .395.16.56.56 0 0 1 .163.389.5.5 0 0 1-.044.212.562.562 0 0 1-1.076-.212.542.542 0 0 1 .341-.506.6.6 0 0 1 .221-.043m-2.198-3.525V5.261h-1.881v4.521c-.597-.777-1.502-1.266-2.731-1.266-2.424 0-4.323 1.9-4.323 4.54s1.899 4.54 4.323 4.54c1.229 0 2.134-.488 2.731-1.266v1.049h1.881zM98.363 10.2c1.213 0 1.99.76 2.189 2.098h-4.485c.199-1.248.958-2.098 2.297-2.098m.037-1.683c-2.532 0-4.305 1.845-4.305 4.54 0 2.75 1.845 4.54 4.432 4.54 1.302 0 2.496-.326 3.545-1.212l-.923-1.392c-.723.578-1.646.904-2.514.904-1.212 0-2.315-.56-2.586-2.116h6.421c.018-.235.036-.47.036-.724-.018-2.695-1.682-4.54-4.106-4.54m22.699 4.54c0-1.52.995-2.767 2.623-2.767 1.555 0 2.604 1.194 2.604 2.767 0 1.574-1.049 2.767-2.604 2.767-1.628 0-2.623-1.248-2.623-2.767m7 0V8.734h-1.881v1.048c-.597-.777-1.501-1.266-2.731-1.266-2.424 0-4.323 1.9-4.323 4.54s1.899 4.54 4.323 4.54c1.23 0 2.134-.488 2.731-1.266v1.049h1.881zm-17.617 0c0 2.623 1.827 4.54 4.612 4.54 1.303 0 2.171-.29 3.111-1.03l-.904-1.52c-.706.506-1.447.777-2.261.777-1.501-.018-2.605-1.103-2.605-2.767s1.104-2.749 2.605-2.767c.814 0 1.555.271 2.261.778l.904-1.52c-.94-.741-1.808-1.03-3.111-1.03-2.785 0-4.612 1.917-4.612 4.54m24.237-4.54c-1.086 0-1.791.507-2.279 1.266V8.734h-1.863v8.645h1.881v-4.847c0-1.43.615-2.225 1.845-2.225.379 0 .777.054 1.175.217l.579-1.772c-.416-.163-.959-.236-1.338-.236m-50.39.905c-.905-.597-2.153-.905-3.528-.905-2.188 0-3.599 1.05-3.599 2.768 0 1.41 1.05 2.279 2.984 2.55l.887.127c1.03.144 1.52.415 1.52.904 0 .67-.688 1.049-1.972 1.049-1.303 0-2.243-.416-2.876-.904l-.886 1.465c1.03.76 2.333 1.121 3.744 1.121 2.496 0 3.942-1.176 3.942-2.822 0-1.519-1.139-2.315-3.02-2.586l-.886-.127c-.814-.108-1.465-.27-1.465-.85 0-.633.614-1.012 1.645-1.012 1.104 0 2.171.415 2.695.741zm24.254-.905c-1.085 0-1.791.507-2.279 1.266V8.734h-1.863v8.645h1.881v-4.847c0-1.43.615-2.225 1.845-2.225.38 0 .778.054 1.176.217l.578-1.772c-.416-.163-.958-.236-1.338-.236m-16.043.218h-3.075V6.11h-1.899v2.623h-1.755v1.718h1.755v3.943c0 2.007.778 3.201 3.002 3.201.814 0 1.755-.253 2.352-.67l-.543-1.609c-.56.326-1.176.489-1.664.489-.94 0-1.248-.58-1.248-1.447v-3.907h3.075zm-28.107 8.645v-5.426c0-2.044-1.303-3.418-3.4-3.437-1.104-.018-2.243.326-3.039 1.538-.597-.959-1.538-1.538-2.858-1.538-.922 0-1.827.272-2.532 1.285V8.734h-1.881v8.645h1.9v-4.793c0-1.501.831-2.297 2.115-2.297 1.248 0 1.881.814 1.881 2.279v4.811h1.9v-4.793c0-1.501.867-2.297 2.116-2.297 1.284 0 1.898.814 1.898 2.279v4.811zm-22.77 3.677v-.505h-.132l-.151.347-.152-.347h-.132v.505h.093v-.381l.142.328h.097l.142-.329v.382zm-.835 0v-.419h.17v-.085h-.43v.085h.168v.419z"></path></svg>