<svg xmlns="http://www.w3.org/2000/svg" xmlns:xlink="http://www.w3.org/1999/xlink" viewBox="0 0 2000 2000" width="2000" height="2000" preserveAspectRatio="xMidYMid meet" style="width: 100%; height: 100%; transform: translate3d(0px, 0px, 0px); content-visibility: visible;"><defs><clipPath id="__lottie_element_611"><rect width="2000" height="2000" x="0" y="0"></rect></clipPath><clipPath id="__lottie_element_661"><path d="M0,0 L2000,0 L2000,2000 L0,2000z"></path></clipPath><filter id="__lottie_element_663" x="-50%" y="-50%" width="200%" height="200%"><feGaussianBlur in="SourceAlpha" result="filter_result_0_drop_shadow_1" stdDeviation="62.5"></feGaussianBlur><feOffset dx="28.284271247461902" dy="28.2842712474619" in="filter_result_0_drop_shadow_1" result="filter_result_0_drop_shadow_2"></feOffset><feFlood flood-color="#000000" flood-opacity="0.15" result="filter_result_0_drop_shadow_3"></feFlood><feComposite in="filter_result_0_drop_shadow_3" in2="filter_result_0_drop_shadow_2" operator="in" result="filter_result_0_drop_shadow_4"></feComposite><feMerge result="filter_result_0"><feMergeNode in="filter_result_0_drop_shadow_4"></feMergeNode><feMergeNode in="SourceGraphic"></feMergeNode></feMerge></filter></defs><g clip-path="url(#__lottie_element_611)"><g transform="matrix(6.576000213623047,0,0,6.576000213623047,-1390.081787109375,1618.14404296875)" opacity="1" style="display: block;"><g opacity="1" transform="matrix(1,0,0,1,0,0)"><path fill="rgb(242,242,244)" fill-opacity="1" d=" M297.531005859375,10.58899974822998 C297.531005859375,10.58899974822998 297.531005859375,-198.58900451660156 297.531005859375,-198.58900451660156 C297.531005859375,-204.0679931640625 301.9729919433594,-208.50999450683594 307.4519958496094,-208.50999450683594 C307.4519958496094,-208.50999450683594 419.45599365234375,-208.50999450683594 419.45599365234375,-208.50999450683594 C424.93499755859375,-208.50999450683594 429.37701416015625,-204.0679931640625 429.37701416015625,-198.58900451660156 C429.37701416015625,-198.58900451660156 429.37701416015625,10.58899974822998 429.37701416015625,10.58899974822998 C429.37701416015625,16.06800079345703 424.93499755859375,20.510000228881836 419.45599365234375,20.510000228881836 C419.45599365234375,20.510000228881836 307.4519958496094,20.510000228881836 307.4519958496094,20.510000228881836 C301.9729919433594,20.510000228881836 297.531005859375,16.06800079345703 297.531005859375,10.58899974822998z"></path></g></g><g clip-path="url(#__lottie_element_661)" filter="url(#__lottie_element_663)" transform="matrix(1,0,0,1,0,0)" opacity="1" style="display: block;"><g transform="matrix(6.575999736785889,0,0,6.575999736785889,-1390.080078125,1618.14306640625)" opacity="1" style="display: block;"><g opacity="1" transform="matrix(1,0,0,1,0,0)"><path fill="rgb(255,255,255)" fill-opacity="1" d=" M411.135986328125,-50.39899826049805 C411.135986328125,-50.39899826049805 316.3550109863281,-50.39899826049805 316.3550109863281,-50.39899826049805 C310.8760070800781,-50.39899826049805 306.4330139160156,-54.840999603271484 306.4330139160156,-60.31999969482422 C306.4330139160156,-60.31999969482422 306.4330139160156,-134.51100158691406 306.4330139160156,-134.51100158691406 C306.4330139160156,-139.99000549316406 310.8760070800781,-144.4320068359375 316.3550109863281,-144.4320068359375 C316.3550109863281,-144.4320068359375 411.135986328125,-144.4320068359375 411.135986328125,-144.4320068359375 C416.614990234375,-144.4320068359375 421.0570068359375,-139.99000549316406 421.0570068359375,-134.51100158691406 C421.0570068359375,-134.51100158691406 421.0570068359375,-60.31999969482422 421.0570068359375,-60.31999969482422 C421.0570068359375,-54.840999603271484 416.614990234375,-50.39899826049805 411.135986328125,-50.39899826049805z"></path></g></g></g><g transform="matrix(6.575999736785889,0,0,6.575999736785889,-1390.08251953125,1618.14501953125)" opacity="1" style="display: block;"><g opacity="1" transform="matrix(1,0,0,1,0,0)"><g opacity="1" transform="matrix(1,0,0,1,0,0)"><path stroke-linecap="butt" stroke-linejoin="miter" fill-opacity="0" stroke-miterlimit="10" stroke="#5533FF" stroke-opacity="1" stroke-width="1.81" d=" M375.7969970703125,-117.01899719238281 C375.7969970703125,-117.01899719238281 348.35101318359375,-117.01899719238281 348.35101318359375,-117.01899719238281 C342.3699951171875,-117.01899719238281 337.5220031738281,-121.86699676513672 337.5220031738281,-127.8479995727539 C337.5220031738281,-133.82899475097656 342.3699951171875,-138.677001953125 348.35101318359375,-138.677001953125 C348.35101318359375,-138.677001953125 378.5570068359375,-138.677001953125 378.5570068359375,-138.677001953125 C384.5379943847656,-138.677001953125 389.385986328125,-143.52499389648438 389.385986328125,-149.50599670410156 C389.385986328125,-155.48699951171875 384.5379943847656,-160.3350067138672 378.5570068359375,-160.3350067138672 C378.5570068359375,-160.3350067138672 350.4880065917969,-160.3350067138672 350.4880065917969,-160.3350067138672"></path></g><g opacity="1" transform="matrix(1,0,0,1,0,0)"><path stroke-linecap="round" stroke-linejoin="round" fill-opacity="0" stroke="#5533FF" stroke-opacity="1" stroke-width="1.81" d=" M367.72900390625,-108.47000122070312 C367.72900390625,-108.47000122070312 370.5790100097656,-111.31999969482422 376.27801513671875,-117.01899719238281 C376.27801513671875,-117.01899719238281 367.72900390625,-125.56900024414062 367.72900390625,-125.56900024414062"></path></g><g opacity="1" transform="matrix(1,0,0,1,0,0)"><path stroke-linecap="round" stroke-linejoin="round" fill-opacity="0" stroke="#5533FF" stroke-opacity="1" stroke-width="1.81" d=" M358.6090087890625,-151.78599548339844 C358.6090087890625,-151.78599548339844 355.7590026855469,-154.63600158691406 350.05999755859375,-160.3350067138672 C350.05999755859375,-160.3350067138672 358.6090087890625,-168.88400268554688 358.6090087890625,-168.88400268554688"></path></g></g></g><g transform="matrix(6.576000213623047,0,0,6.576000213623047,-1390.0853271484375,1618.1419677734375)" opacity="1" style="display: block;"><g opacity="1" transform="matrix(1,0,0,1,0,0)"><g opacity="1" transform="matrix(1,0,0,1,0,0)"><path fill="rgb(255,255,255)" fill-opacity="1" d=" M420.47900390625,-126.8010025024414 C420.47900390625,-126.8010025024414 421.72100830078125,-131.43699645996094 421.72100830078125,-131.43699645996094 C421.72100830078125,-131.43699645996094 418.8630065917969,-132.2030029296875 418.8630065917969,-132.2030029296875 C418.8630065917969,-132.2030029296875 417.635986328125,-127.62200164794922 417.635986328125,-127.62200164794922 C417.635986328125,-127.62200164794922 415.4590148925781,-128.2050018310547 415.4590148925781,-128.2050018310547 C415.4590148925781,-128.2050018310547 416.68701171875,-132.78599548339844 416.68701171875,-132.78599548339844 C416.68701171875,-132.78599548339844 413.8290100097656,-133.552001953125 413.8290100097656,-133.552001953125 C413.8290100097656,-133.552001953125 412.60198974609375,-128.9709930419922 412.60198974609375,-128.9709930419922 C412.60198974609375,-128.9709930419922 406.97900390625,-130.4770050048828 406.97900390625,-130.4770050048828 C406.97900390625,-130.4770050048828 406.1839904785156,-127.51000213623047 406.1839904785156,-127.51000213623047 C406.1839904785156,-127.51000213623047 407.83599853515625,-127.06700134277344 407.83599853515625,-127.06700134277344 C408.2869873046875,-126.94599914550781 409.07501220703125,-126.68199920654297 409.31298828125,-126.20899963378906 C409.552001953125,-125.73699951171875 409.5580139160156,-125.52100372314453 409.3599853515625,-124.77999877929688 C409.3599853515625,-124.77999877929688 406.1910095214844,-112.95500183105469 406.1910095214844,-112.95500183105469 C406.1159973144531,-112.67400360107422 405.968994140625,-112.34100341796875 405.6679992675781,-112.1780014038086 C405.36700439453125,-112.01599884033203 405.1130065917969,-112.0270004272461 404.5379943847656,-112.18099975585938 C404.5379943847656,-112.18099975585938 402.8290100097656,-112.63899993896484 402.8290100097656,-112.63899993896484 C402.8290100097656,-112.63899993896484 401.3219909667969,-109.36299896240234 401.3219909667969,-109.36299896240234 C401.3219909667969,-109.36299896240234 406.9440002441406,-107.85700225830078 406.9440002441406,-107.85700225830078 C406.9440002441406,-107.85700225830078 405.7200012207031,-103.28900146484375 405.7200012207031,-103.28900146484375 C405.7200012207031,-103.28900146484375 408.5780029296875,-102.52300262451172 408.5780029296875,-102.52300262451172 C408.5780029296875,-102.52300262451172 409.802001953125,-107.09100341796875 409.802001953125,-107.09100341796875 C409.802001953125,-107.09100341796875 411.97900390625,-106.50800323486328 411.97900390625,-106.50800323486328 C411.97900390625,-106.50800323486328 410.7550048828125,-101.94000244140625 410.7550048828125,-101.94000244140625 C410.7550048828125,-101.94000244140625 413.6130065917969,-101.17400360107422 413.6130065917969,-101.17400360107422 C413.6130065917969,-101.17400360107422 414.85699462890625,-105.81700134277344 414.85699462890625,-105.81700134277344 C415.60699462890625,-105.66200256347656 416.3110046386719,-105.53399658203125 416.72698974609375,-105.47899627685547 C417.57000732421875,-105.36699676513672 419.47100830078125,-105.08799743652344 421.5159912109375,-105.8280029296875 C423.5610046386719,-106.56800079345703 424.4530029296875,-108.34700012207031 425,-110.23300170898438 C425.54901123046875,-112.11799621582031 425.1730041503906,-113.60700225830078 424.39599609375,-114.60299682617188 C423.6180114746094,-115.5989990234375 422.3080139160156,-116.26499938964844 422.3080139160156,-116.26499938964844 C422.3080139160156,-116.26499938964844 423.6659851074219,-116.63099670410156 424.3290100097656,-117.18399810791016 C424.9930114746094,-117.73600006103516 425.5150146484375,-118.72599792480469 425.7019958496094,-119.26300048828125 C425.8890075683594,-119.80000305175781 426.5979919433594,-122.07099914550781 425.1619873046875,-123.87300109863281 C424.052001953125,-125.26699829101562 422.5740051269531,-126.0979995727539 420.47900390625,-126.8010025024414z M419.3949890136719,-111.53399658203125 C419.0190124511719,-110.13200378417969 418.08099365234375,-109.78199768066406 417.3299865722656,-109.59700012207031 C416.5790100097656,-109.41100311279297 415.1839904785156,-109.44200134277344 413.8909912109375,-109.68800354003906 C412.59698486328125,-109.93499755859375 410.71099853515625,-110.48300170898438 410.71099853515625,-110.48300170898438 C410.71099853515625,-110.48300170898438 412.35400390625,-116.61299896240234 412.35400390625,-116.61299896240234 C412.35400390625,-116.61299896240234 414.1940002441406,-116.22000122070312 415.5849914550781,-115.74700164794922 C416.9750061035156,-115.27400207519531 418.0679931640625,-114.59500122070312 418.5299987792969,-114.18499755859375 C418.9930114746094,-113.7750015258789 419.77099609375,-112.93699645996094 419.3949890136719,-111.53399658203125z M420.45001220703125,-120.5989990234375 C420.1969909667969,-119.55000305175781 419.5559997558594,-118.97699737548828 418.6369934082031,-118.7509994506836 C417.7179870605469,-118.5250015258789 416.5459899902344,-118.58200073242188 415.4930114746094,-118.82099914550781 C414.4410095214844,-119.05999755859375 413.1159973144531,-119.45800018310547 413.1159973144531,-119.45800018310547 C413.1159973144531,-119.45800018310547 414.593994140625,-124.9729995727539 414.593994140625,-124.9729995727539 C414.593994140625,-124.9729995727539 415.52301025390625,-124.80999755859375 416.41400146484375,-124.55699920654297 C417.3059997558594,-124.30400085449219 418.08599853515625,-124.06700134277344 419.1650085449219,-123.39099884033203 C420.2430114746094,-122.71499633789062 420.7019958496094,-121.64800262451172 420.45001220703125,-120.5989990234375z"></path></g><g opacity="1" transform="matrix(1,0,0,1,0,0)"><path fill="rgb(247,147,26)" fill-opacity="1" d=" M414.44500732421875,-141.01199340820312 C401.1940002441406,-141.01199340820312 390.4519958496094,-130.27000427246094 390.4519958496094,-117.01899719238281 C390.4519958496094,-103.76799774169922 401.1940002441406,-93.0270004272461 414.44500732421875,-93.0270004272461 C427.6960144042969,-93.0270004272461 438.43701171875,-103.76799774169922 438.43701171875,-117.01899719238281 C438.43701171875,-130.27000427246094 427.6960144042969,-141.01199340820312 414.44500732421875,-141.01199340820312z M425.7019958496094,-119.26300048828125 C425.5150146484375,-118.72599792480469 424.9930114746094,-117.73600006103516 424.3290100097656,-117.18399810791016 C423.6659851074219,-116.63099670410156 422.3080139160156,-116.26499938964844 422.3080139160156,-116.26499938964844 C422.3080139160156,-116.26499938964844 423.6180114746094,-115.5989990234375 424.39599609375,-114.60299682617188 C425.1730041503906,-113.60700225830078 425.54901123046875,-112.11799621582031 425,-110.23300170898438 C424.4530029296875,-108.34700012207031 423.5610046386719,-106.56800079345703 421.5159912109375,-105.8280029296875 C419.47100830078125,-105.08799743652344 417.57000732421875,-105.36699676513672 416.72698974609375,-105.47899627685547 C416.3110046386719,-105.53399658203125 415.60699462890625,-105.66200256347656 414.85699462890625,-105.81700134277344 C414.85699462890625,-105.81700134277344 413.6130065917969,-101.17400360107422 413.6130065917969,-101.17400360107422 C413.6130065917969,-101.17400360107422 410.7550048828125,-101.94000244140625 410.7550048828125,-101.94000244140625 C410.7550048828125,-101.94000244140625 411.97900390625,-106.50800323486328 411.97900390625,-106.50800323486328 C411.97900390625,-106.50800323486328 409.802001953125,-107.09100341796875 409.802001953125,-107.09100341796875 C409.802001953125,-107.09100341796875 408.5780029296875,-102.52300262451172 408.5780029296875,-102.52300262451172 C408.5780029296875,-102.52300262451172 405.7200012207031,-103.28900146484375 405.7200012207031,-103.28900146484375 C405.7200012207031,-103.28900146484375 406.9440002441406,-107.85700225830078 406.9440002441406,-107.85700225830078 C406.9440002441406,-107.85700225830078 401.3219909667969,-109.36299896240234 401.3219909667969,-109.36299896240234 C401.3219909667969,-109.36299896240234 402.8290100097656,-112.63899993896484 402.8290100097656,-112.63899993896484 C402.8290100097656,-112.63899993896484 404.5379943847656,-112.18099975585938 404.5379943847656,-112.18099975585938 C405.1130065917969,-112.0270004272461 405.36700439453125,-112.01599884033203 405.6679992675781,-112.1780014038086 C405.968994140625,-112.34100341796875 406.1159973144531,-112.67400360107422 406.1910095214844,-112.95500183105469 C406.1910095214844,-112.95500183105469 409.3599853515625,-124.77999877929688 409.3599853515625,-124.77999877929688 C409.5580139160156,-125.52100372314453 409.552001953125,-125.73699951171875 409.31298828125,-126.20899963378906 C409.07501220703125,-126.68199920654297 408.2869873046875,-126.94599914550781 407.83599853515625,-127.06700134277344 C407.83599853515625,-127.06700134277344 406.1839904785156,-127.51000213623047 406.1839904785156,-127.51000213623047 C406.1839904785156,-127.51000213623047 406.97900390625,-130.4770050048828 406.97900390625,-130.4770050048828 C406.97900390625,-130.4770050048828 412.60198974609375,-128.9709930419922 412.60198974609375,-128.9709930419922 C412.60198974609375,-128.9709930419922 413.8290100097656,-133.552001953125 413.8290100097656,-133.552001953125 C413.8290100097656,-133.552001953125 416.68701171875,-132.78599548339844 416.68701171875,-132.78599548339844 C416.68701171875,-132.78599548339844 415.4590148925781,-128.2050018310547 415.4590148925781,-128.2050018310547 C415.4590148925781,-128.2050018310547 417.635986328125,-127.62200164794922 417.635986328125,-127.62200164794922 C417.635986328125,-127.62200164794922 418.8630065917969,-132.2030029296875 418.8630065917969,-132.2030029296875 C418.8630065917969,-132.2030029296875 421.72100830078125,-131.43699645996094 421.72100830078125,-131.43699645996094 C421.72100830078125,-131.43699645996094 420.47900390625,-126.8010025024414 420.47900390625,-126.8010025024414 C422.5740051269531,-126.0979995727539 424.052001953125,-125.26699829101562 425.1619873046875,-123.87300109863281 C426.5979919433594,-122.07099914550781 425.8890075683594,-119.80000305175781 425.7019958496094,-119.26300048828125z"></path></g><g opacity="1" transform="matrix(1,0,0,1,0,0)"><path fill="rgb(247,147,26)" fill-opacity="1" d=" M419.1650085449219,-123.39099884033203 C418.08599853515625,-124.06700134277344 417.3059997558594,-124.30400085449219 416.41400146484375,-124.55699920654297 C415.52301025390625,-124.80999755859375 414.593994140625,-124.9729995727539 414.593994140625,-124.9729995727539 C414.593994140625,-124.9729995727539 413.1159973144531,-119.45800018310547 413.1159973144531,-119.45800018310547 C413.1159973144531,-119.45800018310547 414.4410095214844,-119.05999755859375 415.4930114746094,-118.82099914550781 C416.5459899902344,-118.58200073242188 417.7179870605469,-118.5250015258789 418.6369934082031,-118.7509994506836 C419.5559997558594,-118.97699737548828 420.1969909667969,-119.55000305175781 420.45001220703125,-120.5989990234375 C420.7019958496094,-121.64800262451172 420.2430114746094,-122.71499633789062 419.1650085449219,-123.39099884033203z"></path></g><g opacity="1" transform="matrix(1,0,0,1,0,0)"><path fill="rgb(247,147,26)" fill-opacity="1" d=" M418.5299987792969,-114.18499755859375 C418.0679931640625,-114.59500122070312 416.9750061035156,-115.27400207519531 415.5849914550781,-115.74700164794922 C414.1940002441406,-116.22000122070312 412.35400390625,-116.61299896240234 412.35400390625,-116.61299896240234 C412.35400390625,-116.61299896240234 410.71099853515625,-110.48300170898438 410.71099853515625,-110.48300170898438 C410.71099853515625,-110.48300170898438 412.59698486328125,-109.93499755859375 413.8909912109375,-109.68800354003906 C415.1839904785156,-109.44200134277344 416.5790100097656,-109.41100311279297 417.3299865722656,-109.59700012207031 C418.08099365234375,-109.78199768066406 419.0190124511719,-110.13200378417969 419.3949890136719,-111.53399658203125 C419.77099609375,-112.93699645996094 418.9930114746094,-113.7750015258789 418.5299987792969,-114.18499755859375z"></path></g></g></g><g transform="matrix(6.576000213623047,0,0,6.576000213623047,-1390.08154296875,1618.14697265625)" opacity="1" style="display: block;"><g opacity="1" transform="matrix(1,0,0,1,0,0)"><g opacity="1" transform="matrix(1,0,0,1,0,0)"><g opacity="1" transform="matrix(1,0,0,1,0,0)"><path fill="rgb(182,142,70)" fill-opacity="1" d=" M312.46600341796875,-136.3419952392578 C299.2149963378906,-136.3419952392578 288.4729919433594,-147.08399963378906 288.4729919433594,-160.3350067138672 C288.4729919433594,-173.58599853515625 299.2149963378906,-184.32699584960938 312.46600341796875,-184.32699584960938 C325.7170104980469,-184.32699584960938 336.4590148925781,-173.58599853515625 336.4590148925781,-160.3350067138672 C336.4590148925781,-147.08399963378906 325.7170104980469,-136.3419952392578 312.46600341796875,-136.3419952392578z"></path></g><g opacity="1" transform="matrix(1,0,0,1,0,0)"><path fill="rgb(255,255,255)" fill-opacity="1" d=" M301.135986328125,-160.3350067138672 C300.58099365234375,-160.3350067138672 300.0840148925781,-159.99000549316406 299.8890075683594,-159.47000122070312 C299.8890075683594,-159.47000122070312 297.8890075683594,-154.13800048828125 297.8890075683594,-154.13800048828125 C297.7359924316406,-153.72900390625 297.7929992675781,-153.27000427246094 298.0419921875,-152.91099548339844 C298.2909851074219,-152.552001953125 298.70001220703125,-152.33700561523438 299.1369934082031,-152.33700561523438 C299.1369934082031,-152.33700561523438 309.79998779296875,-152.33700561523438 309.79998779296875,-152.33700561523438 C310.23699951171875,-152.33700561523438 310.64599609375,-152.552001953125 310.8949890136719,-152.91099548339844 C311.1440124511719,-153.27000427246094 311.20098876953125,-153.72900390625 311.0480041503906,-154.13800048828125 C311.0480041503906,-154.13800048828125 309.0480041503906,-159.47000122070312 309.0480041503906,-159.47000122070312 C308.8529968261719,-159.99000549316406 308.3559875488281,-160.3350067138672 307.8009948730469,-160.3350067138672 C307.8009948730469,-160.3350067138672 301.135986328125,-160.3350067138672 301.135986328125,-160.3350067138672z"></path></g><g opacity="1" transform="matrix(1,0,0,1,0,0)"><path fill="rgb(255,255,255)" fill-opacity="1" d=" M317.1310119628906,-160.3350067138672 C316.57598876953125,-160.3350067138672 316.0790100097656,-159.99000549316406 315.8840026855469,-159.47000122070312 C315.8840026855469,-159.47000122070312 313.8840026855469,-154.13800048828125 313.8840026855469,-154.13800048828125 C313.7309875488281,-153.72900390625 313.7879943847656,-153.27000427246094 314.0369873046875,-152.91099548339844 C314.2860107421875,-152.552001953125 314.69500732421875,-152.33700561523438 315.1319885253906,-152.33700561523438 C315.1319885253906,-152.33700561523438 325.7950134277344,-152.33700561523438 325.7950134277344,-152.33700561523438 C326.23199462890625,-152.33700561523438 326.6409912109375,-152.552001953125 326.8900146484375,-152.91099548339844 C327.1390075683594,-153.27000427246094 327.1960144042969,-153.72900390625 327.0429992675781,-154.13800048828125 C327.0429992675781,-154.13800048828125 325.04400634765625,-159.47000122070312 325.04400634765625,-159.47000122070312 C324.8489990234375,-159.99000549316406 324.35101318359375,-160.3350067138672 323.7959899902344,-160.3350067138672 C323.7959899902344,-160.3350067138672 317.1310119628906,-160.3350067138672 317.1310119628906,-160.3350067138672z"></path></g><g opacity="1" transform="matrix(1,0,0,1,0,0)"><path fill="rgb(255,255,255)" fill-opacity="1" d=" M309.1340026855469,-170.9980010986328 C308.5790100097656,-170.9980010986328 308.08099365234375,-170.6529998779297 307.885986328125,-170.13299560546875 C307.885986328125,-170.13299560546875 305.8869934082031,-164.80099487304688 305.8869934082031,-164.80099487304688 C305.7340087890625,-164.39199829101562 305.7900085449219,-163.93299865722656 306.03900146484375,-163.57400512695312 C306.2879943847656,-163.21499633789062 306.6969909667969,-163.00100708007812 307.1340026855469,-163.00100708007812 C307.1340026855469,-163.00100708007812 317.7980041503906,-163.00100708007812 317.7980041503906,-163.00100708007812 C318.2349853515625,-163.00100708007812 318.6440124511719,-163.21499633789062 318.89300537109375,-163.57400512695312 C319.1419982910156,-163.93299865722656 319.197998046875,-164.39199829101562 319.0450134277344,-164.80099487304688 C319.0450134277344,-164.80099487304688 317.0459899902344,-170.13299560546875 317.0459899902344,-170.13299560546875 C316.85101318359375,-170.6529998779297 316.3529968261719,-170.9980010986328 315.7980041503906,-170.9980010986328 C315.7980041503906,-170.9980010986328 309.1340026855469,-170.9980010986328 309.1340026855469,-170.9980010986328z"></path></g></g></g></g><g style="display: none;" transform="matrix(-3.206239938735962,-5.482264518737793,5.482264518737793,-3.206239938735962,2635.0341796875,2460.690185546875)" opacity="1"><g opacity="1" transform="matrix(1,0,0,1,0,0)"><g opacity="1" transform="matrix(1,0,0,1,0,0)"><path fill="rgb(255,255,255)" fill-opacity="1" d=" M420.47900390625,-126.8010025024414 C420.47900390625,-126.8010025024414 421.72100830078125,-131.43699645996094 421.72100830078125,-131.43699645996094 C421.72100830078125,-131.43699645996094 418.8630065917969,-132.2030029296875 418.8630065917969,-132.2030029296875 C418.8630065917969,-132.2030029296875 417.635986328125,-127.62200164794922 417.635986328125,-127.62200164794922 C417.635986328125,-127.62200164794922 415.4590148925781,-128.2050018310547 415.4590148925781,-128.2050018310547 C415.4590148925781,-128.2050018310547 416.68701171875,-132.78599548339844 416.68701171875,-132.78599548339844 C416.68701171875,-132.78599548339844 413.8290100097656,-133.552001953125 413.8290100097656,-133.552001953125 C413.8290100097656,-133.552001953125 412.60198974609375,-128.9709930419922 412.60198974609375,-128.9709930419922 C412.60198974609375,-128.9709930419922 406.97900390625,-130.4770050048828 406.97900390625,-130.4770050048828 C406.97900390625,-130.4770050048828 406.1839904785156,-127.51000213623047 406.1839904785156,-127.51000213623047 C406.1839904785156,-127.51000213623047 407.83599853515625,-127.06700134277344 407.83599853515625,-127.06700134277344 C408.2869873046875,-126.94599914550781 409.07501220703125,-126.68199920654297 409.31298828125,-126.20899963378906 C409.552001953125,-125.73699951171875 409.5580139160156,-125.52100372314453 409.3599853515625,-124.77999877929688 C409.3599853515625,-124.77999877929688 406.1910095214844,-112.95500183105469 406.1910095214844,-112.95500183105469 C406.1159973144531,-112.67400360107422 405.968994140625,-112.34100341796875 405.6679992675781,-112.1780014038086 C405.36700439453125,-112.01599884033203 405.1130065917969,-112.0270004272461 404.5379943847656,-112.18099975585938 C404.5379943847656,-112.18099975585938 402.8290100097656,-112.63899993896484 402.8290100097656,-112.63899993896484 C402.8290100097656,-112.63899993896484 401.3219909667969,-109.36299896240234 401.3219909667969,-109.36299896240234 C401.3219909667969,-109.36299896240234 406.9440002441406,-107.85700225830078 406.9440002441406,-107.85700225830078 C406.9440002441406,-107.85700225830078 405.7200012207031,-103.28900146484375 405.7200012207031,-103.28900146484375 C405.7200012207031,-103.28900146484375 408.5780029296875,-102.52300262451172 408.5780029296875,-102.52300262451172 C408.5780029296875,-102.52300262451172 409.802001953125,-107.09100341796875 409.802001953125,-107.09100341796875 C409.802001953125,-107.09100341796875 411.97900390625,-106.50800323486328 411.97900390625,-106.50800323486328 C411.97900390625,-106.50800323486328 410.7550048828125,-101.94000244140625 410.7550048828125,-101.94000244140625 C410.7550048828125,-101.94000244140625 413.6130065917969,-101.17400360107422 413.6130065917969,-101.17400360107422 C413.6130065917969,-101.17400360107422 414.85699462890625,-105.81700134277344 414.85699462890625,-105.81700134277344 C415.60699462890625,-105.66200256347656 416.3110046386719,-105.53399658203125 416.72698974609375,-105.47899627685547 C417.57000732421875,-105.36699676513672 419.47100830078125,-105.08799743652344 421.5159912109375,-105.8280029296875 C423.5610046386719,-106.56800079345703 424.4530029296875,-108.34700012207031 425,-110.23300170898438 C425.54901123046875,-112.11799621582031 425.1730041503906,-113.60700225830078 424.39599609375,-114.60299682617188 C423.6180114746094,-115.5989990234375 422.3080139160156,-116.26499938964844 422.3080139160156,-116.26499938964844 C422.3080139160156,-116.26499938964844 423.6659851074219,-116.63099670410156 424.3290100097656,-117.18399810791016 C424.9930114746094,-117.73600006103516 425.5150146484375,-118.72599792480469 425.7019958496094,-119.26300048828125 C425.8890075683594,-119.80000305175781 426.5979919433594,-122.07099914550781 425.1619873046875,-123.87300109863281 C424.052001953125,-125.26699829101562 422.5740051269531,-126.0979995727539 420.47900390625,-126.8010025024414z M419.3949890136719,-111.53399658203125 C419.0190124511719,-110.13200378417969 418.08099365234375,-109.78199768066406 417.3299865722656,-109.59700012207031 C416.5790100097656,-109.41100311279297 415.1839904785156,-109.44200134277344 413.8909912109375,-109.68800354003906 C412.59698486328125,-109.93499755859375 410.71099853515625,-110.48300170898438 410.71099853515625,-110.48300170898438 C410.71099853515625,-110.48300170898438 412.35400390625,-116.61299896240234 412.35400390625,-116.61299896240234 C412.35400390625,-116.61299896240234 414.1940002441406,-116.22000122070312 415.5849914550781,-115.74700164794922 C416.9750061035156,-115.27400207519531 418.0679931640625,-114.59500122070312 418.5299987792969,-114.18499755859375 C418.9930114746094,-113.7750015258789 419.77099609375,-112.93699645996094 419.3949890136719,-111.53399658203125z M420.45001220703125,-120.5989990234375 C420.1969909667969,-119.55000305175781 419.5559997558594,-118.97699737548828 418.6369934082031,-118.7509994506836 C417.7179870605469,-118.5250015258789 416.5459899902344,-118.58200073242188 415.4930114746094,-118.82099914550781 C414.4410095214844,-119.05999755859375 413.1159973144531,-119.45800018310547 413.1159973144531,-119.45800018310547 C413.1159973144531,-119.45800018310547 414.593994140625,-124.9729995727539 414.593994140625,-124.9729995727539 C414.593994140625,-124.9729995727539 415.52301025390625,-124.80999755859375 416.41400146484375,-124.55699920654297 C417.3059997558594,-124.30400085449219 418.08599853515625,-124.06700134277344 419.1650085449219,-123.39099884033203 C420.2430114746094,-122.71499633789062 420.7019958496094,-121.64800262451172 420.45001220703125,-120.5989990234375z"></path></g><g opacity="1" transform="matrix(1,0,0,1,0,0)"><path fill="rgb(247,147,26)" fill-opacity="1" d=" M414.44500732421875,-141.01199340820312 C401.1940002441406,-141.01199340820312 390.4519958496094,-130.27000427246094 390.4519958496094,-117.01899719238281 C390.4519958496094,-103.76799774169922 401.1940002441406,-93.0270004272461 414.44500732421875,-93.0270004272461 C427.6960144042969,-93.0270004272461 438.43701171875,-103.76799774169922 438.43701171875,-117.01899719238281 C438.43701171875,-130.27000427246094 427.6960144042969,-141.01199340820312 414.44500732421875,-141.01199340820312z M425.7019958496094,-119.26300048828125 C425.5150146484375,-118.72599792480469 424.9930114746094,-117.73600006103516 424.3290100097656,-117.18399810791016 C423.6659851074219,-116.63099670410156 422.3080139160156,-116.26499938964844 422.3080139160156,-116.26499938964844 C422.3080139160156,-116.26499938964844 423.6180114746094,-115.5989990234375 424.39599609375,-114.60299682617188 C425.1730041503906,-113.60700225830078 425.54901123046875,-112.11799621582031 425,-110.23300170898438 C424.4530029296875,-108.34700012207031 423.5610046386719,-106.56800079345703 421.5159912109375,-105.8280029296875 C419.47100830078125,-105.08799743652344 417.57000732421875,-105.36699676513672 416.72698974609375,-105.47899627685547 C416.3110046386719,-105.53399658203125 415.60699462890625,-105.66200256347656 414.85699462890625,-105.81700134277344 C414.85699462890625,-105.81700134277344 413.6130065917969,-101.17400360107422 413.6130065917969,-101.17400360107422 C413.6130065917969,-101.17400360107422 410.7550048828125,-101.94000244140625 410.7550048828125,-101.94000244140625 C410.7550048828125,-101.94000244140625 411.97900390625,-106.50800323486328 411.97900390625,-106.50800323486328 C411.97900390625,-106.50800323486328 409.802001953125,-107.09100341796875 409.802001953125,-107.09100341796875 C409.802001953125,-107.09100341796875 408.5780029296875,-102.52300262451172 408.5780029296875,-102.52300262451172 C408.5780029296875,-102.52300262451172 405.7200012207031,-103.28900146484375 405.7200012207031,-103.28900146484375 C405.7200012207031,-103.28900146484375 406.9440002441406,-107.85700225830078 406.9440002441406,-107.85700225830078 C406.9440002441406,-107.85700225830078 401.3219909667969,-109.36299896240234 401.3219909667969,-109.36299896240234 C401.3219909667969,-109.36299896240234 402.8290100097656,-112.63899993896484 402.8290100097656,-112.63899993896484 C402.8290100097656,-112.63899993896484 404.5379943847656,-112.18099975585938 404.5379943847656,-112.18099975585938 C405.1130065917969,-112.0270004272461 405.36700439453125,-112.01599884033203 405.6679992675781,-112.1780014038086 C405.968994140625,-112.34100341796875 406.1159973144531,-112.67400360107422 406.1910095214844,-112.95500183105469 C406.1910095214844,-112.95500183105469 409.3599853515625,-124.77999877929688 409.3599853515625,-124.77999877929688 C409.5580139160156,-125.52100372314453 409.552001953125,-125.73699951171875 409.31298828125,-126.20899963378906 C409.07501220703125,-126.68199920654297 408.2869873046875,-126.94599914550781 407.83599853515625,-127.06700134277344 C407.83599853515625,-127.06700134277344 406.1839904785156,-127.51000213623047 406.1839904785156,-127.51000213623047 C406.1839904785156,-127.51000213623047 406.97900390625,-130.4770050048828 406.97900390625,-130.4770050048828 C406.97900390625,-130.4770050048828 412.60198974609375,-128.9709930419922 412.60198974609375,-128.9709930419922 C412.60198974609375,-128.9709930419922 413.8290100097656,-133.552001953125 413.8290100097656,-133.552001953125 C413.8290100097656,-133.552001953125 416.68701171875,-132.78599548339844 416.68701171875,-132.78599548339844 C416.68701171875,-132.78599548339844 415.4590148925781,-128.2050018310547 415.4590148925781,-128.2050018310547 C415.4590148925781,-128.2050018310547 417.635986328125,-127.62200164794922 417.635986328125,-127.62200164794922 C417.635986328125,-127.62200164794922 418.8630065917969,-132.2030029296875 418.8630065917969,-132.2030029296875 C418.8630065917969,-132.2030029296875 421.72100830078125,-131.43699645996094 421.72100830078125,-131.43699645996094 C421.72100830078125,-131.43699645996094 420.47900390625,-126.8010025024414 420.47900390625,-126.8010025024414 C422.5740051269531,-126.0979995727539 424.052001953125,-125.26699829101562 425.1619873046875,-123.87300109863281 C426.5979919433594,-122.07099914550781 425.8890075683594,-119.80000305175781 425.7019958496094,-119.26300048828125z"></path></g><g opacity="1" transform="matrix(1,0,0,1,0,0)"><path fill="rgb(247,147,26)" fill-opacity="1" d=" M419.1650085449219,-123.39099884033203 C418.08599853515625,-124.06700134277344 417.3059997558594,-124.30400085449219 416.41400146484375,-124.55699920654297 C415.52301025390625,-124.80999755859375 414.593994140625,-124.9729995727539 414.593994140625,-124.9729995727539 C414.593994140625,-124.9729995727539 413.1159973144531,-119.45800018310547 413.1159973144531,-119.45800018310547 C413.1159973144531,-119.45800018310547 414.4410095214844,-119.05999755859375 415.4930114746094,-118.82099914550781 C416.5459899902344,-118.58200073242188 417.7179870605469,-118.5250015258789 418.6369934082031,-118.7509994506836 C419.5559997558594,-118.97699737548828 420.1969909667969,-119.55000305175781 420.45001220703125,-120.5989990234375 C420.7019958496094,-121.64800262451172 420.2430114746094,-122.71499633789062 419.1650085449219,-123.39099884033203z"></path></g><g opacity="1" transform="matrix(1,0,0,1,0,0)"><path fill="rgb(247,147,26)" fill-opacity="1" d=" M418.5299987792969,-114.18499755859375 C418.0679931640625,-114.59500122070312 416.9750061035156,-115.27400207519531 415.5849914550781,-115.74700164794922 C414.1940002441406,-116.22000122070312 412.35400390625,-116.61299896240234 412.35400390625,-116.61299896240234 C412.35400390625,-116.61299896240234 410.71099853515625,-110.48300170898438 410.71099853515625,-110.48300170898438 C410.71099853515625,-110.48300170898438 412.59698486328125,-109.93499755859375 413.8909912109375,-109.68800354003906 C415.1839904785156,-109.44200134277344 416.5790100097656,-109.41100311279297 417.3299865722656,-109.59700012207031 C418.08099365234375,-109.78199768066406 419.0190124511719,-110.13200378417969 419.3949890136719,-111.53399658203125 C419.77099609375,-112.93699645996094 418.9930114746094,-113.7750015258789 418.5299987792969,-114.18499755859375z"></path></g></g></g><g style="display: none;" transform="matrix(-3.206239938735962,-5.482264518737793,5.482264518737793,-3.206239938735962,3216.14501953125,2047.57373046875)" opacity="1"><g opacity="1" transform="matrix(1,0,0,1,0,0)"><g opacity="1" transform="matrix(1,0,0,1,0,0)"><g opacity="1" transform="matrix(1,0,0,1,0,0)"><path fill="rgb(182,142,70)" fill-opacity="1" d=" M312.46600341796875,-136.3419952392578 C299.2149963378906,-136.3419952392578 288.4729919433594,-147.08399963378906 288.4729919433594,-160.3350067138672 C288.4729919433594,-173.58599853515625 299.2149963378906,-184.32699584960938 312.46600341796875,-184.32699584960938 C325.7170104980469,-184.32699584960938 336.4590148925781,-173.58599853515625 336.4590148925781,-160.3350067138672 C336.4590148925781,-147.08399963378906 325.7170104980469,-136.3419952392578 312.46600341796875,-136.3419952392578z"></path></g><g opacity="1" transform="matrix(1,0,0,1,0,0)"><path fill="rgb(255,255,255)" fill-opacity="1" d=" M301.135986328125,-160.3350067138672 C300.58099365234375,-160.3350067138672 300.0840148925781,-159.99000549316406 299.8890075683594,-159.47000122070312 C299.8890075683594,-159.47000122070312 297.8890075683594,-154.13800048828125 297.8890075683594,-154.13800048828125 C297.7359924316406,-153.72900390625 297.7929992675781,-153.27000427246094 298.0419921875,-152.91099548339844 C298.2909851074219,-152.552001953125 298.70001220703125,-152.33700561523438 299.1369934082031,-152.33700561523438 C299.1369934082031,-152.33700561523438 309.79998779296875,-152.33700561523438 309.79998779296875,-152.33700561523438 C310.23699951171875,-152.33700561523438 310.64599609375,-152.552001953125 310.8949890136719,-152.91099548339844 C311.1440124511719,-153.27000427246094 311.20098876953125,-153.72900390625 311.0480041503906,-154.13800048828125 C311.0480041503906,-154.13800048828125 309.0480041503906,-159.47000122070312 309.0480041503906,-159.47000122070312 C308.8529968261719,-159.99000549316406 308.3559875488281,-160.3350067138672 307.8009948730469,-160.3350067138672 C307.8009948730469,-160.3350067138672 301.135986328125,-160.3350067138672 301.135986328125,-160.3350067138672z"></path></g><g opacity="1" transform="matrix(1,0,0,1,0,0)"><path fill="rgb(255,255,255)" fill-opacity="1" d=" M317.1310119628906,-160.3350067138672 C316.57598876953125,-160.3350067138672 316.0790100097656,-159.99000549316406 315.8840026855469,-159.47000122070312 C315.8840026855469,-159.47000122070312 313.8840026855469,-154.13800048828125 313.8840026855469,-154.13800048828125 C313.7309875488281,-153.72900390625 313.7879943847656,-153.27000427246094 314.0369873046875,-152.91099548339844 C314.2860107421875,-152.552001953125 314.69500732421875,-152.33700561523438 315.1319885253906,-152.33700561523438 C315.1319885253906,-152.33700561523438 325.7950134277344,-152.33700561523438 325.7950134277344,-152.33700561523438 C326.23199462890625,-152.33700561523438 326.6409912109375,-152.552001953125 326.8900146484375,-152.91099548339844 C327.1390075683594,-153.27000427246094 327.1960144042969,-153.72900390625 327.0429992675781,-154.13800048828125 C327.0429992675781,-154.13800048828125 325.04400634765625,-159.47000122070312 325.04400634765625,-159.47000122070312 C324.8489990234375,-159.99000549316406 324.35101318359375,-160.3350067138672 323.7959899902344,-160.3350067138672 C323.7959899902344,-160.3350067138672 317.1310119628906,-160.3350067138672 317.1310119628906,-160.3350067138672z"></path></g><g opacity="1" transform="matrix(1,0,0,1,0,0)"><path fill="rgb(255,255,255)" fill-opacity="1" d=" M309.1340026855469,-170.9980010986328 C308.5790100097656,-170.9980010986328 308.08099365234375,-170.6529998779297 307.885986328125,-170.13299560546875 C307.885986328125,-170.13299560546875 305.8869934082031,-164.80099487304688 305.8869934082031,-164.80099487304688 C305.7340087890625,-164.39199829101562 305.7900085449219,-163.93299865722656 306.03900146484375,-163.57400512695312 C306.2879943847656,-163.21499633789062 306.6969909667969,-163.00100708007812 307.1340026855469,-163.00100708007812 C307.1340026855469,-163.00100708007812 317.7980041503906,-163.00100708007812 317.7980041503906,-163.00100708007812 C318.2349853515625,-163.00100708007812 318.6440124511719,-163.21499633789062 318.89300537109375,-163.57400512695312 C319.1419982910156,-163.93299865722656 319.197998046875,-164.39199829101562 319.0450134277344,-164.80099487304688 C319.0450134277344,-164.80099487304688 317.0459899902344,-170.13299560546875 317.0459899902344,-170.13299560546875 C316.85101318359375,-170.6529998779297 316.3529968261719,-170.9980010986328 315.7980041503906,-170.9980010986328 C315.7980041503906,-170.9980010986328 309.1340026855469,-170.9980010986328 309.1340026855469,-170.9980010986328z"></path></g></g></g></g><g transform="matrix(6.576000213623047,0,0,6.576000213623047,-1370.08447265625,1618.1474609375)" opacity="1" style="display: block;"><g opacity="1" transform="matrix(1,0,0,1,0,0)"><g opacity="1" transform="matrix(1,0,0,1,0,0)"><path fill="rgb(0,131,74)" fill-opacity="1" d=" M390.0580139160156,-79.02100372314453 C390.0580139160156,-79.02100372314453 387.4670104980469,-74.53299713134766 387.4670104980469,-74.53299713134766 C387.4670104980469,-74.53299713134766 392.64898681640625,-74.53299713134766 392.64898681640625,-74.53299713134766 C392.64898681640625,-74.53299713134766 390.0580139160156,-79.02100372314453 390.0580139160156,-79.02100372314453z"></path></g></g></g><g transform="matrix(6.575999736785889,0,0,6.575999736785889,-1390.0799560546875,1618.1478271484375)" opacity="1" style="display: block;"><g opacity="1" transform="matrix(1,0,0,1,0,0)"><g opacity="1" transform="matrix(1,0,0,1,0,0)"><g opacity="1" transform="matrix(1,0,0,1,0,0)"><g opacity="1" transform="matrix(1,0,0,1,328.5069885253906,-28.160999298095703)"><path fill="rgb(0,214,118)" fill-opacity="1" d=" M0,-12.074000358581543 C6.663640975952148,-12.074000358581543 12.074000358581543,-6.663640975952148 12.074000358581543,0 C12.074000358581543,6.663640975952148 6.663640975952148,12.074000358581543 0,12.074000358581543 C-6.663640975952148,12.074000358581543 -12.074000358581543,6.663640975952148 -12.074000358581543,0 C-12.074000358581543,-6.663640975952148 -6.663640975952148,-12.074000358581543 0,-12.074000358581543z"></path></g><g opacity="1" transform="matrix(1,0,0,1,0,0)"><g opacity="1" transform="matrix(1,0,0,1,0,0)"><path stroke-linecap="round" stroke-linejoin="miter" fill-opacity="0" stroke-miterlimit="10" stroke="rgb(0,0,0)" stroke-opacity="1" stroke-width="0.75" d=" M328.5069885253906,-33.152000427246094 C328.5069885253906,-33.152000427246094 328.5069885253906,-23.16900062561035 328.5069885253906,-23.16900062561035"></path></g><g opacity="1" transform="matrix(1,0,0,1,0,0)"><path stroke-linecap="round" stroke-linejoin="miter" fill-opacity="0" stroke-miterlimit="10" stroke="rgb(0,0,0)" stroke-opacity="1" stroke-width="0.75" d=" M333.4989929199219,-28.160999298095703 C333.4989929199219,-28.160999298095703 323.5159912109375,-28.160999298095703 323.5159912109375,-28.160999298095703"></path></g></g></g></g></g></g><g transform="matrix(6.575999736785889,-0.000024737430067034438,0.000024737430067034438,6.575999736785889,-1390.079345703125,1618.15673828125)" opacity="1" style="display: block;"><g opacity="1" transform="matrix(1,0,0,1,0,0)"><g opacity="1" transform="matrix(1,0,0,1,0,0)"><g opacity="1" transform="matrix(1,0,0,1,0,0)"><g opacity="1" transform="matrix(1,0,0,1,363.7449951171875,-28.160999298095703)"><path fill="rgb(0,214,118)" fill-opacity="1" d=" M0,-12.074000358581543 C6.663640975952148,-12.074000358581543 12.074000358581543,-6.663640975952148 12.074000358581543,0 C12.074000358581543,6.663640975952148 6.663640975952148,12.074000358581543 0,12.074000358581543 C-6.663640975952148,12.074000358581543 -12.074000358581543,6.663640975952148 -12.074000358581543,0 C-12.074000358581543,-6.663640975952148 -6.663640975952148,-12.074000358581543 0,-12.074000358581543z"></path></g><g opacity="1" transform="matrix(1,0,0,1,0,0)"><g opacity="1" transform="matrix(1,0,0,1,0,0)"><path stroke-linecap="round" stroke-linejoin="miter" fill-opacity="0" stroke-miterlimit="10" stroke="rgb(0,0,0)" stroke-opacity="1" stroke-width="0.75" d=" M368.73699951171875,-28.160999298095703 C368.73699951171875,-28.160999298095703 358.75299072265625,-28.160999298095703 358.75299072265625,-28.160999298095703"></path></g></g></g></g></g></g><g transform="matrix(6.575999736785889,0,0,6.575999736785889,-1390.0811767578125,1618.1478271484375)" opacity="1" style="display: block;"><g opacity="1" transform="matrix(1,0,0,1,0,0)"><g opacity="1" transform="matrix(1,0,0,1,0,0)"><g opacity="1" transform="matrix(1,0,0,1,0,0)"><g opacity="1" transform="matrix(1,0,0,1,398.9830017089844,-28.160999298095703)"><path fill="rgb(0,214,118)" fill-opacity="1" d=" M0,-12.074000358581543 C6.663640975952148,-12.074000358581543 12.074000358581543,-6.663640975952148 12.074000358581543,0 C12.074000358581543,6.663640975952148 6.663640975952148,12.074000358581543 0,12.074000358581543 C-6.663640975952148,12.074000358581543 -12.074000358581543,6.663640975952148 -12.074000358581543,0 C-12.074000358581543,-6.663640975952148 -6.663640975952148,-12.074000358581543 0,-12.074000358581543z"></path></g><g opacity="1" transform="matrix(1,0,0,1,0,0)"><g opacity="1" transform="matrix(1,0,0,1,0,0)"><path stroke-linecap="butt" stroke-linejoin="miter" fill-opacity="0" stroke-miterlimit="10" stroke="rgb(0,0,0)" stroke-opacity="1" stroke-width="0.6" d=" M401.50201416015625,-23.740999221801758 C401.50201416015625,-23.740999221801758 395.9010009765625,-23.740999221801758 395.9010009765625,-23.740999221801758 C394.67999267578125,-23.740999221801758 393.6910095214844,-24.729999542236328 393.6910095214844,-25.951000213623047 C393.6910095214844,-27.172000885009766 394.67999267578125,-28.160999298095703 395.9010009765625,-28.160999298095703 C395.9010009765625,-28.160999298095703 402.0660095214844,-28.160999298095703 402.0660095214844,-28.160999298095703 C403.2869873046875,-28.160999298095703 404.2760009765625,-29.149999618530273 404.2760009765625,-30.371000289916992 C404.2760009765625,-31.591999053955078 403.2869873046875,-32.58100128173828 402.0660095214844,-32.58100128173828 C402.0660095214844,-32.58100128173828 396.3370056152344,-32.58100128173828 396.3370056152344,-32.58100128173828"></path></g><g opacity="1" transform="matrix(1,0,0,1,0,0)"><path stroke-linecap="round" stroke-linejoin="round" fill-opacity="0" stroke="rgb(0,0,0)" stroke-opacity="1" stroke-width="0.6" d=" M399.8559875488281,-21.996000289916992 C399.8559875488281,-21.996000289916992 400.43701171875,-22.577999114990234 401.6000061035156,-23.740999221801758 C401.6000061035156,-23.740999221801758 399.8559875488281,-25.485000610351562 399.8559875488281,-25.485000610351562"></path></g><g opacity="1" transform="matrix(1,0,0,1,0,0)"><path stroke-linecap="round" stroke-linejoin="round" fill-opacity="0" stroke="rgb(0,0,0)" stroke-opacity="1" stroke-width="0.6" d=" M397.9939880371094,-30.836000442504883 C397.9939880371094,-30.836000442504883 397.4129943847656,-31.417999267578125 396.25,-32.58100128173828 C396.25,-32.58100128173828 397.9939880371094,-34.32600021362305 397.9939880371094,-34.32600021362305"></path></g></g></g></g></g></g><g transform="matrix(6.576000213623047,0,0,6.576000213623047,1001.9056396484375,1571.2802734375)" opacity="1" fill="rgb(0,0,0)" font-size="6.17162990570068" font-family="SF Pro" font-style="italic" font-weight="400" aria-label="SELL" style="display: block;"><g stroke-linecap="butt" stroke-linejoin="round" stroke-miterlimit="4" transform="matrix(1,0,0,1,-6.806073188781738,0)" opacity="1" style="display: inherit;"><g><g transform="matrix(1,0,0,1,0,0)" opacity="1" style="display: block;"><path d=" M0.69,-1.28 C0.71,-1.11 0.77,-0.96 0.87,-0.83 C0.97,-0.7 1.1,-0.6 1.27,-0.53 C1.43,-0.46 1.62,-0.42 1.84,-0.42 C2.03,-0.42 2.2,-0.45 2.34,-0.51 C2.49,-0.57 2.61,-0.65 2.7,-0.76 C2.79,-0.87 2.83,-1 2.83,-1.16 C2.83,-1.36 2.77,-1.51 2.65,-1.62 C2.53,-1.74 2.33,-1.84 2.06,-1.92 C2.06,-1.92 1.77,-2.01 1.77,-2.01 C1.41,-2.12 1.14,-2.27 0.97,-2.45 C0.79,-2.64 0.7,-2.88 0.7,-3.17 C0.7,-3.42 0.76,-3.64 0.89,-3.82 C1.02,-4.01 1.19,-4.16 1.42,-4.26 C1.65,-4.37 1.91,-4.42 2.2,-4.42 C2.5,-4.42 2.76,-4.37 2.99,-4.27 C3.22,-4.16 3.4,-4.02 3.53,-3.83 C3.66,-3.64 3.73,-3.42 3.73,-3.16 C3.73,-3.16 3.19,-3.16 3.19,-3.16 C3.18,-3.31 3.14,-3.44 3.06,-3.56 C2.98,-3.67 2.86,-3.76 2.72,-3.83 C2.57,-3.89 2.4,-3.93 2.2,-3.93 C1.99,-3.93 1.82,-3.89 1.68,-3.82 C1.54,-3.76 1.43,-3.67 1.36,-3.56 C1.29,-3.45 1.26,-3.33 1.26,-3.21 C1.26,-3.05 1.32,-2.91 1.44,-2.8 C1.56,-2.68 1.76,-2.59 2.02,-2.5 C2.02,-2.5 2.31,-2.41 2.31,-2.41 C2.67,-2.3 2.94,-2.15 3.13,-1.97 C3.31,-1.78 3.4,-1.55 3.4,-1.27 C3.4,-1.05 3.34,-0.83 3.22,-0.63 C3.11,-0.42 2.93,-0.25 2.7,-0.13 C2.47,0 2.18,0.07 1.84,0.07 C1.53,0.07 1.26,0.02 1,-0.09 C0.75,-0.2 0.55,-0.35 0.39,-0.55 C0.24,-0.76 0.16,-1 0.15,-1.28 C0.15,-1.28 0.69,-1.28 0.69,-1.28z"></path><g opacity="1" transform="matrix(0.06171629950404167,0,0,0.06171629950404167,0,0)"></g></g></g></g><g stroke-linecap="butt" stroke-linejoin="round" stroke-miterlimit="4" transform="matrix(1,0,0,1,-3.1086502075195312,0)" opacity="1" style="display: inherit;"><g><g transform="matrix(1,0,0,1,0,0)" opacity="1" style="display: block;"><path d=" M2.79,0 C2.79,0 0.09,0 0.09,0 C0.09,0 1.01,-4.35 1.01,-4.35 C1.01,-4.35 3.71,-4.35 3.71,-4.35 C3.71,-4.35 3.61,-3.86 3.61,-3.86 C3.61,-3.86 1.46,-3.86 1.46,-3.86 C1.46,-3.86 1.17,-2.47 1.17,-2.47 C1.17,-2.47 3.2,-2.47 3.2,-2.47 C3.2,-2.47 3.09,-1.98 3.09,-1.98 C3.09,-1.98 1.06,-1.98 1.06,-1.98 C1.06,-1.98 0.75,-0.49 0.75,-0.49 C0.75,-0.49 2.89,-0.49 2.89,-0.49 C2.89,-0.49 2.79,0 2.79,0z"></path><g opacity="1" transform="matrix(0.06171629950404167,0,0,0.06171629950404167,0,0)"></g></g></g></g><g stroke-linecap="butt" stroke-linejoin="round" stroke-miterlimit="4" transform="matrix(1,0,0,1,0.3085816204547882,0)" opacity="1" style="display: inherit;"><g><g transform="matrix(1,0,0,1,0,0)" opacity="1" style="display: block;"><path d=" M2.73,0 C2.73,0 0.09,0 0.09,0 C0.09,0 1.01,-4.35 1.01,-4.35 C1.01,-4.35 1.57,-4.35 1.57,-4.35 C1.57,-4.35 0.75,-0.49 0.75,-0.49 C0.75,-0.49 2.84,-0.49 2.84,-0.49 C2.84,-0.49 2.73,0 2.73,0z"></path><g opacity="1" transform="matrix(0.06171629950404167,0,0,0.06171629950404167,0,0)"></g></g></g></g><g stroke-linecap="butt" stroke-linejoin="round" stroke-miterlimit="4" transform="matrix(1,0,0,1,3.5573275089263916,0)" opacity="1" style="display: inherit;"><g><g transform="matrix(1,0,0,1,0,0)" opacity="1" style="display: block;"><path d=" M2.73,0 C2.73,0 0.09,0 0.09,0 C0.09,0 1.01,-4.35 1.01,-4.35 C1.01,-4.35 1.57,-4.35 1.57,-4.35 C1.57,-4.35 0.75,-0.49 0.75,-0.49 C0.75,-0.49 2.84,-0.49 2.84,-0.49 C2.84,-0.49 2.73,0 2.73,0z"></path><g opacity="1" transform="matrix(0.06171629950404167,0,0,0.06171629950404167,0,0)"></g></g></g></g></g><g transform="matrix(6.576000213623047,0,0,6.576000213623047,1233.613525390625,1571.2802734375)" opacity="1" fill="rgb(0,0,0)" font-size="6.17162990570068" font-family="SF Pro" font-style="italic" font-weight="400" aria-label="SWAP" style="display: block;"><g stroke-linecap="butt" stroke-linejoin="round" stroke-miterlimit="4" transform="matrix(1,0,0,1,-8.495248794555664,0)" opacity="1" style="display: inherit;"><g><g transform="matrix(1,0,0,1,0,0)" opacity="1" style="display: block;"><path d=" M0.69,-1.28 C0.71,-1.11 0.77,-0.96 0.87,-0.83 C0.97,-0.7 1.1,-0.6 1.27,-0.53 C1.43,-0.46 1.62,-0.42 1.84,-0.42 C2.03,-0.42 2.2,-0.45 2.34,-0.51 C2.49,-0.57 2.61,-0.65 2.7,-0.76 C2.79,-0.87 2.83,-1 2.83,-1.16 C2.83,-1.36 2.77,-1.51 2.65,-1.62 C2.53,-1.74 2.33,-1.84 2.06,-1.92 C2.06,-1.92 1.77,-2.01 1.77,-2.01 C1.41,-2.12 1.14,-2.27 0.97,-2.45 C0.79,-2.64 0.7,-2.88 0.7,-3.17 C0.7,-3.42 0.76,-3.64 0.89,-3.82 C1.02,-4.01 1.19,-4.16 1.42,-4.26 C1.65,-4.37 1.91,-4.42 2.2,-4.42 C2.5,-4.42 2.76,-4.37 2.99,-4.27 C3.22,-4.16 3.4,-4.02 3.53,-3.83 C3.66,-3.64 3.73,-3.42 3.73,-3.16 C3.73,-3.16 3.19,-3.16 3.19,-3.16 C3.18,-3.31 3.14,-3.44 3.06,-3.56 C2.98,-3.67 2.86,-3.76 2.72,-3.83 C2.57,-3.89 2.4,-3.93 2.2,-3.93 C1.99,-3.93 1.82,-3.89 1.68,-3.82 C1.54,-3.76 1.43,-3.67 1.36,-3.56 C1.29,-3.45 1.26,-3.33 1.26,-3.21 C1.26,-3.05 1.32,-2.91 1.44,-2.8 C1.56,-2.68 1.76,-2.59 2.02,-2.5 C2.02,-2.5 2.31,-2.41 2.31,-2.41 C2.67,-2.3 2.94,-2.15 3.13,-1.97 C3.31,-1.78 3.4,-1.55 3.4,-1.27 C3.4,-1.05 3.34,-0.83 3.22,-0.63 C3.11,-0.42 2.93,-0.25 2.7,-0.13 C2.47,0 2.18,0.07 1.84,0.07 C1.53,0.07 1.26,0.02 1,-0.09 C0.75,-0.2 0.55,-0.35 0.39,-0.55 C0.24,-0.76 0.16,-1 0.15,-1.28 C0.15,-1.28 0.69,-1.28 0.69,-1.28z"></path><g opacity="1" transform="matrix(0.06171629950404167,0,0,0.06171629950404167,0,0)"></g></g></g></g><g stroke-linecap="butt" stroke-linejoin="round" stroke-miterlimit="4" transform="matrix(1,0,0,1,-4.797825336456299,0)" opacity="1" style="display: inherit;"><g><g transform="matrix(1,0,0,1,0,0)" opacity="1" style="display: block;"><path d=" M1.53,0 C1.53,0 0.99,0 0.99,0 C0.99,0 0.73,-4.35 0.73,-4.35 C0.73,-4.35 1.24,-4.35 1.24,-4.35 C1.24,-4.35 1.42,-0.83 1.42,-0.83 C1.42,-0.83 1.43,-0.83 1.43,-0.83 C1.43,-0.83 3.15,-4.35 3.15,-4.35 C3.15,-4.35 3.66,-4.35 3.66,-4.35 C3.66,-4.35 3.95,-0.84 3.95,-0.84 C3.95,-0.84 3.97,-0.84 3.97,-0.84 C3.97,-0.84 5.59,-4.35 5.59,-4.35 C5.59,-4.35 6.16,-4.35 6.16,-4.35 C6.16,-4.35 4.08,0 4.08,0 C4.08,0 3.55,0 3.55,0 C3.55,0 3.25,-3.46 3.25,-3.46 C3.25,-3.46 3.24,-3.46 3.24,-3.46 C3.24,-3.46 1.53,0 1.53,0z"></path><g opacity="1" transform="matrix(0.06171629950404167,0,0,0.06171629950404167,0,0)"></g></g></g></g><g stroke-linecap="butt" stroke-linejoin="round" stroke-miterlimit="4" transform="matrix(1,0,0,1,0.915869951248169,0)" opacity="1" style="display: inherit;"><g><g transform="matrix(1,0,0,1,0,0)" opacity="1" style="display: block;"><path d=" M2.79,-1.24 C2.79,-1.24 1.04,-1.24 1.04,-1.24 C1.04,-1.24 0.34,0 0.34,0 C0.34,0 -0.26,0 -0.26,0 C-0.26,0 2.26,-4.35 2.26,-4.35 C2.26,-4.35 2.81,-4.35 2.81,-4.35 C2.81,-4.35 3.48,0 3.48,0 C3.48,0 2.97,0 2.97,0 C2.97,0 2.79,-1.24 2.79,-1.24z M1.3,-1.71 C1.3,-1.71 2.72,-1.71 2.72,-1.71 C2.72,-1.71 2.42,-3.69 2.42,-3.69 C2.42,-3.69 2.41,-3.69 2.41,-3.69 C2.41,-3.69 1.3,-1.71 1.3,-1.71z"></path><g opacity="1" transform="matrix(0.06171629950404167,0,0,0.06171629950404167,0,0)"></g></g></g></g><g stroke-linecap="butt" stroke-linejoin="round" stroke-miterlimit="4" transform="matrix(1,0,0,1,4.806465148925781,0)" opacity="1" style="display: inherit;"><g><g transform="matrix(1,0,0,1,0,0)" opacity="1" style="display: block;"><path d=" M1.08,-2.03 C1.08,-2.03 1.99,-2.03 1.99,-2.03 C2.24,-2.03 2.46,-2.08 2.64,-2.16 C2.83,-2.25 2.97,-2.37 3.07,-2.53 C3.17,-2.69 3.22,-2.89 3.22,-3.13 C3.22,-3.36 3.14,-3.54 2.99,-3.67 C2.83,-3.8 2.62,-3.87 2.35,-3.87 C2.35,-3.87 1.46,-3.87 1.46,-3.87 C1.46,-3.87 1.08,-2.03 1.08,-2.03z M2.54,-4.35 C2.77,-4.35 2.98,-4.3 3.17,-4.21 C3.36,-4.11 3.51,-3.97 3.62,-3.8 C3.73,-3.62 3.79,-3.41 3.79,-3.17 C3.79,-2.84 3.71,-2.55 3.55,-2.3 C3.4,-2.06 3.19,-1.88 2.92,-1.75 C2.66,-1.62 2.36,-1.55 2.03,-1.55 C2.03,-1.55 0.97,-1.55 0.97,-1.55 C0.97,-1.55 0.64,0 0.64,0 C0.64,0 0.09,0 0.09,0 C0.09,0 1.01,-4.35 1.01,-4.35 C1.01,-4.35 2.54,-4.35 2.54,-4.35z"></path><g opacity="1" transform="matrix(0.06171629950404167,0,0,0.06171629950404167,0,0)"></g></g></g></g></g><g transform="matrix(6.576000213623047,0,0,6.576000213623047,770.1802368164062,1571.28466796875)" opacity="1" fill="rgb(0,0,0)" font-size="6.17162990570068" font-family="SF Pro" font-style="italic" font-weight="400" aria-label="BUY" style="display: block;"><g stroke-linecap="butt" stroke-linejoin="round" stroke-miterlimit="4" transform="matrix(1,0,0,1,-6.005921840667725,0)" opacity="1" style="display: inherit;"><g><g transform="matrix(1,0,0,1,0,0)" opacity="1" style="display: block;"><path d=" M1.88,-0.48 C2.09,-0.48 2.28,-0.52 2.45,-0.59 C2.61,-0.67 2.74,-0.77 2.83,-0.9 C2.92,-1.03 2.97,-1.17 2.97,-1.33 C2.97,-1.48 2.94,-1.61 2.87,-1.71 C2.8,-1.81 2.7,-1.88 2.57,-1.93 C2.44,-1.98 2.27,-2.01 2.08,-2.01 C2.08,-2.01 1.07,-2.01 1.07,-2.01 C1.07,-2.01 0.74,-0.48 0.74,-0.48 C0.74,-0.48 1.88,-0.48 1.88,-0.48z M1.17,-2.47 C1.17,-2.47 2.06,-2.47 2.06,-2.47 C2.29,-2.47 2.48,-2.51 2.65,-2.58 C2.82,-2.64 2.95,-2.74 3.04,-2.86 C3.14,-2.98 3.18,-3.12 3.18,-3.28 C3.18,-3.48 3.11,-3.63 2.97,-3.72 C2.82,-3.82 2.62,-3.87 2.34,-3.87 C2.34,-3.87 1.46,-3.87 1.46,-3.87 C1.46,-3.87 1.17,-2.47 1.17,-2.47z M0.09,0 C0.09,0 1.01,-4.35 1.01,-4.35 C1.01,-4.35 2.55,-4.35 2.55,-4.35 C2.79,-4.35 2.99,-4.31 3.17,-4.23 C3.35,-4.15 3.49,-4.04 3.59,-3.9 C3.7,-3.75 3.75,-3.59 3.75,-3.39 C3.75,-3.21 3.71,-3.04 3.62,-2.89 C3.54,-2.74 3.43,-2.61 3.29,-2.5 C3.15,-2.39 2.98,-2.31 2.8,-2.26 C2.8,-2.26 2.8,-2.25 2.8,-2.25 C3.04,-2.21 3.22,-2.11 3.35,-1.95 C3.48,-1.78 3.54,-1.6 3.54,-1.38 C3.54,-1.11 3.47,-0.88 3.34,-0.67 C3.2,-0.46 3.01,-0.3 2.76,-0.18 C2.51,-0.06 2.22,0 1.9,0 C1.9,0 0.09,0 0.09,0z"></path><g opacity="1" transform="matrix(0.06171629950404167,0,0,0.06171629950404167,0,0)"></g></g></g></g><g stroke-linecap="butt" stroke-linejoin="round" stroke-miterlimit="4" transform="matrix(1,0,0,1,-2.0881707668304443,0)" opacity="1" style="display: inherit;"><g><g transform="matrix(1,0,0,1,0,0)" opacity="1" style="display: block;"><path d=" M1.1,-0.11 C0.87,-0.23 0.7,-0.39 0.59,-0.6 C0.47,-0.8 0.41,-1.03 0.41,-1.28 C0.41,-1.34 0.41,-1.41 0.42,-1.48 C0.43,-1.54 0.44,-1.61 0.45,-1.67 C0.45,-1.67 1.01,-4.35 1.01,-4.35 C1.01,-4.35 1.57,-4.35 1.57,-4.35 C1.57,-4.35 1.01,-1.71 1.01,-1.71 C1,-1.64 0.99,-1.57 0.98,-1.5 C0.97,-1.43 0.97,-1.37 0.97,-1.31 C0.98,-1.13 1.02,-0.98 1.1,-0.85 C1.18,-0.71 1.3,-0.61 1.45,-0.54 C1.6,-0.47 1.79,-0.43 2.03,-0.43 C2.24,-0.43 2.44,-0.47 2.61,-0.56 C2.79,-0.65 2.94,-0.77 3.06,-0.93 C3.18,-1.09 3.27,-1.29 3.32,-1.51 C3.32,-1.51 3.92,-4.35 3.92,-4.35 C3.92,-4.35 4.48,-4.35 4.48,-4.35 C4.48,-4.35 3.85,-1.41 3.85,-1.41 C3.78,-1.1 3.67,-0.83 3.51,-0.61 C3.34,-0.39 3.13,-0.22 2.87,-0.11 C2.61,0.01 2.29,0.07 1.93,0.07 C1.6,0.07 1.32,0.01 1.1,-0.11z"></path><g opacity="1" transform="matrix(0.06171629950404167,0,0,0.06171629950404167,0,0)"></g></g></g></g><g stroke-linecap="butt" stroke-linejoin="round" stroke-miterlimit="4" transform="matrix(1,0,0,1,2.2208609580993652,0)" opacity="1" style="display: inherit;"><g><g transform="matrix(1,0,0,1,0,0)" opacity="1" style="display: block;"><path d=" M1.28,0 C1.28,0 1.68,-1.9 1.68,-1.9 C1.68,-1.9 0.67,-4.35 0.67,-4.35 C0.67,-4.35 1.24,-4.35 1.24,-4.35 C1.24,-4.35 2.04,-2.37 2.04,-2.37 C2.04,-2.37 2.06,-2.37 2.06,-2.37 C2.06,-2.37 3.67,-4.35 3.67,-4.35 C3.67,-4.35 4.3,-4.35 4.3,-4.35 C4.3,-4.35 2.22,-1.82 2.22,-1.82 C2.22,-1.82 1.84,0 1.84,0 C1.84,0 1.28,0 1.28,0z"></path><g opacity="1" transform="matrix(0.06171629950404167,0,0,0.06171629950404167,0,0)"></g></g></g></g></g><g class="50" transform="matrix(6.576000213623047,0,0,6.576000213623047,999.079345703125,1144.8868408203125)" opacity="1" fill="rgb(0,0,0)" font-size="13.3151597976685" font-family="Work Sans" font-style="normal" font-weight="normal" aria-label="90.50 " style="display: block;"><g stroke-linecap="butt" stroke-linejoin="round" stroke-miterlimit="4" transform="matrix(1,0,0,1,-25.032501220703125,0)" opacity="1" style="display: inherit;"><g><g transform="matrix(1,0,0,1,0,0)" opacity="1" style="display: block;"><path d=" M3.93,-7.42 C4.38,-7.42 4.74,-7.29 5.01,-7.03 C5.28,-6.77 5.42,-6.43 5.42,-5.99 C5.42,-5.57 5.28,-5.22 5.01,-4.97 C4.74,-4.71 4.38,-4.58 3.93,-4.58 C3.45,-4.58 3.08,-4.7 2.82,-4.95 C2.57,-5.2 2.44,-5.55 2.44,-5.99 C2.44,-6.44 2.57,-6.8 2.82,-7.04 C3.08,-7.29 3.45,-7.42 3.93,-7.42z M3.95,-8.92 C2.93,-8.92 2.13,-8.66 1.55,-8.14 C0.97,-7.61 0.68,-6.9 0.68,-5.99 C0.68,-5.42 0.81,-4.93 1.06,-4.5 C1.31,-4.07 1.66,-3.75 2.09,-3.52 C2.53,-3.28 3.02,-3.17 3.57,-3.17 C4.1,-3.17 4.58,-3.28 4.99,-3.5 C5.41,-3.72 5.68,-4.06 5.79,-4.51 C5.79,-4.51 5.85,-4.51 5.85,-4.51 C5.85,-4.51 5.85,-4.33 5.85,-4.33 C5.85,-3.36 5.69,-2.62 5.39,-2.1 C5.08,-1.59 4.59,-1.33 3.93,-1.33 C3.48,-1.33 3.14,-1.43 2.92,-1.63 C2.71,-1.83 2.54,-2.13 2.44,-2.53 C2.44,-2.53 0.75,-1.81 0.75,-1.81 C1.01,-1.15 1.4,-0.67 1.92,-0.35 C2.44,-0.03 3.11,0.13 3.91,0.13 C5.07,0.13 5.96,-0.24 6.58,-0.99 C7.2,-1.73 7.51,-2.86 7.51,-4.37 C7.51,-5.81 7.2,-6.93 6.58,-7.73 C5.97,-8.52 5.09,-8.92 3.95,-8.92z"></path><g opacity="1" transform="matrix(0.1331515908241272,0,0,0.1331515908241272,0,0)"></g></g></g></g><g stroke-linecap="butt" stroke-linejoin="round" stroke-miterlimit="4" transform="matrix(1,0,0,1,-16.80373191833496,0)" opacity="1" style="display: inherit;"><g><g transform="matrix(1,0,0,1,0,0)" opacity="1" style="display: block;"><path d=" M4.23,-1.34 C3.67,-1.34 3.24,-1.59 2.97,-2.09 C2.69,-2.59 2.56,-3.36 2.56,-4.39 C2.56,-5.43 2.69,-6.2 2.97,-6.7 C3.24,-7.19 3.67,-7.44 4.23,-7.44 C4.8,-7.44 5.22,-7.19 5.5,-6.7 C5.77,-6.2 5.91,-5.43 5.91,-4.39 C5.91,-3.36 5.77,-2.59 5.5,-2.09 C5.22,-1.59 4.8,-1.34 4.23,-1.34z M4.23,0.13 C5.4,0.13 6.27,-0.25 6.86,-1.01 C7.45,-1.78 7.75,-2.9 7.75,-4.39 C7.75,-5.89 7.45,-7.01 6.86,-7.78 C6.27,-8.54 5.4,-8.92 4.23,-8.92 C3.07,-8.92 2.19,-8.54 1.6,-7.78 C1.01,-7.01 0.72,-5.89 0.72,-4.39 C0.72,-2.9 1.01,-1.78 1.6,-1.01 C2.19,-0.25 3.07,0.13 4.23,0.13z"></path><g opacity="1" transform="matrix(0.1331515908241272,0,0,0.1331515908241272,0,0)"></g></g></g></g><g stroke-linecap="butt" stroke-linejoin="round" stroke-miterlimit="4" transform="matrix(1,0,0,1,-8.33528995513916,0)" opacity="1" style="display: inherit;"><g><g transform="matrix(1,0,0,1,0,0)" opacity="1" style="display: block;"><path d=" M1.88,-2.04 C1.52,-2.04 1.24,-1.94 1.03,-1.75 C0.82,-1.56 0.72,-1.3 0.72,-0.96 C0.72,-0.62 0.82,-0.36 1.03,-0.17 C1.24,0.02 1.52,0.12 1.88,0.12 C2.23,0.12 2.51,0.02 2.72,-0.17 C2.93,-0.37 3.04,-0.63 3.04,-0.96 C3.04,-1.29 2.93,-1.55 2.72,-1.74 C2.51,-1.94 2.23,-2.04 1.88,-2.04z"></path><g opacity="1" transform="matrix(0.1331515908241272,0,0,0.1331515908241272,0,0)"></g></g></g></g><g stroke-linecap="butt" stroke-linejoin="round" stroke-miterlimit="4" transform="matrix(1,0,0,1,-4.593730449676514,0)" opacity="1" style="display: inherit;"><g><g transform="matrix(1,0,0,1,0,0)" opacity="1" style="display: block;"><path d=" M4.37,-5.66 C3.96,-5.66 3.59,-5.6 3.27,-5.49 C2.94,-5.37 2.69,-5.21 2.49,-4.99 C2.49,-4.99 2.48,-4.99 2.48,-4.99 C2.48,-4.99 2.52,-5.25 2.52,-5.25 C2.52,-5.25 2.77,-7.31 2.77,-7.31 C2.77,-7.31 6.67,-7.31 6.67,-7.31 C6.67,-7.31 6.67,-8.79 6.67,-8.79 C6.67,-8.79 1.38,-8.79 1.38,-8.79 C1.38,-8.79 0.84,-3.81 0.84,-3.81 C0.84,-3.81 2.28,-3.65 2.28,-3.65 C2.61,-4.07 3.15,-4.29 3.89,-4.29 C4.39,-4.29 4.76,-4.16 5.02,-3.91 C5.28,-3.66 5.41,-3.29 5.42,-2.81 C5.42,-2.34 5.28,-1.98 5,-1.72 C4.72,-1.46 4.34,-1.33 3.85,-1.33 C3.36,-1.33 2.99,-1.44 2.75,-1.66 C2.51,-1.88 2.33,-2.2 2.21,-2.64 C2.21,-2.64 0.56,-1.72 0.56,-1.72 C0.9,-1.08 1.33,-0.61 1.87,-0.31 C2.41,-0.02 3.07,0.13 3.86,0.13 C4.84,0.13 5.63,-0.13 6.22,-0.66 C6.82,-1.19 7.12,-1.94 7.12,-2.93 C7.12,-3.75 6.88,-4.41 6.38,-4.91 C5.89,-5.41 5.22,-5.66 4.37,-5.66z"></path><g opacity="1" transform="matrix(0.1331515908241272,0,0,0.1331515908241272,0,0)"></g></g></g></g><g stroke-linecap="butt" stroke-linejoin="round" stroke-miterlimit="4" transform="matrix(1,0,0,1,3.1556923389434814,0)" opacity="1" style="display: inherit;"><g><g transform="matrix(1,0,0,1,0,0)" opacity="1" style="display: block;"><path d=" M4.23,-1.34 C3.67,-1.34 3.24,-1.59 2.97,-2.09 C2.69,-2.59 2.56,-3.36 2.56,-4.39 C2.56,-5.43 2.69,-6.2 2.97,-6.7 C3.24,-7.19 3.67,-7.44 4.23,-7.44 C4.8,-7.44 5.22,-7.19 5.5,-6.7 C5.77,-6.2 5.91,-5.43 5.91,-4.39 C5.91,-3.36 5.77,-2.59 5.5,-2.09 C5.22,-1.59 4.8,-1.34 4.23,-1.34z M4.23,0.13 C5.4,0.13 6.27,-0.25 6.86,-1.01 C7.45,-1.78 7.75,-2.9 7.75,-4.39 C7.75,-5.89 7.45,-7.01 6.86,-7.78 C6.27,-8.54 5.4,-8.92 4.23,-8.92 C3.07,-8.92 2.19,-8.54 1.6,-7.78 C1.01,-7.01 0.72,-5.89 0.72,-4.39 C0.72,-2.9 1.01,-1.78 1.6,-1.01 C2.19,-0.25 3.07,0.13 4.23,0.13z"></path><g opacity="1" transform="matrix(0.1331515908241272,0,0,0.1331515908241272,0,0)"></g></g></g></g><g stroke-linecap="butt" stroke-linejoin="round" stroke-miterlimit="4" transform="matrix(1,0,0,1,11.624134063720703,0)" opacity="1" style="display: inherit;"><g><g style="display: none;"></g></g></g><g stroke-linecap="butt" stroke-linejoin="round" stroke-miterlimit="4" transform="matrix(1,0,0,1,15.698573112487793,0)" opacity="1" style="display: inherit;"><g><g transform="matrix(1,0,0,1,0,0)" opacity="1" style="display: block;"><path d=" M7.47,-2.76 C7.35,-2.26 7.11,-1.88 6.76,-1.62 C6.42,-1.36 6.01,-1.22 5.55,-1.22 C5.03,-1.22 4.59,-1.36 4.23,-1.63 C3.88,-1.9 3.62,-2.29 3.45,-2.81 C3.45,-2.81 5.7,-2.81 5.7,-2.81 C5.7,-2.81 5.99,-3.78 5.99,-3.78 C5.99,-3.78 3.26,-3.78 3.26,-3.78 C3.24,-4.05 3.24,-4.25 3.24,-4.39 C3.24,-4.54 3.24,-4.64 3.25,-4.71 C3.25,-4.71 6.22,-4.71 6.22,-4.71 C6.22,-4.71 6.54,-5.69 6.54,-5.69 C6.54,-5.69 3.38,-5.69 3.38,-5.69 C3.53,-6.29 3.8,-6.75 4.18,-7.08 C4.56,-7.4 5.04,-7.56 5.61,-7.56 C6.06,-7.56 6.45,-7.45 6.78,-7.22 C7.11,-6.99 7.32,-6.64 7.43,-6.19 C7.43,-6.19 8.84,-6.84 8.84,-6.84 C8.63,-7.5 8.22,-8.01 7.62,-8.38 C7.02,-8.74 6.31,-8.92 5.49,-8.92 C4.46,-8.92 3.61,-8.64 2.94,-8.07 C2.28,-7.5 1.85,-6.71 1.65,-5.69 C1.65,-5.69 0.51,-5.69 0.51,-5.69 C0.51,-5.69 0.51,-4.71 0.51,-4.71 C0.51,-4.71 1.53,-4.71 1.53,-4.71 C1.53,-4.71 1.53,-4.39 1.53,-4.39 C1.53,-4.12 1.54,-3.91 1.56,-3.78 C1.56,-3.78 0.51,-3.78 0.51,-3.78 C0.51,-3.78 0.51,-2.81 0.51,-2.81 C0.51,-2.81 1.7,-2.81 1.7,-2.81 C1.94,-1.87 2.38,-1.14 3.04,-0.63 C3.69,-0.12 4.52,0.13 5.51,0.13 C6.35,0.13 7.07,-0.08 7.69,-0.5 C8.31,-0.92 8.72,-1.52 8.93,-2.29 C8.93,-2.29 7.47,-2.76 7.47,-2.76z"></path><g opacity="1" transform="matrix(0.1331515908241272,0,0,0.1331515908241272,0,0)"></g></g></g></g></g><g transform="matrix(6.576000213623047,0,0,6.576000213623047,1003.7991333007812,1200.146728515625)" opacity="1" fill="rgb(0,131,74)" font-size="5.92507982254028" font-family="Work Sans" font-style="normal" font-weight="500" aria-label="+3,21  / +10,5% (today)" style="display: block;"><g stroke-linecap="butt" stroke-linejoin="round" stroke-miterlimit="4" transform="matrix(1,0,0,1,-34.20548629760742,0)" opacity="1" style="display: inherit;"><g><g transform="matrix(1,0,0,1,0,0)" opacity="1" style="display: block;"><path d=" M3.25,-2.16 C3.25,-2.16 2.07,-2.16 2.07,-2.16 C2.07,-2.16 2.07,-3.39 2.07,-3.39 C2.07,-3.39 1.52,-3.39 1.52,-3.39 C1.52,-3.39 1.52,-2.16 1.52,-2.16 C1.52,-2.16 0.33,-2.16 0.33,-2.16 C0.33,-2.16 0.33,-1.63 0.33,-1.63 C0.33,-1.63 1.52,-1.63 1.52,-1.63 C1.52,-1.63 1.52,-0.39 1.52,-0.39 C1.52,-0.39 2.07,-0.39 2.07,-0.39 C2.07,-0.39 2.07,-1.63 2.07,-1.63 C2.07,-1.63 3.25,-1.63 3.25,-1.63 C3.25,-1.63 3.25,-2.16 3.25,-2.16z"></path><g opacity="1" transform="matrix(0.05925079807639122,0,0,0.05925079807639122,0,0)"></g></g></g></g><g stroke-linecap="butt" stroke-linejoin="round" stroke-miterlimit="4" transform="matrix(1,0,0,1,-30.626737594604492,0)" opacity="1" style="display: inherit;"><g><g transform="matrix(1,0,0,1,0,0)" opacity="1" style="display: block;"><path d=" M1.74,-3.97 C1.41,-3.97 1.12,-3.89 0.89,-3.74 C0.65,-3.58 0.49,-3.37 0.4,-3.08 C0.4,-3.08 0.98,-2.84 0.98,-2.84 C1.02,-3.03 1.1,-3.17 1.22,-3.27 C1.35,-3.37 1.51,-3.42 1.72,-3.42 C1.93,-3.42 2.09,-3.37 2.2,-3.27 C2.31,-3.17 2.37,-3.02 2.37,-2.82 C2.37,-2.42 2.13,-2.22 1.64,-2.22 C1.64,-2.22 1.48,-2.22 1.48,-2.22 C1.48,-2.22 1.48,-1.71 1.48,-1.71 C1.48,-1.71 1.65,-1.71 1.65,-1.71 C1.93,-1.71 2.14,-1.67 2.27,-1.58 C2.39,-1.49 2.46,-1.34 2.46,-1.13 C2.46,-0.93 2.39,-0.78 2.26,-0.66 C2.12,-0.54 1.94,-0.49 1.7,-0.49 C1.46,-0.49 1.27,-0.54 1.14,-0.65 C1.01,-0.77 0.91,-0.94 0.85,-1.17 C0.85,-1.17 0.27,-0.89 0.27,-0.89 C0.5,-0.26 0.97,0.06 1.68,0.06 C1.96,0.06 2.21,0.01 2.42,-0.08 C2.64,-0.18 2.8,-0.31 2.92,-0.48 C3.04,-0.65 3.1,-0.84 3.1,-1.05 C3.1,-1.24 3.06,-1.4 2.99,-1.53 C2.91,-1.67 2.81,-1.78 2.69,-1.85 C2.56,-1.93 2.43,-1.97 2.28,-1.97 C2.28,-1.97 2.28,-1.98 2.28,-1.98 C2.39,-1.98 2.51,-2.02 2.62,-2.1 C2.73,-2.18 2.83,-2.29 2.9,-2.43 C2.97,-2.58 3.01,-2.74 3.01,-2.93 C3.01,-3.12 2.96,-3.3 2.86,-3.45 C2.76,-3.61 2.62,-3.74 2.43,-3.83 C2.23,-3.92 2,-3.97 1.74,-3.97z"></path><g opacity="1" transform="matrix(0.05925079807639122,0,0,0.05925079807639122,0,0)"></g></g></g></g><g stroke-linecap="butt" stroke-linejoin="round" stroke-miterlimit="4" transform="matrix(1,0,0,1,-27.154640197753906,0)" opacity="1" style="display: inherit;"><g><g transform="matrix(1,0,0,1,0,0)" opacity="1" style="display: block;"><path d=" M0.81,-0.8 C0.68,-0.8 0.57,-0.76 0.49,-0.68 C0.4,-0.59 0.36,-0.49 0.36,-0.36 C0.36,-0.23 0.39,-0.13 0.47,-0.06 C0.55,0.02 0.64,0.05 0.73,0.05 C0.81,0.05 0.87,0.04 0.9,0.01 C0.9,0.01 0.93,0.02 0.93,0.02 C0.89,0.15 0.82,0.27 0.71,0.38 C0.6,0.49 0.46,0.57 0.3,0.63 C0.3,0.63 0.61,0.89 0.61,0.89 C0.84,0.78 1.01,0.63 1.13,0.45 C1.25,0.26 1.31,0.05 1.31,-0.17 C1.31,-0.36 1.27,-0.51 1.18,-0.63 C1.09,-0.74 0.96,-0.8 0.81,-0.8z"></path><g opacity="1" transform="matrix(0.05925079807639122,0,0,0.05925079807639122,0,0)"></g></g></g></g><g stroke-linecap="butt" stroke-linejoin="round" stroke-miterlimit="4" transform="matrix(1,0,0,1,-25.537092208862305,0)" opacity="1" style="display: inherit;"><g><g transform="matrix(1,0,0,1,0,0)" opacity="1" style="display: block;"><path d=" M0.41,0 C0.41,0 3.13,0 3.13,0 C3.13,0 3.13,-0.55 3.13,-0.55 C3.13,-0.55 1.9,-0.55 1.9,-0.55 C1.67,-0.55 1.45,-0.54 1.26,-0.52 C1.26,-0.52 1.26,-0.53 1.26,-0.53 C1.9,-0.95 2.37,-1.33 2.65,-1.66 C2.92,-2 3.06,-2.36 3.06,-2.74 C3.06,-2.97 3.01,-3.18 2.9,-3.37 C2.8,-3.55 2.64,-3.7 2.44,-3.81 C2.23,-3.92 1.99,-3.97 1.71,-3.97 C1.3,-3.97 0.97,-3.86 0.72,-3.64 C0.47,-3.43 0.33,-3.13 0.29,-2.76 C0.29,-2.76 0.84,-2.5 0.84,-2.5 C0.86,-2.79 0.94,-3.01 1.09,-3.18 C1.23,-3.34 1.43,-3.42 1.67,-3.42 C1.9,-3.42 2.08,-3.35 2.21,-3.22 C2.35,-3.09 2.41,-2.92 2.41,-2.71 C2.41,-2.49 2.35,-2.28 2.22,-2.07 C2.1,-1.86 1.9,-1.63 1.61,-1.38 C1.33,-1.13 0.93,-0.83 0.41,-0.47 C0.41,-0.47 0.41,0 0.41,0z"></path><g opacity="1" transform="matrix(0.05925079807639122,0,0,0.05925079807639122,0,0)"></g></g></g></g><g stroke-linecap="butt" stroke-linejoin="round" stroke-miterlimit="4" transform="matrix(1,0,0,1,-22.059072494506836,0)" opacity="1" style="display: inherit;"><g><g transform="matrix(1,0,0,1,0,0)" opacity="1" style="display: block;"><path d=" M1.39,-3.91 C1.32,-3.82 1.21,-3.72 1.07,-3.61 C0.92,-3.51 0.77,-3.42 0.6,-3.35 C0.44,-3.27 0.3,-3.23 0.2,-3.22 C0.2,-3.22 0.32,-2.67 0.32,-2.67 C0.5,-2.71 0.67,-2.77 0.84,-2.87 C1.02,-2.96 1.17,-3.08 1.3,-3.21 C1.3,-3.13 1.3,-3.03 1.3,-2.89 C1.3,-2.89 1.3,0 1.3,0 C1.3,0 1.92,0 1.92,0 C1.92,0 1.92,-3.91 1.92,-3.91 C1.92,-3.91 1.39,-3.91 1.39,-3.91z"></path><g opacity="1" transform="matrix(0.05925079807639122,0,0,0.05925079807639122,0,0)"></g></g></g></g><g stroke-linecap="butt" stroke-linejoin="round" stroke-miterlimit="4" transform="matrix(1,0,0,1,-19.582387924194336,0)" opacity="1" style="display: inherit;"><g><g style="display: none;"></g></g></g><g stroke-linecap="butt" stroke-linejoin="round" stroke-miterlimit="4" transform="matrix(1,0,0,1,-17.65673828125,0)" opacity="1" style="display: inherit;"><g><g transform="matrix(1,0,0,1,0,0)" opacity="1" style="display: block;"><path d=" M3.41,-1.19 C3.34,-0.95 3.23,-0.77 3.05,-0.64 C2.88,-0.51 2.68,-0.44 2.46,-0.44 C2.21,-0.44 2,-0.51 1.83,-0.65 C1.66,-0.79 1.53,-1 1.45,-1.26 C1.45,-1.26 2.47,-1.26 2.47,-1.26 C2.47,-1.26 2.6,-1.66 2.6,-1.66 C2.6,-1.66 1.37,-1.66 1.37,-1.66 C1.37,-1.79 1.36,-1.89 1.36,-1.96 C1.36,-2.03 1.36,-2.09 1.37,-2.13 C1.37,-2.13 2.7,-2.13 2.7,-2.13 C2.7,-2.13 2.83,-2.54 2.83,-2.54 C2.83,-2.54 1.43,-2.54 1.43,-2.54 C1.5,-2.84 1.63,-3.07 1.82,-3.23 C2,-3.39 2.22,-3.47 2.49,-3.47 C2.7,-3.47 2.88,-3.41 3.04,-3.29 C3.2,-3.18 3.3,-3.02 3.36,-2.81 C3.36,-2.81 3.89,-3.05 3.89,-3.05 C3.78,-3.34 3.61,-3.57 3.35,-3.73 C3.1,-3.89 2.79,-3.97 2.44,-3.97 C2.01,-3.97 1.65,-3.84 1.36,-3.59 C1.08,-3.34 0.89,-2.99 0.81,-2.54 C0.81,-2.54 0.3,-2.54 0.3,-2.54 C0.3,-2.54 0.3,-2.13 0.3,-2.13 C0.3,-2.13 0.76,-2.13 0.76,-2.13 C0.75,-2.09 0.75,-2.03 0.75,-1.96 C0.75,-1.89 0.76,-1.79 0.76,-1.66 C0.76,-1.66 0.3,-1.66 0.3,-1.66 C0.3,-1.66 0.3,-1.26 0.3,-1.26 C0.3,-1.26 0.83,-1.26 0.83,-1.26 C0.93,-0.84 1.12,-0.52 1.4,-0.29 C1.67,-0.06 2.03,0.06 2.45,0.06 C2.8,0.06 3.11,-0.04 3.38,-0.23 C3.65,-0.41 3.84,-0.68 3.94,-1.01 C3.94,-1.01 3.41,-1.19 3.41,-1.19z"></path><g opacity="1" transform="matrix(0.05925079807639122,0,0,0.05925079807639122,0,0)"></g></g></g></g><g stroke-linecap="butt" stroke-linejoin="round" stroke-miterlimit="4" transform="matrix(1,0,0,1,-13.503256797790527,0)" opacity="1" style="display: inherit;"><g><g style="display: none;"></g></g></g><g stroke-linecap="butt" stroke-linejoin="round" stroke-miterlimit="4" transform="matrix(1,0,0,1,-11.577605247497559,0)" opacity="1" style="display: inherit;"><g><g transform="matrix(1,0,0,1,0,0)" opacity="1" style="display: block;"><path d=" M2.5,-4.3 C2.5,-4.3 1.91,-4.3 1.91,-4.3 C1.91,-4.3 0.14,0.41 0.14,0.41 C0.14,0.41 0.73,0.41 0.73,0.41 C0.73,0.41 2.5,-4.3 2.5,-4.3z"></path><g opacity="1" transform="matrix(0.05925079807639122,0,0,0.05925079807639122,0,0)"></g></g></g></g><g stroke-linecap="butt" stroke-linejoin="round" stroke-miterlimit="4" transform="matrix(1,0,0,1,-9.888957023620605,0)" opacity="1" style="display: inherit;"><g><g style="display: none;"></g></g></g><g stroke-linecap="butt" stroke-linejoin="round" stroke-miterlimit="4" transform="matrix(1,0,0,1,-7.963306903839111,0)" opacity="1" style="display: inherit;"><g><g transform="matrix(1,0,0,1,0,0)" opacity="1" style="display: block;"><path d=" M3.25,-2.16 C3.25,-2.16 2.07,-2.16 2.07,-2.16 C2.07,-2.16 2.07,-3.39 2.07,-3.39 C2.07,-3.39 1.52,-3.39 1.52,-3.39 C1.52,-3.39 1.52,-2.16 1.52,-2.16 C1.52,-2.16 0.33,-2.16 0.33,-2.16 C0.33,-2.16 0.33,-1.63 0.33,-1.63 C0.33,-1.63 1.52,-1.63 1.52,-1.63 C1.52,-1.63 1.52,-0.39 1.52,-0.39 C1.52,-0.39 2.07,-0.39 2.07,-0.39 C2.07,-0.39 2.07,-1.63 2.07,-1.63 C2.07,-1.63 3.25,-1.63 3.25,-1.63 C3.25,-1.63 3.25,-2.16 3.25,-2.16z"></path><g opacity="1" transform="matrix(0.05925079807639122,0,0,0.05925079807639122,0,0)"></g></g></g></g><g stroke-linecap="butt" stroke-linejoin="round" stroke-miterlimit="4" transform="matrix(1,0,0,1,-4.384559631347656,0)" opacity="1" style="display: inherit;"><g><g transform="matrix(1,0,0,1,0,0)" opacity="1" style="display: block;"><path d=" M1.39,-3.91 C1.32,-3.82 1.21,-3.72 1.07,-3.61 C0.92,-3.51 0.77,-3.42 0.6,-3.35 C0.44,-3.27 0.3,-3.23 0.2,-3.22 C0.2,-3.22 0.32,-2.67 0.32,-2.67 C0.5,-2.71 0.67,-2.77 0.84,-2.87 C1.02,-2.96 1.17,-3.08 1.3,-3.21 C1.3,-3.13 1.3,-3.03 1.3,-2.89 C1.3,-2.89 1.3,0 1.3,0 C1.3,0 1.92,0 1.92,0 C1.92,0 1.92,-3.91 1.92,-3.91 C1.92,-3.91 1.39,-3.91 1.39,-3.91z"></path><g opacity="1" transform="matrix(0.05925079807639122,0,0,0.05925079807639122,0,0)"></g></g></g></g><g stroke-linecap="butt" stroke-linejoin="round" stroke-miterlimit="4" transform="matrix(1,0,0,1,-1.9078750610351562,0)" opacity="1" style="display: inherit;"><g><g transform="matrix(1,0,0,1,0,0)" opacity="1" style="display: block;"><path d=" M1.86,-0.48 C1.29,-0.48 1,-0.97 1,-1.96 C1,-2.94 1.29,-3.43 1.86,-3.43 C2.14,-3.43 2.36,-3.31 2.51,-3.06 C2.65,-2.81 2.73,-2.45 2.73,-1.96 C2.73,-1.47 2.65,-1.1 2.51,-0.85 C2.36,-0.6 2.14,-0.48 1.86,-0.48z M1.86,0.06 C2.35,0.06 2.73,-0.11 2.99,-0.45 C3.24,-0.79 3.37,-1.3 3.37,-1.96 C3.37,-2.61 3.24,-3.12 2.99,-3.46 C2.73,-3.8 2.35,-3.97 1.86,-3.97 C1.37,-3.97 0.99,-3.8 0.74,-3.46 C0.48,-3.12 0.36,-2.61 0.36,-1.96 C0.36,-1.3 0.48,-0.79 0.74,-0.45 C0.99,-0.11 1.37,0.06 1.86,0.06z"></path><g opacity="1" transform="matrix(0.05925079807639122,0,0,0.05925079807639122,0,0)"></g></g></g></g><g stroke-linecap="butt" stroke-linejoin="round" stroke-miterlimit="4" transform="matrix(1,0,0,1,1.8130730390548706,0)" opacity="1" style="display: inherit;"><g><g transform="matrix(1,0,0,1,0,0)" opacity="1" style="display: block;"><path d=" M0.81,-0.8 C0.68,-0.8 0.57,-0.76 0.49,-0.68 C0.4,-0.59 0.36,-0.49 0.36,-0.36 C0.36,-0.23 0.39,-0.13 0.47,-0.06 C0.55,0.02 0.64,0.05 0.73,0.05 C0.81,0.05 0.87,0.04 0.9,0.01 C0.9,0.01 0.93,0.02 0.93,0.02 C0.89,0.15 0.82,0.27 0.71,0.38 C0.6,0.49 0.46,0.57 0.3,0.63 C0.3,0.63 0.61,0.89 0.61,0.89 C0.84,0.78 1.01,0.63 1.13,0.45 C1.25,0.26 1.31,0.05 1.31,-0.17 C1.31,-0.36 1.27,-0.51 1.18,-0.63 C1.09,-0.74 0.96,-0.8 0.81,-0.8z"></path><g opacity="1" transform="matrix(0.05925079807639122,0,0,0.05925079807639122,0,0)"></g></g></g></g><g stroke-linecap="butt" stroke-linejoin="round" stroke-miterlimit="4" transform="matrix(1,0,0,1,3.430619716644287,0)" opacity="1" style="display: inherit;"><g><g transform="matrix(1,0,0,1,0,0)" opacity="1" style="display: block;"><path d=" M1.89,-2.51 C1.5,-2.51 1.21,-2.41 1.03,-2.2 C1.03,-2.2 1.02,-2.2 1.02,-2.2 C1.02,-2.2 1.03,-2.28 1.03,-2.28 C1.03,-2.28 1.17,-3.37 1.17,-3.37 C1.17,-3.37 2.93,-3.37 2.93,-3.37 C2.93,-3.37 2.93,-3.91 2.93,-3.91 C2.93,-3.91 0.66,-3.91 0.66,-3.91 C0.66,-3.91 0.42,-1.69 0.42,-1.69 C0.42,-1.69 0.95,-1.65 0.95,-1.65 C1.11,-1.88 1.37,-1.99 1.74,-1.99 C1.99,-1.99 2.17,-1.92 2.3,-1.79 C2.44,-1.66 2.5,-1.47 2.5,-1.23 C2.5,-0.99 2.43,-0.81 2.29,-0.68 C2.15,-0.55 1.96,-0.48 1.72,-0.48 C1.48,-0.48 1.3,-0.53 1.18,-0.64 C1.06,-0.75 0.97,-0.91 0.91,-1.13 C0.91,-1.13 0.31,-0.8 0.31,-0.8 C0.45,-0.51 0.63,-0.3 0.86,-0.15 C1.08,-0.01 1.37,0.06 1.73,0.06 C2.15,0.06 2.49,-0.06 2.74,-0.29 C3,-0.52 3.12,-0.85 3.12,-1.27 C3.12,-1.52 3.07,-1.73 2.97,-1.92 C2.87,-2.11 2.73,-2.25 2.54,-2.36 C2.36,-2.46 2.14,-2.51 1.89,-2.51z"></path><g opacity="1" transform="matrix(0.05925079807639122,0,0,0.05925079807639122,0,0)"></g></g></g></g><g stroke-linecap="butt" stroke-linejoin="round" stroke-miterlimit="4" transform="matrix(1,0,0,1,6.879015922546387,0)" opacity="1" style="display: inherit;"><g><g transform="matrix(1,0,0,1,0,0)" opacity="1" style="display: block;"><path d=" M4.01,-1.65 C4.16,-1.65 4.28,-1.6 4.36,-1.49 C4.44,-1.38 4.48,-1.23 4.48,-1.03 C4.48,-0.83 4.44,-0.67 4.36,-0.57 C4.28,-0.46 4.16,-0.4 4.01,-0.4 C3.86,-0.4 3.74,-0.46 3.66,-0.57 C3.58,-0.67 3.54,-0.83 3.54,-1.03 C3.54,-1.23 3.58,-1.38 3.66,-1.49 C3.74,-1.6 3.86,-1.65 4.01,-1.65z M4.01,-2.12 C3.71,-2.12 3.47,-2.02 3.29,-1.82 C3.11,-1.62 3.02,-1.36 3.02,-1.03 C3.02,-0.7 3.11,-0.44 3.29,-0.24 C3.47,-0.04 3.71,0.06 4.01,0.06 C4.31,0.06 4.55,-0.04 4.73,-0.24 C4.9,-0.44 4.99,-0.7 4.99,-1.03 C4.99,-1.36 4.9,-1.62 4.73,-1.82 C4.55,-2.02 4.31,-2.12 4.01,-2.12z M1.21,-3.51 C1.36,-3.51 1.48,-3.45 1.56,-3.34 C1.64,-3.24 1.68,-3.08 1.68,-2.88 C1.68,-2.68 1.64,-2.53 1.56,-2.42 C1.48,-2.31 1.36,-2.26 1.21,-2.26 C1.06,-2.26 0.94,-2.31 0.86,-2.42 C0.78,-2.53 0.74,-2.68 0.74,-2.88 C0.74,-3.08 0.78,-3.24 0.86,-3.34 C0.94,-3.45 1.06,-3.51 1.21,-3.51z M1.05,0 C1.05,0 1.61,0 1.61,0 C1.61,0 4.16,-3.91 4.16,-3.91 C4.16,-3.91 3.61,-3.91 3.61,-3.91 C3.61,-3.91 1.05,0 1.05,0z M1.21,-3.97 C0.91,-3.97 0.67,-3.87 0.49,-3.67 C0.31,-3.47 0.22,-3.21 0.22,-2.88 C0.22,-2.55 0.31,-2.29 0.49,-2.09 C0.67,-1.89 0.91,-1.79 1.21,-1.79 C1.51,-1.79 1.75,-1.89 1.93,-2.09 C2.11,-2.29 2.2,-2.55 2.2,-2.88 C2.2,-3.21 2.11,-3.47 1.93,-3.67 C1.75,-3.87 1.51,-3.97 1.21,-3.97z"></path><g opacity="1" transform="matrix(0.05925079807639122,0,0,0.05925079807639122,0,0)"></g></g></g></g><g stroke-linecap="butt" stroke-linejoin="round" stroke-miterlimit="4" transform="matrix(1,0,0,1,12.093087196350098,0)" opacity="1" style="display: inherit;"><g><g style="display: none;"></g></g></g><g stroke-linecap="butt" stroke-linejoin="round" stroke-miterlimit="4" transform="matrix(1,0,0,1,14.01873779296875,0)" opacity="1" style="display: inherit;"><g><g transform="matrix(1,0,0,1,0,0)" opacity="1" style="display: block;"><path d=" M1.68,-4.43 C1.25,-4.08 0.92,-3.67 0.7,-3.21 C0.48,-2.74 0.37,-2.22 0.37,-1.65 C0.37,-1.08 0.48,-0.56 0.7,-0.09 C0.92,0.37 1.25,0.78 1.68,1.13 C1.68,1.13 2.01,0.79 2.01,0.79 C1.64,0.45 1.37,0.1 1.22,-0.28 C1.06,-0.65 0.98,-1.11 0.98,-1.65 C0.98,-2.19 1.06,-2.65 1.22,-3.02 C1.37,-3.4 1.64,-3.75 2.01,-4.09 C2.01,-4.09 1.68,-4.43 1.68,-4.43z"></path><g opacity="1" transform="matrix(0.05925079807639122,0,0,0.05925079807639122,0,0)"></g></g></g></g><g stroke-linecap="butt" stroke-linejoin="round" stroke-miterlimit="4" transform="matrix(1,0,0,1,16.03919219970703,0)" opacity="1" style="display: inherit;"><g><g transform="matrix(1,0,0,1,0,0)" opacity="1" style="display: block;"><path d=" M2.26,-0.66 C2.13,-0.53 1.97,-0.47 1.78,-0.47 C1.65,-0.47 1.54,-0.5 1.47,-0.57 C1.39,-0.64 1.35,-0.75 1.35,-0.89 C1.35,-0.89 1.35,-2.46 1.35,-2.46 C1.35,-2.46 2.39,-2.46 2.39,-2.46 C2.39,-2.46 2.39,-2.96 2.39,-2.96 C2.39,-2.96 1.35,-2.96 1.35,-2.96 C1.35,-2.96 1.35,-3.83 1.35,-3.83 C1.35,-3.83 0.72,-3.66 0.72,-3.66 C0.72,-3.66 0.72,-2.96 0.72,-2.96 C0.72,-2.96 0.15,-2.96 0.15,-2.96 C0.15,-2.96 0.15,-2.46 0.15,-2.46 C0.15,-2.46 0.72,-2.46 0.72,-2.46 C0.72,-2.46 0.72,-0.78 0.72,-0.78 C0.72,-0.49 0.8,-0.28 0.97,-0.15 C1.13,-0.01 1.35,0.06 1.62,0.06 C1.78,0.06 1.93,0.04 2.06,-0.01 C2.2,-0.05 2.32,-0.12 2.41,-0.2 C2.41,-0.2 2.26,-0.66 2.26,-0.66z"></path><g opacity="1" transform="matrix(0.05925079807639122,0,0,0.05925079807639122,0,0)"></g></g></g></g><g stroke-linecap="butt" stroke-linejoin="round" stroke-miterlimit="4" transform="matrix(1,0,0,1,18.225543975830078,0)" opacity="1" style="display: inherit;"><g><g transform="matrix(1,0,0,1,0,0)" opacity="1" style="display: block;"><path d=" M1.8,-2.52 C2.06,-2.52 2.27,-2.43 2.42,-2.25 C2.56,-2.07 2.64,-1.81 2.64,-1.48 C2.64,-1.15 2.56,-0.89 2.42,-0.71 C2.27,-0.53 2.06,-0.44 1.8,-0.44 C1.53,-0.44 1.32,-0.53 1.18,-0.71 C1.03,-0.89 0.96,-1.15 0.96,-1.48 C0.96,-1.82 1.03,-2.07 1.18,-2.25 C1.32,-2.43 1.53,-2.52 1.8,-2.52z M1.8,-3.02 C1.33,-3.02 0.97,-2.89 0.71,-2.61 C0.45,-2.34 0.32,-1.96 0.32,-1.48 C0.32,-1 0.45,-0.62 0.71,-0.35 C0.97,-0.08 1.33,0.06 1.8,0.06 C2.26,0.06 2.62,-0.08 2.88,-0.35 C3.14,-0.62 3.27,-1 3.27,-1.48 C3.27,-1.96 3.14,-2.34 2.88,-2.61 C2.62,-2.89 2.26,-3.02 1.8,-3.02z"></path><g opacity="1" transform="matrix(0.05925079807639122,0,0,0.05925079807639122,0,0)"></g></g></g></g><g stroke-linecap="butt" stroke-linejoin="round" stroke-miterlimit="4" transform="matrix(1,0,0,1,21.816143035888672,0)" opacity="1" style="display: inherit;"><g><g transform="matrix(1,0,0,1,0,0)" opacity="1" style="display: block;"><path d=" M1.79,-0.45 C1.53,-0.45 1.33,-0.54 1.19,-0.72 C1.04,-0.9 0.97,-1.16 0.97,-1.48 C0.97,-1.81 1.04,-2.06 1.19,-2.24 C1.33,-2.42 1.53,-2.51 1.79,-2.51 C2.04,-2.51 2.24,-2.42 2.38,-2.24 C2.53,-2.07 2.6,-1.82 2.6,-1.52 C2.6,-1.52 2.6,-1.45 2.6,-1.45 C2.6,-1.14 2.53,-0.89 2.38,-0.72 C2.24,-0.54 2.04,-0.45 1.79,-0.45z M2.6,-4.3 C2.6,-4.3 2.6,-2.48 2.6,-2.48 C2.51,-2.65 2.39,-2.78 2.22,-2.88 C2.06,-2.97 1.86,-3.02 1.65,-3.02 C1.24,-3.02 0.92,-2.88 0.68,-2.61 C0.45,-2.34 0.33,-1.96 0.33,-1.48 C0.33,-0.99 0.45,-0.62 0.68,-0.35 C0.92,-0.08 1.24,0.06 1.65,0.06 C1.87,0.06 2.07,0.01 2.25,-0.1 C2.42,-0.21 2.56,-0.35 2.64,-0.53 C2.64,-0.53 2.68,0 2.68,0 C2.68,0 3.24,0 3.24,0 C3.24,0 3.24,-4.3 3.24,-4.3 C3.24,-4.3 2.6,-4.3 2.6,-4.3z"></path><g opacity="1" transform="matrix(0.05925079807639122,0,0,0.05925079807639122,0,0)"></g></g></g></g><g stroke-linecap="butt" stroke-linejoin="round" stroke-miterlimit="4" transform="matrix(1,0,0,1,25.543018341064453,0)" opacity="1" style="display: inherit;"><g><g transform="matrix(1,0,0,1,0,0)" opacity="1" style="display: block;"><path d=" M1.39,-0.42 C1.25,-0.42 1.14,-0.45 1.06,-0.51 C0.99,-0.56 0.95,-0.65 0.95,-0.76 C0.95,-0.88 1,-0.97 1.1,-1.04 C1.19,-1.11 1.35,-1.17 1.55,-1.21 C1.55,-1.21 2.2,-1.34 2.2,-1.34 C2.2,-1.34 2.2,-0.98 2.2,-0.98 C2.2,-0.81 2.12,-0.68 1.96,-0.57 C1.79,-0.47 1.61,-0.42 1.39,-0.42z M3.05,-0.41 C2.97,-0.41 2.92,-0.43 2.88,-0.47 C2.85,-0.5 2.83,-0.56 2.83,-0.63 C2.83,-0.63 2.83,-1.97 2.83,-1.97 C2.83,-2.32 2.72,-2.58 2.49,-2.76 C2.27,-2.93 1.97,-3.02 1.58,-3.02 C1.26,-3.02 0.99,-2.95 0.77,-2.81 C0.55,-2.68 0.41,-2.49 0.34,-2.25 C0.34,-2.25 0.83,-1.99 0.83,-1.99 C0.95,-2.35 1.2,-2.52 1.59,-2.52 C1.78,-2.52 1.93,-2.47 2.04,-2.37 C2.14,-2.26 2.2,-2.12 2.2,-1.94 C2.2,-1.94 2.2,-1.78 2.2,-1.78 C2.2,-1.78 1.45,-1.65 1.45,-1.65 C1.06,-1.58 0.77,-1.47 0.58,-1.31 C0.39,-1.15 0.29,-0.95 0.29,-0.72 C0.29,-0.47 0.38,-0.28 0.56,-0.14 C0.73,-0.01 0.97,0.06 1.26,0.06 C1.48,0.06 1.68,0.02 1.85,-0.06 C2.03,-0.13 2.17,-0.24 2.26,-0.38 C2.29,-0.22 2.36,-0.11 2.46,-0.04 C2.56,0.03 2.69,0.06 2.86,0.06 C3,0.06 3.12,0.04 3.23,-0.01 C3.23,-0.01 3.27,-0.44 3.27,-0.44 C3.21,-0.42 3.14,-0.41 3.05,-0.41z"></path><g opacity="1" transform="matrix(0.05925079807639122,0,0,0.05925079807639122,0,0)"></g></g></g></g><g stroke-linecap="butt" stroke-linejoin="round" stroke-miterlimit="4" transform="matrix(1,0,0,1,28.949939727783203,0)" opacity="1" style="display: inherit;"><g><g transform="matrix(1,0,0,1,0,0)" opacity="1" style="display: block;"><path d=" M3.16,-2.96 C3.16,-2.96 2.5,-2.96 2.5,-2.96 C2.5,-2.96 1.88,-1.16 1.88,-1.16 C1.88,-1.16 1.68,-0.55 1.68,-0.55 C1.68,-0.55 1.51,-1.1 1.51,-1.1 C1.51,-1.1 0.86,-2.96 0.86,-2.96 C0.86,-2.96 0.15,-2.96 0.15,-2.96 C0.15,-2.96 1.07,-0.72 1.07,-0.72 C1.07,-0.72 1.38,0.02 1.38,0.02 C1.38,0.02 1.25,0.34 1.25,0.34 C1.19,0.5 1.11,0.61 1.03,0.67 C0.95,0.73 0.85,0.76 0.73,0.76 C0.53,0.76 0.37,0.69 0.25,0.55 C0.25,0.55 0.07,1.04 0.07,1.04 C0.15,1.12 0.25,1.18 0.36,1.22 C0.48,1.26 0.61,1.27 0.76,1.27 C1.03,1.27 1.25,1.2 1.42,1.07 C1.58,0.93 1.73,0.69 1.86,0.35 C1.86,0.35 3.16,-2.96 3.16,-2.96z"></path><g opacity="1" transform="matrix(0.05925079807639122,0,0,0.05925079807639122,0,0)"></g></g></g></g><g stroke-linecap="butt" stroke-linejoin="round" stroke-miterlimit="4" transform="matrix(1,0,0,1,32.185035705566406,0)" opacity="1" style="display: inherit;"><g><g transform="matrix(1,0,0,1,0,0)" opacity="1" style="display: block;"><path d=" M0.47,-4.43 C0.47,-4.43 0.14,-4.09 0.14,-4.09 C0.51,-3.76 0.77,-3.4 0.93,-3.02 C1.08,-2.65 1.16,-2.19 1.16,-1.65 C1.16,-1.11 1.08,-0.65 0.93,-0.27 C0.77,0.1 0.51,0.46 0.14,0.79 C0.14,0.79 0.47,1.13 0.47,1.13 C0.9,0.78 1.22,0.37 1.44,-0.09 C1.66,-0.56 1.77,-1.08 1.77,-1.65 C1.77,-2.22 1.66,-2.74 1.44,-3.21 C1.22,-3.67 0.9,-4.08 0.47,-4.43z"></path><g opacity="1" transform="matrix(0.05925079807639122,0,0,0.05925079807639122,0,0)"></g></g></g></g></g><g transform="matrix(6.576000213623047,0,0,6.576000213623047,998.6199340820312,1018.9002075195312)" opacity="1" fill="rgb(0,0,0)" font-size="7.11009979248047" font-family="Work Sans" font-style="normal" font-weight="500" aria-label="Gold" style="display: block;"><g stroke-linecap="butt" stroke-linejoin="round" stroke-miterlimit="4" transform="matrix(1,0,0,1,-8.073517799377441,0)" opacity="1" style="display: inherit;"><g><g transform="matrix(1,0,0,1,0,0)" opacity="1" style="display: block;"><path d=" M2.52,-2.42 C2.52,-2.42 2.52,-1.8 2.52,-1.8 C2.52,-1.8 3.95,-1.8 3.95,-1.8 C3.95,-1.8 3.95,-1.66 3.95,-1.66 C3.95,-1.31 3.84,-1.05 3.6,-0.86 C3.37,-0.68 3.07,-0.58 2.69,-0.58 C2.22,-0.58 1.85,-0.74 1.6,-1.04 C1.35,-1.35 1.23,-1.78 1.23,-2.35 C1.23,-2.9 1.36,-3.33 1.62,-3.64 C1.88,-3.95 2.23,-4.1 2.68,-4.1 C2.98,-4.1 3.24,-4.04 3.45,-3.9 C3.66,-3.77 3.81,-3.58 3.9,-3.32 C3.9,-3.32 4.6,-3.65 4.6,-3.65 C4.42,-4.03 4.17,-4.31 3.86,-4.49 C3.55,-4.67 3.15,-4.76 2.67,-4.76 C2.22,-4.76 1.83,-4.67 1.49,-4.47 C1.16,-4.27 0.9,-3.99 0.71,-3.63 C0.53,-3.27 0.43,-2.84 0.43,-2.35 C0.43,-1.85 0.52,-1.42 0.7,-1.06 C0.88,-0.69 1.14,-0.41 1.46,-0.22 C1.79,-0.03 2.17,0.07 2.61,0.07 C2.95,0.07 3.24,0.01 3.48,-0.1 C3.72,-0.22 3.91,-0.38 4.05,-0.6 C4.05,-0.6 4.07,0 4.07,0 C4.07,0 4.63,0 4.63,0 C4.63,0 4.63,-2.42 4.63,-2.42 C4.63,-2.42 2.52,-2.42 2.52,-2.42z"></path><g opacity="1" transform="matrix(0.07110099494457245,0,0,0.07110099494457245,0,0)"></g></g></g></g><g stroke-linecap="butt" stroke-linejoin="round" stroke-miterlimit="4" transform="matrix(1,0,0,1,-2.9258060455322266,0)" opacity="1" style="display: inherit;"><g><g transform="matrix(1,0,0,1,0,0)" opacity="1" style="display: block;"><path d=" M2.15,-3.03 C2.48,-3.03 2.73,-2.92 2.9,-2.7 C3.08,-2.48 3.16,-2.18 3.16,-1.78 C3.16,-1.38 3.08,-1.07 2.9,-0.85 C2.73,-0.64 2.48,-0.53 2.15,-0.53 C1.83,-0.53 1.58,-0.63 1.41,-0.85 C1.24,-1.07 1.15,-1.37 1.15,-1.78 C1.15,-2.18 1.24,-2.49 1.41,-2.71 C1.58,-2.92 1.83,-3.03 2.15,-3.03z M2.15,-3.63 C1.6,-3.63 1.17,-3.46 0.85,-3.14 C0.54,-2.81 0.38,-2.36 0.38,-1.78 C0.38,-1.2 0.54,-0.75 0.85,-0.42 C1.17,-0.09 1.6,0.07 2.15,0.07 C2.71,0.07 3.14,-0.09 3.46,-0.42 C3.77,-0.75 3.92,-1.2 3.92,-1.78 C3.92,-2.36 3.77,-2.81 3.46,-3.14 C3.14,-3.46 2.71,-3.63 2.15,-3.63z"></path><g opacity="1" transform="matrix(0.07110099494457245,0,0,0.07110099494457245,0,0)"></g></g></g></g><g stroke-linecap="butt" stroke-linejoin="round" stroke-miterlimit="4" transform="matrix(1,0,0,1,1.3829149007797241,0)" opacity="1" style="display: inherit;"><g><g transform="matrix(1,0,0,1,0,0)" opacity="1" style="display: block;"><path d=" M1.33,-5.15 C1.33,-5.15 0.57,-5.15 0.57,-5.15 C0.57,-5.15 0.57,-0.93 0.57,-0.93 C0.57,-0.59 0.64,-0.33 0.79,-0.17 C0.94,-0.01 1.18,0.07 1.49,0.07 C1.73,0.07 1.92,0.03 2.08,-0.05 C2.08,-0.05 2.17,-0.66 2.17,-0.66 C2.07,-0.62 1.99,-0.6 1.93,-0.59 C1.87,-0.57 1.79,-0.57 1.7,-0.57 C1.56,-0.57 1.46,-0.6 1.41,-0.67 C1.36,-0.74 1.33,-0.86 1.33,-1.04 C1.33,-1.04 1.33,-5.15 1.33,-5.15z"></path><g opacity="1" transform="matrix(0.07110099494457245,0,0,0.07110099494457245,0,0)"></g></g></g></g><g stroke-linecap="butt" stroke-linejoin="round" stroke-miterlimit="4" transform="matrix(1,0,0,1,3.6012659072875977,0)" opacity="1" style="display: inherit;"><g><g transform="matrix(1,0,0,1,0,0)" opacity="1" style="display: block;"><path d=" M2.15,-0.54 C1.84,-0.54 1.6,-0.65 1.43,-0.87 C1.25,-1.09 1.17,-1.39 1.17,-1.78 C1.17,-2.17 1.25,-2.47 1.43,-2.68 C1.6,-2.9 1.84,-3.01 2.15,-3.01 C2.45,-3.01 2.68,-2.9 2.86,-2.69 C3.03,-2.48 3.12,-2.19 3.12,-1.82 C3.12,-1.82 3.12,-1.73 3.12,-1.73 C3.12,-1.37 3.03,-1.07 2.86,-0.86 C2.68,-0.65 2.45,-0.54 2.15,-0.54z M3.12,-5.15 C3.12,-5.15 3.12,-2.98 3.12,-2.98 C3.02,-3.18 2.87,-3.34 2.67,-3.45 C2.47,-3.57 2.24,-3.63 1.98,-3.63 C1.49,-3.63 1.1,-3.46 0.82,-3.13 C0.54,-2.8 0.4,-2.35 0.4,-1.77 C0.4,-1.19 0.54,-0.74 0.82,-0.42 C1.1,-0.09 1.49,0.07 1.98,0.07 C2.25,0.07 2.49,0.01 2.7,-0.12 C2.91,-0.25 3.07,-0.42 3.17,-0.63 C3.17,-0.63 3.21,0 3.21,0 C3.21,0 3.88,0 3.88,0 C3.88,0 3.88,-5.15 3.88,-5.15 C3.88,-5.15 3.12,-5.15 3.12,-5.15z"></path><g opacity="1" transform="matrix(0.07110099494457245,0,0,0.07110099494457245,0,0)"></g></g></g></g></g><g transform="matrix(6.576000213623047,0,0,6.576000213623047,998.6199340820312,1018.9002075195312)" opacity="1" fill="rgb(0,0,0)" font-size="7.11009979248047" font-family="Work Sans" font-style="normal" font-weight="500" aria-label="BTC" style="display: block;"><g stroke-linecap="butt" stroke-linejoin="round" stroke-miterlimit="4" transform="matrix(1,0,0,1,-6.985672950744629,0)" opacity="0" style="display: inherit;"><g><g transform="matrix(1,0,0,1,0,0)" opacity="1" style="display: block;"><path d=" M1.44,-0.63 C1.44,-0.63 1.44,-2.04 1.44,-2.04 C1.44,-2.04 2.61,-2.04 2.61,-2.04 C2.9,-2.04 3.13,-1.98 3.28,-1.86 C3.43,-1.74 3.51,-1.56 3.51,-1.34 C3.51,-1.11 3.43,-0.93 3.28,-0.81 C3.13,-0.69 2.9,-0.63 2.61,-0.63 C2.61,-0.63 1.44,-0.63 1.44,-0.63z M1.44,-2.67 C1.44,-2.67 1.44,-4.05 1.44,-4.05 C1.44,-4.05 2.49,-4.05 2.49,-4.05 C3.09,-4.05 3.38,-3.82 3.38,-3.36 C3.38,-2.9 3.09,-2.67 2.49,-2.67 C2.49,-2.67 1.44,-2.67 1.44,-2.67z M0.7,0 C0.7,0 2.57,0 2.57,0 C3.12,0 3.55,-0.11 3.85,-0.34 C4.15,-0.57 4.29,-0.89 4.29,-1.3 C4.29,-1.57 4.21,-1.81 4.03,-2.01 C3.86,-2.2 3.63,-2.33 3.33,-2.37 C3.33,-2.37 3.33,-2.38 3.33,-2.38 C3.6,-2.43 3.81,-2.55 3.95,-2.74 C4.1,-2.93 4.17,-3.15 4.17,-3.41 C4.17,-3.82 4.04,-4.14 3.77,-4.36 C3.5,-4.58 3.1,-4.69 2.55,-4.69 C2.55,-4.69 0.7,-4.69 0.7,-4.69 C0.7,-4.69 0.7,0 0.7,0z"></path><g opacity="1" transform="matrix(0.07110099494457245,0,0,0.07110099494457245,0,0)"></g></g></g></g><g stroke-linecap="butt" stroke-linejoin="round" stroke-miterlimit="4" transform="matrix(1,0,0,1,-2.278787136077881,0)" opacity="0" style="display: inherit;"><g><g transform="matrix(1,0,0,1,0,0)" opacity="1" style="display: block;"><path d=" M4.19,-4.69 C4.19,-4.69 0.21,-4.69 0.21,-4.69 C0.21,-4.69 0.21,-4.04 0.21,-4.04 C0.21,-4.04 1.82,-4.04 1.82,-4.04 C1.82,-4.04 1.82,0 1.82,0 C1.82,0 2.58,0 2.58,0 C2.58,0 2.58,-4.04 2.58,-4.04 C2.58,-4.04 4.19,-4.04 4.19,-4.04 C4.19,-4.04 4.19,-4.69 4.19,-4.69z"></path><g opacity="1" transform="matrix(0.07110099494457245,0,0,0.07110099494457245,0,0)"></g></g></g></g><g stroke-linecap="butt" stroke-linejoin="round" stroke-miterlimit="4" transform="matrix(1,0,0,1,2.1223645210266113,0)" opacity="0" style="display: inherit;"><g><g transform="matrix(1,0,0,1,0,0)" opacity="1" style="display: block;"><path d=" M4.59,-1.24 C4.59,-1.24 3.86,-1.49 3.86,-1.49 C3.77,-1.19 3.62,-0.97 3.42,-0.82 C3.21,-0.67 2.96,-0.59 2.65,-0.59 C2.21,-0.59 1.86,-0.74 1.61,-1.05 C1.36,-1.36 1.23,-1.79 1.23,-2.35 C1.23,-2.9 1.36,-3.33 1.62,-3.64 C1.89,-3.95 2.24,-4.1 2.68,-4.1 C2.97,-4.1 3.2,-4.04 3.38,-3.91 C3.56,-3.78 3.7,-3.57 3.8,-3.29 C3.8,-3.29 4.51,-3.61 4.51,-3.61 C4.37,-3.99 4.14,-4.28 3.82,-4.47 C3.5,-4.67 3.11,-4.76 2.64,-4.76 C2.19,-4.76 1.8,-4.67 1.47,-4.47 C1.14,-4.28 0.88,-4 0.7,-3.63 C0.52,-3.27 0.43,-2.84 0.43,-2.35 C0.43,-1.85 0.52,-1.42 0.7,-1.06 C0.88,-0.69 1.14,-0.41 1.47,-0.22 C1.8,-0.03 2.19,0.07 2.64,0.07 C3.11,0.07 3.51,-0.04 3.86,-0.27 C4.2,-0.5 4.44,-0.82 4.59,-1.24z"></path><g opacity="1" transform="matrix(0.07110099494457245,0,0,0.07110099494457245,0,0)"></g></g></g></g></g></g></svg>