<svg xmlns="http://www.w3.org/2000/svg" xmlns:xlink="http://www.w3.org/1999/xlink" viewBox="0 0 1000 1000" width="1000" height="1000" preserveAspectRatio="xMidYMid meet" style="width: 100%; height: 100%; transform: translate3d(0px, 0px, 0px); content-visibility: visible;"><defs><clipPath id="__lottie_element_304"><rect width="1000" height="1000" x="0" y="0"></rect></clipPath></defs><g clip-path="url(#__lottie_element_304)"><g transform="matrix(1,0,0,1,500,500)" opacity="1" style="display: block;"><g opacity="1" transform="matrix(-19.199260711669922,0,0,-19.199260711669922,0,-24)"><path stroke-linecap="butt" stroke-linejoin="miter" fill-opacity="0" stroke-miterlimit="4" stroke="#5533FF" stroke-opacity="1" stroke-width="2" d="M0 0"></path></g><g opacity="1" transform="matrix(-19.199260711669922,0,0,-19.199260711669922,0,-24)"><path stroke-linecap="butt" stroke-linejoin="miter" fill-opacity="0" stroke-miterlimit="4" stroke="#5533FF" stroke-opacity="1" stroke-width="2" d=" M-3.428999900817871,14.904999732971191 C-7.77400016784668,13.425000190734863 -11.100000381469727,11.03600025177002 -13.406000137329102,7.73799991607666"></path></g><g opacity="1" transform="matrix(-19.199260711669922,0,0,-19.199260711669922,0,-24)"><path stroke-linecap="butt" stroke-linejoin="miter" fill-opacity="0" stroke-miterlimit="4" stroke="#5533FF" stroke-opacity="1" stroke-width="2" d=" M-9.946999549865723,4.814000129699707 C-9.946999549865723,4.814000129699707 -15.50100040435791,2.681999921798706 -15.50100040435791,2.681999921798706 C-15.50100040435791,2.681999921798706 -17.632999420166016,8.236000061035156 -17.632999420166016,8.236000061035156"></path></g></g><g transform="matrix(1,0,0,1,500,500)" opacity="1" style="display: block;"><g opacity="1" transform="matrix(-19.199260711669922,0,0,-19.199260711669922,0,-24)"><path stroke-linecap="butt" stroke-linejoin="miter" fill-opacity="0" stroke-miterlimit="4" stroke="#5533FF" stroke-opacity="1" stroke-width="2" d="M0 0"></path></g><g opacity="1" transform="matrix(-19.199260711669922,0,0,-19.199260711669922,0,-24)"><path stroke-linecap="butt" stroke-linejoin="miter" fill-opacity="0" stroke-miterlimit="4" stroke="#5533FF" stroke-opacity="1" stroke-width="2" d=" M13.734000205993652,-9.125 C11.336000442504883,-12.739999771118164 7.965000152587891,-15.232999801635742 3.619999885559082,-16.604000091552734"></path></g><g opacity="1" transform="matrix(-19.199260711669922,0,0,-19.199260711669922,0,-24)"><path stroke-linecap="butt" stroke-linejoin="miter" fill-opacity="0" stroke-miterlimit="4" stroke="#5533FF" stroke-opacity="1" stroke-width="2" d=" M17.823999404907227,-9.9350004196167 C17.823999404907227,-9.9350004196167 15.692000389099121,-4.380000114440918 15.692000389099121,-4.380000114440918 C15.692000389099121,-4.380000114440918 10.137999534606934,-6.51200008392334 10.137999534606934,-6.51200008392334"></path></g></g><g transform="matrix(1,0,0,1,500,500)" opacity="1" style="display: block;"><g opacity="1" transform="matrix(-19.199260711669922,0,0,-19.199260711669922,0,-24)"><path stroke-linecap="butt" stroke-linejoin="miter" fill-opacity="0" stroke-miterlimit="4" stroke="#5533FF" stroke-opacity="1" stroke-width="2" d=" M11.177000045776367,3.296999931335449 C13.13700008392334,5.256999969482422 13.13700008392334,8.437000274658203 11.177000045776367,10.397000312805176 C9.217000007629395,12.357000350952148 6.038000106811523,12.357000350952148 4.078000068664551,10.397000312805176 C2.118000030517578,8.437000274658203 2.118000030517578,5.256999969482422 4.078000068664551,3.296999931335449 C6.038000106811523,1.3370000123977661 9.217000007629395,1.3370000123977661 11.177000045776367,3.296999931335449z"></path></g></g><g transform="matrix(1,0,0,1,500,500)" opacity="1" style="display: block;"><g opacity="1" transform="matrix(-19.199260711669922,0,0,-19.199260711669922,0,-24)"><path stroke-linecap="butt" stroke-linejoin="miter" fill-opacity="0" stroke-miterlimit="4" stroke="#5533FF" stroke-opacity="1" stroke-width="2" d=" M-3.9040000438690186,-11.784000396728516 C-1.944000005722046,-9.824000358581543 -1.944000005722046,-6.644000053405762 -3.9040000438690186,-4.684000015258789 C-5.863999843597412,-2.7239999771118164 -9.043999671936035,-2.7239999771118164 -11.003999710083008,-4.684000015258789 C-12.96399974822998,-6.644000053405762 -12.96399974822998,-9.824000358581543 -11.003999710083008,-11.784000396728516 C-9.043999671936035,-13.744000434875488 -5.863999843597412,-13.744000434875488 -3.9040000438690186,-11.784000396728516z"></path></g></g></g></svg>