<svg xmlns="http://www.w3.org/2000/svg" xmlns:xlink="http://www.w3.org/1999/xlink" viewBox="0 0 1000 1000" width="1000" height="1000" preserveAspectRatio="xMidYMid meet" style="width: 100%; height: 100%; transform: translate3d(0px, 0px, 0px); content-visibility: visible;"><defs><clipPath id="__lottie_element_474"><rect width="1000" height="1000" x="0" y="0"></rect></clipPath></defs><g clip-path="url(#__lottie_element_474)"><g transform="matrix(1,0,0,1,500,500)" opacity="1" style="display: block;"><g opacity="1" transform="matrix(18.456369400024414,0,0,18.456369400024414,0,8)"><path stroke-linecap="butt" stroke-linejoin="miter" fill-opacity="0" stroke-miterlimit="4" stroke="#5533FF" stroke-opacity="1" stroke-width="2" d=" M11.381999969482422,11.420999526977539 C11.381999969482422,11.420999526977539 11.381999969482422,11.420999526977539 11.381999969482422,11.420999526977539 C11.381999969482422,11.420999526977539 11.381999969482422,9.123000144958496 11.381999969482422,9.123000144958496 C11.381999969482422,4.046000003814697 7.264999866485596,-0.07000000029802322 2.187999963760376,-0.07000000029802322 C2.187999963760376,-0.07000000029802322 -2.4079999923706055,-0.07000000029802322 -2.4079999923706055,-0.07000000029802322 C-6.451000213623047,-0.07000000029802322 -9.883999824523926,2.5399999618530273 -11.114999771118164,6.165999889373779"></path></g><g opacity="1" transform="matrix(18.456369400024414,0,0,18.456369400024414,0.8100000023841858,8.034000396728516)"><path stroke-linecap="butt" stroke-linejoin="miter" fill-opacity="0" stroke-miterlimit="4" stroke="#5533FF" stroke-opacity="1" stroke-width="2" d="M0 0"></path></g></g><g transform="matrix(0.977901041507721,0.00030448372126556933,-0.00030448372126556933,0.977901041507721,500.0218200683594,504.835693359375)" opacity="1" style="display: block;"><g opacity="1" transform="matrix(18.456369400024414,0,0,18.456369400024414,0,8)"><path stroke-linecap="butt" stroke-linejoin="miter" fill-opacity="0" stroke-miterlimit="4" stroke="#5533FF" stroke-opacity="1" stroke-width="2" d=" M-0.10999999940395355,6.823999881744385 C-0.10999999940395355,6.823999881744385 -0.10999999940395355,16.01799964904785 -0.10999999940395355,16.01799964904785"></path></g><g opacity="1" transform="matrix(18.456369400024414,0,0,18.456369400024414,0,8)"><path stroke-linecap="butt" stroke-linejoin="miter" fill-opacity="0" stroke-miterlimit="4" stroke="#5533FF" stroke-opacity="1" stroke-width="2" d=" M4.486999988555908,11.420999526977539 C4.486999988555908,11.420999526977539 -4.705999851226807,11.420999526977539 -4.705999851226807,11.420999526977539"></path></g></g><g transform="matrix(0.7284055352210999,-0.6851462125778198,0.6851462125778198,0.7284055352210999,621.5726928710938,450.2011413574219)" opacity="1" style="display: block;"><g opacity="1" transform="matrix(18.456369400024414,0,0,18.456369400024414,0,8)"><path stroke-linecap="butt" stroke-linejoin="miter" fill-opacity="0" stroke-miterlimit="4" stroke="#5533FF" stroke-opacity="1" stroke-width="2" d=" M6.1479997634887695,-12.088000297546387 C5.302999973297119,-14.73900032043457 2.821000099182129,-16.658000946044922 -0.10999999940395355,-16.658000946044922 C-1.7239999771118164,-16.658000946044922 -3.2019999027252197,-16.075000762939453 -4.34499979019165,-15.109000205993652"></path></g><g opacity="1" transform="matrix(18.456369400024414,0,0,18.456369400024414,0,8)"><path stroke-linecap="butt" stroke-linejoin="miter" fill-opacity="0" stroke-miterlimit="4" stroke="#5533FF" stroke-opacity="1" stroke-width="2" d="M0 0"></path></g></g></g></svg>