<svg xmlns="http://www.w3.org/2000/svg" xmlns:xlink="http://www.w3.org/1999/xlink" viewBox="0 0 1000 1000" width="1000" height="1000" preserveAspectRatio="xMidYMid meet" style="width: 100%; height: 100%; transform: translate3d(0px, 0px, 0px); content-visibility: visible;"><defs><clipPath id="__lottie_element_506"><rect width="1000" height="1000" x="0" y="0"></rect></clipPath></defs><g clip-path="url(#__lottie_element_506)"><g transform="matrix(1,0,0,1,500,488)" opacity="1" style="display: block;"><g opacity="1" transform="matrix(19.207218170166016,5.8722357749938965,-5.8722357749938965,19.207218170166016,0,0)"><path fill="#5533FF" fill-opacity="1" d=" M6.394000053405762,-12.998000144958496 C6.394000053405762,-12.998000144958496 8.138999938964844,-12.020999908447266 8.138999938964844,-12.020999908447266 C8.138999938964844,-12.020999908447266 3.8519999980926514,-4.61299991607666 3.8519999980926514,-4.61299991607666 C4.669000148773193,-3.9560000896453857 5.311999797821045,-3.0980000495910645 5.715000152587891,-2.1010000705718994 C7.000999927520752,1.0809999704360962 5.4629998207092285,4.703999996185303 2.2809998989105225,5.989999771118164 C-0.9010000228881836,7.276000022888184 -4.5229997634887695,5.736999988555908 -5.809000015258789,2.555000066757202 C-7.065999984741211,-0.5569999814033508 -5.625,-4.089000225067139 -2.5850000381469727,-5.446000099182129 C-2.5850000381469727,-5.446000099182129 -2.375,-5.534999847412109 -2.375,-5.534999847412109 C-2.375,-5.534999847412109 -1.4479999542236328,-5.908999919891357 -1.4479999542236328,-5.908999919891357 C-1.4479999542236328,-5.908999919891357 -0.6990000009536743,-4.054999828338623 -0.6990000009536743,-4.054999828338623 C-0.6990000009536743,-4.054999828338623 -1.6260000467300415,-3.680000066757202 -1.6260000467300415,-3.680000066757202 C-3.7839999198913574,-2.808000087738037 -4.827000141143799,-0.35199999809265137 -3.9549999237060547,1.805999994277954 C-3.0829999446868896,3.9639999866485596 -0.6259999871253967,5.006999969482422 1.531999945640564,4.135000228881836 C3.690000057220459,3.263000011444092 4.732999801635742,0.8069999814033508 3.8610000610351562,-1.3509999513626099 C3.569000005722046,-2.0739998817443848 3.0920000076293945,-2.687000036239624 2.484999895095825,-3.1419999599456787 C2.484999895095825,-3.1419999599456787 2.2780001163482666,-3.2880001068115234 2.2780001163482666,-3.2880001068115234 C2.2780001163482666,-3.2880001068115234 1.4429999589920044,-3.8389999866485596 1.4429999589920044,-3.8389999866485596 C1.4429999589920044,-3.8389999866485596 1.1929999589920044,-4.000999927520752 1.1929999589920044,-4.000999927520752 C1.1929999589920044,-4.000999927520752 1.3600000143051147,-4.295000076293945 1.3600000143051147,-4.295000076293945 C1.3600000143051147,-4.295000076293945 6.394000053405762,-12.998000144958496 6.394000053405762,-12.998000144958496z"></path></g><g opacity="1" transform="matrix(20.084829330444336,0,0,20.084829330444336,0,0)"><path fill="#5533FF" fill-opacity="1" d=" M6.372000217437744,-12.975000381469727 C4.427000045776367,-13.89900016784668 2.250999927520752,-14.416999816894531 -0.04600000008940697,-14.416999816894531 C-2.365999937057495,-14.416999816894531 -4.586999893188477,-13.883999824523926 -6.576000213623047,-12.920000076293945 C-6.576000213623047,-12.920000076293945 -4.65500020980835,-9.592000007629395 -4.65500020980835,-9.592000007629395 C-4.65500020980835,-9.592000007629395 -6.38700008392334,-8.592000007629395 -6.38700008392334,-8.592000007629395 C-6.38700008392334,-8.592000007629395 -8.314000129699707,-11.928999900817871 -8.314000129699707,-11.928999900817871 C-10.70300006866455,-10.345999717712402 -12.630000114440918,-8.083000183105469 -13.800999641418457,-5.364999771118164 C-13.800999641418457,-5.364999771118164 -13.930000305175781,-5.054999828338623 -13.930000305175781,-5.054999828338623 C-13.930000305175781,-5.054999828338623 -14.305000305175781,-4.127999782562256 -14.305000305175781,-4.127999782562256 C-14.305000305175781,-4.127999782562256 -16.159000396728516,-4.877999782562256 -16.159000396728516,-4.877999782562256 C-16.159000396728516,-4.877999782562256 -15.784000396728516,-5.804999828338623 -15.784000396728516,-5.804999828338623 C-13.211999893188477,-12.164999961853027 -7.02400016784668,-16.41699981689453 -0.04600000008940697,-16.41699981689453 C8.989999771118164,-16.41699981689453 16.37700080871582,-9.354000091552734 16.895000457763672,-0.4480000138282776 C16.895000457763672,-0.4480000138282776 16.895000457763672,-0.44699999690055847 16.895000457763672,-0.44699999690055847 C16.895000457763672,-0.44699999690055847 16.895000457763672,1.5529999732971191 16.895000457763672,1.5529999732971191 C16.895000457763672,1.5529999732971191 16.895000457763672,1.5529999732971191 16.895000457763672,1.5529999732971191 C16.37700080871582,10.460000038146973 8.991000175476074,17.523000717163086 -0.04600000008940697,17.523000717163086 C-9.083000183105469,17.523000717163086 -16.4689998626709,10.460000038146973 -16.98699951171875,1.5529999732971191 C-16.98699951171875,1.5529999732971191 -16.98699951171875,1.5529999732971191 -16.98699951171875,1.5529999732971191 C-16.98699951171875,1.5529999732971191 -16.98699951171875,-0.44699999690055847 -16.98699951171875,-0.44699999690055847 C-16.98699951171875,-0.44699999690055847 -11.182999610900879,-0.44699999690055847 -11.182999610900879,-0.44699999690055847 C-11.182999610900879,-0.44699999690055847 -11.182999610900879,1.5529999732971191 -11.182999610900879,1.5529999732971191 C-11.182999610900879,1.5529999732971191 -14.982999801635742,1.5529999732971191 -14.982999801635742,1.5529999732971191 C-14.666999816894531,6.3480000495910645 -12.093000411987305,10.527000427246094 -8.314000129699707,13.03499984741211 C-8.314000129699707,13.03499984741211 -6.38700008392334,9.697999954223633 -6.38700008392334,9.697999954223633 C-6.38700008392334,9.697999954223633 -4.65500020980835,10.697999954223633 -4.65500020980835,10.697999954223633 C-4.65500020980835,10.697999954223633 -6.577000141143799,14.027000427246094 -6.577000141143799,14.027000427246094 C-4.603000164031982,14.984999656677246 -2.38700008392334,15.52299976348877 -0.04600000008940697,15.52299976348877 C2.384000062942505,15.52299976348877 4.679999828338623,14.944000244140625 6.709000110626221,13.916000366210938 C6.709000110626221,13.916000366210938 4.689000129699707,10.446000099182129 4.689000129699707,10.446000099182129 C4.689000129699707,10.446000099182129 6.416999816894531,9.4399995803833 6.416999816894531,9.4399995803833 C6.416999816894531,9.4399995803833 8.428999900817871,12.895000457763672 8.428999900817871,12.895000457763672 C12.095000267028809,10.373000144958496 14.581000328063965,6.260000228881836 14.890999794006348,1.5529999732971191 C14.890999794006348,1.5529999732971191 11.090999603271484,1.5529999732971191 11.090999603271484,1.5529999732971191 C11.090999603271484,1.5529999732971191 11.090999603271484,-0.44699999690055847 11.090999603271484,-0.44699999690055847 C11.090999603271484,-0.44699999690055847 14.890999794006348,-0.4480000138282776 14.890999794006348,-0.4480000138282776 C14.571999549865723,-5.2870001792907715 11.95300006866455,-9.496999740600586 8.116999626159668,-11.996999740600586"></path></g></g></g></svg>